<svg width="830" height="1578" viewBox="0 0 830 1578" fill="none" xmlns="http://www.w3.org/2000/svg">
<g filter="url(#filter0_f_562_3521)">
<path d="M265.759 757.395C319.891 533.9 315.794 232.106 425.172 258.598C534.551 285.09 1066.44 454.792 661.852 853.332C743.385 1216.72 796.318 1307.5 686.94 1281.01C392.987 1463.38 211.627 980.89 265.759 757.395Z" fill="url(#paint0_linear_562_3521)" fill-opacity="0.32"/>
</g>
<g clip-path="url(#clip0_562_3521)" filter="url(#filter1_f_562_3521)">
<path d="M350.678 470.907C362.666 474.118 378.256 479.242 385.173 490.651C390.864 500.664 388.176 514.941 383.813 525.292C375.199 546.625 355.262 562.98 332.709 566.425C328.814 566.535 337.866 566.068 335.862 565.806C342.279 565.201 348.438 564.974 354.855 564.369C368.062 563.413 381.269 562.457 394.363 560.868C416.916 557.422 436.93 543.344 446.546 522.141C451.169 511.413 454.859 497.266 449.686 486.496C443.806 473.574 427.214 468.32 414.595 465.232C412.22 464.716 407.176 465.707 405.284 466.078C397.493 466.298 390.074 466.773 382.395 467.626C374.716 468.479 367.668 469.208 360.248 469.682C357.355 469.923 353.053 471.422 350.678 470.907Z" fill="url(#paint1_linear_562_3521)"/>
</g>
<g clip-path="url(#clip1_562_3521)" filter="url(#filter2_f_562_3521)">
<path d="M431.317 1320.34C425.518 1323.15 419.213 1326.13 412.687 1324.24C406.412 1322.27 404.403 1316.27 402.734 1310.43C400.803 1303.82 399.629 1296.95 395.182 1292.04C390.987 1287.05 384.713 1285.08 378.779 1283.29C378.099 1282.94 372.045 1293.39 371.462 1294.16C370.967 1295.2 364.913 1305.65 364.233 1305.29C370.167 1307.09 376.442 1309.06 380.636 1314.04C385.171 1319.21 386.597 1325.99 388.189 1332.43C389.858 1338.27 391.615 1344.36 398.141 1346.25C404.755 1348.39 411.225 1345.07 416.859 1342.6C417.364 1342.43 418.938 1339.58 419.191 1339.5C420.765 1336.65 422.426 1334.06 424.088 1331.47C426.002 1328.8 427.663 1326.21 429.325 1323.62C429.655 1322.93 430.559 1320.59 431.317 1320.34Z" fill="url(#paint2_linear_562_3521)"/>
</g>
<path d="M442.946 1016.78C449.979 1017.21 459.912 1016.41 465.65 1011.55C471.134 1006.84 468.776 996.634 468.395 990.266C468.037 983.364 467.983 976.103 471.27 969.772C474.38 963.723 481.315 958.83 488.405 960.79C490.445 961.291 485.931 959.857 486.951 960.107C483.864 959.024 480.854 958.067 477.844 957.111C471.543 955.021 465.42 952.649 459.019 950.967C452.541 949.158 446.157 951.806 442.332 957.248C438.025 963.328 437.597 971.227 437.982 978.461C438.186 985.109 441.109 996.537 435.371 1001.4C429.633 1006.26 419.904 1007.11 412.667 1006.63C413.737 1006.68 416.239 1007.94 417.132 1008.27C420.704 1009.58 424.325 1010.69 427.82 1011.87C431.442 1012.98 435.014 1014.29 438.636 1015.4C439.809 1015.9 441.545 1016.76 442.946 1016.78Z" fill="url(#paint3_linear_562_3521)"/>
<path d="M594.246 873.457C596.333 866.29 594.901 858.474 589.911 852.812C587.48 849.943 583.647 847.053 579.724 847.17" fill="url(#paint4_linear_562_3521)"/>
<g opacity="0.1" clip-path="url(#clip2_562_3521)">
<path d="M759.307 1009.94L759.252 1009.96L722.323 1021.04C720.348 1021.62 718.29 1020.8 717.314 1019.06C716.773 1018.12 704.723 995.96 709.656 971.785C712.681 956.848 715.476 949.263 717.961 943.715C715.88 944.145 713.948 944.292 712.343 944.334C710.541 944.323 708.868 944.152 707.321 944.001C702.553 943.527 700.751 943.515 698.228 946.316C696.388 948.254 696.062 951.176 695.756 953.974C695.423 957.25 694.937 961.925 690.37 963.207L679.149 966.555C678.061 966.902 676.874 966.752 675.874 966.25C674.874 965.747 674.153 964.803 673.813 963.738L661.02 921.035C660.377 918.834 661.741 916.344 663.951 915.756L677.856 911.61C680.141 910.881 682.531 912.172 683.191 914.427L683.395 915.066C684.354 913.938 685.476 912.758 686.779 911.579C694.334 904.823 704.311 902.46 717.288 904.423C725.915 905.719 732.212 896.899 732.304 896.811C732.896 896.035 733.719 895.42 734.643 895.125L747.552 891.239C749.854 890.563 752.227 891.801 752.887 894.056C761.901 924.169 763.711 932.28 754.797 959.194C747.103 982.607 761.435 1003.27 761.612 1003.45C762.384 1004.56 762.591 1005.96 762.115 1007.28C761.623 1008.56 760.613 1009.52 759.307 1009.94ZM723.418 1011.89L751.536 1003.44C747.118 995.047 739.911 976.978 746.608 956.642C754.339 933.158 753.441 926.401 745.805 900.602L738.371 902.858C735.603 906.207 727.422 914.572 715.83 912.813C705.621 911.258 698.001 912.928 692.536 917.784C687.494 922.27 686.273 926.71 686.273 926.71C685.733 928.585 684.049 929.886 682.138 929.909C680.227 929.932 678.483 928.786 677.959 926.957L676.146 920.903L670.525 922.639L680.842 957.209L686.915 955.387C687.017 954.768 687.142 953.847 687.21 953.121C687.584 949.597 688.128 944.727 691.756 940.692C697.39 934.491 703.147 935.06 708.221 935.553C709.588 935.704 711.01 935.837 712.506 935.829C716.722 935.892 721.932 933.994 723.54 931.896C724.798 930.203 727.189 929.615 729.08 930.656C730.953 931.642 731.794 933.898 730.998 935.913C729.958 938.476 728.907 940.632 727.819 942.857C724.97 948.581 721.781 955.117 718.042 973.452C714.758 989.646 720.53 1005.47 723.418 1011.89Z" fill="#A8B7FF"/>
</g>
<g opacity="0.05" clip-path="url(#clip3_562_3521)">
<path d="M738.501 774.785C734.231 773.788 730.153 771.967 726.492 769.373C719.114 764.093 714.158 756.216 712.619 747.239C711.081 738.262 713.181 729.265 718.477 721.804C720.121 719.499 723.415 718.924 725.717 720.568C728.094 722.23 728.593 725.509 726.949 727.813C723.297 732.97 721.827 739.268 722.912 745.451C723.979 751.709 727.367 757.164 732.518 760.818C737.669 764.471 743.962 765.94 750.141 764.852C756.395 763.781 761.847 760.389 765.5 755.233C767.161 752.853 770.438 752.353 772.74 753.997C775.117 755.659 775.616 758.938 773.972 761.242C768.693 768.628 760.82 773.59 751.867 775.058C747.384 775.988 742.846 775.799 738.501 774.785Z" fill="#B0BCFF"/>
<path d="M735.361 737.129C731.09 736.133 727.013 734.311 723.352 731.718C721.936 730.676 720.613 729.576 719.382 728.419C707.39 716.844 705.676 697.785 715.337 684.148C725.692 669.566 745.689 665.458 760.876 674.853C763.288 676.365 764.122 679.564 762.61 681.978C761.099 684.392 757.919 685.153 755.49 683.716C744.92 677.217 730.986 680.053 723.809 690.158C717.089 699.658 718.282 712.824 726.599 720.853C727.433 721.68 728.359 722.45 729.378 723.162C736.095 727.892 744.563 728.841 752.166 725.713C754.798 724.588 757.822 725.848 758.946 728.482C760.069 731.116 758.792 734.217 756.177 735.267C749.428 738.12 742.178 738.721 735.361 737.129Z" fill="#B0BCFF"/>
<path d="M775.195 765.481C770.924 764.484 766.847 762.663 763.186 760.069C755.807 754.789 750.852 746.912 749.313 737.935C747.775 728.958 749.874 719.96 755.171 712.5C757.509 709.25 760.302 706.423 763.589 704.186C765.952 702.524 769.191 703.201 770.794 705.472C772.454 707.836 771.851 711.095 769.431 712.665C767.178 714.195 765.212 716.187 763.586 718.417C759.933 723.573 758.463 729.871 759.548 736.054C760.615 742.312 764.003 747.768 769.154 751.421C774.306 755.074 780.599 756.543 786.778 755.455C793.031 754.384 798.484 750.992 802.136 745.836C808.857 736.335 807.663 723.17 799.346 715.141C797.282 713.157 797.192 709.815 799.251 707.766C801.234 705.698 804.556 705.683 806.621 707.667C818.613 719.242 820.327 738.301 810.666 751.938C805.387 759.324 797.514 764.286 788.543 765.829C784.095 766.609 779.54 766.495 775.195 765.481Z" fill="#B0BCFF"/>
<path d="M778.7 718.307C774.43 717.311 770.352 715.489 766.691 712.895C759.313 707.616 754.357 699.739 752.818 690.762C751.28 681.785 753.38 672.787 758.676 665.326C769.598 650.007 790.892 646.438 806.138 657.27C821.442 668.195 825.001 689.503 814.171 704.765C808.892 712.15 801.019 717.112 792.048 718.656C787.583 719.511 783.045 719.321 778.7 718.307ZM791.825 662.073C782.76 659.957 772.884 663.345 767.131 671.411C763.478 676.567 762.008 682.865 763.093 689.048C764.161 695.306 767.548 700.762 772.699 704.415C777.851 708.068 784.144 709.537 790.323 708.449C796.576 707.378 802.029 703.986 805.681 698.83C813.224 688.177 810.755 673.37 800.113 665.826C797.546 663.962 794.746 662.755 791.825 662.073Z" fill="#B0BCFF"/>
<path d="M811.002 736.283C808.23 735.636 806.507 732.862 807.08 730.07C807.728 727.296 810.443 725.479 813.289 726.143C822.597 728.236 832.15 724.536 837.684 716.735C841.336 711.579 842.806 705.281 841.721 699.098C840.654 692.84 837.266 687.385 832.115 683.731C826.906 679.986 820.521 678.574 814.175 679.702C811.29 680.215 808.648 678.333 808.119 675.522C807.591 672.71 809.489 669.991 812.299 669.461C821.38 667.785 830.537 669.843 838.123 675.251C845.502 680.531 850.457 688.408 851.996 697.385C853.535 706.362 851.435 715.359 846.139 722.82C838.267 733.87 824.465 739.188 811.002 736.283Z" fill="#B0BCFF"/>
<path d="M733.768 681.334C732.494 681.037 731.268 680.197 730.522 678.995C723.305 667.27 723.748 652.509 731.73 641.327C737.008 633.941 744.881 628.979 753.852 627.436C762.823 625.893 771.813 627.991 779.267 633.288C786.645 638.568 791.601 646.445 793.14 655.422C793.594 658.216 791.695 660.936 788.903 661.391C786.018 661.904 783.394 659.947 782.865 657.136C781.798 650.878 778.41 645.422 773.259 641.769C762.617 634.225 747.819 636.701 740.277 647.354C734.743 655.155 734.399 665.432 739.451 673.568C740.944 675.973 740.192 679.197 737.771 680.766C736.513 681.421 735.116 681.649 733.768 681.334Z" fill="#B0BCFF"/>
<path d="M805.993 668.384C803.221 667.737 801.533 667.185 801.158 667.098C799.902 666.726 798.844 665.846 798.247 664.679C797.346 663.125 777.45 626.856 794.473 602.999C795.515 601.581 797.126 600.771 798.862 600.781C800.58 600.866 802.18 601.793 803.099 603.272L813.417 619.991L837.927 606.025C839.74 605.025 841.926 605.139 843.549 606.309C845.172 607.478 846.025 609.575 845.553 611.6L839.717 639.649L860.749 645.665C862.38 646.124 863.668 647.374 864.252 648.933C864.818 650.568 864.566 652.327 863.542 653.669C848.075 675.597 817.755 671.13 805.993 668.384ZM806.35 657.715C813.19 659.549 835.656 664.16 849.709 653.366L832.238 648.34C829.651 647.578 828.061 644.914 828.598 642.272L833.061 620.781L814.211 631.482C811.751 632.885 808.696 632.093 807.204 629.689L799.165 616.744C794.758 632.239 803.327 651.712 806.35 657.715Z" fill="#7D92FF"/>
<path d="M777.072 684.326C776.548 684.203 776.116 684.023 775.626 683.751C773.197 682.314 772.346 679.19 773.725 676.666C774.107 676.044 777.473 670.425 784.113 669.05C787.183 668.422 791.998 668.439 797.661 672.607C799.963 674.251 800.537 677.547 798.818 679.834C797.174 682.139 793.897 682.639 791.595 680.995C789.575 679.496 787.737 678.909 786.324 679.211C784.166 679.656 782.782 681.863 782.782 681.863C781.583 683.955 779.245 684.833 777.072 684.326Z" fill="#B0BCFF"/>
<path d="M733.94 714.107C732.891 713.862 731.912 713.317 731.171 712.433C730.676 711.843 726.567 706.772 727.49 700.109C727.89 697.04 729.667 692.474 735.41 688.517C737.755 686.93 741.011 687.531 742.597 689.878C744.182 692.225 743.579 695.484 741.234 697.071C739.166 698.486 737.957 699.943 737.774 701.403C737.509 703.554 739.089 705.584 739.089 705.584C740.952 707.758 740.649 711.087 738.476 712.951C737.169 714.149 735.438 714.456 733.94 714.107Z" fill="#B0BCFF"/>
<path d="M801.533 667.185C798.911 666.573 797.136 664.024 797.616 661.29C797.681 660.673 799.972 647.134 813.987 637.518C816.35 635.856 819.607 636.458 821.174 638.879C822.835 641.243 822.232 644.502 819.812 646.072C809.638 653.106 807.848 662.808 807.83 662.883C807.407 665.71 804.732 667.695 801.925 667.198C801.833 667.255 801.683 667.22 801.533 667.185Z" fill="#7D92FF"/>
</g>
<g opacity="0.1" clip-path="url(#clip4_562_3521)">
<path d="M738.558 281.177L755.155 312.256C756.088 314.003 755.407 316.204 753.64 317.147L739.136 324.893C737.37 325.837 735.161 325.179 734.228 323.432L730.722 316.866C721.241 319.207 707.625 325.526 702.679 335.585C699.52 342.035 700.174 349.442 704.585 357.702C708.968 365.908 714.76 370.572 721.742 371.539C733.453 373.246 746.369 364.715 753.087 358.746L749.298 351.651C748.365 349.904 749.047 347.703 750.813 346.76L765.318 339.014C767.084 338.071 769.293 338.728 770.226 340.476L786.823 371.555C787.756 373.302 787.074 375.503 785.308 376.446L770.803 384.192C769.037 385.135 766.828 384.478 765.895 382.73L763.153 377.595C759.488 383.226 754.832 388.162 749.397 392.153C736.102 401.907 719.581 405.49 703.985 402.047C689.179 398.795 677.138 389.643 669.984 376.248C662.831 362.853 661.894 347.703 667.426 333.589C673.239 318.713 685.406 306.976 700.853 301.381C707.193 299.084 713.938 297.931 720.603 298.046L717.549 292.328C716.616 290.581 717.298 288.38 719.064 287.437L733.569 279.691C735.417 278.772 737.625 279.43 738.558 281.177ZM747.036 312.509L733.832 287.783L725.75 292.099L730.217 300.465C730.868 301.683 730.737 303.113 729.978 304.267C729.19 305.368 727.849 305.948 726.465 305.803C718.721 304.699 710.724 305.567 703.336 308.22C689.904 313.08 679.328 323.287 674.256 336.202C669.49 348.273 670.243 361.276 676.407 372.818C682.571 384.36 692.958 392.218 705.64 394.971C719.194 397.94 733.56 394.827 745.069 386.367C751.383 381.703 756.552 375.54 759.942 368.49C760.537 367.288 761.819 366.467 763.172 366.425C764.525 366.383 765.815 367.123 766.465 368.341L770.622 376.124L778.703 371.808L765.499 347.082L757.417 351.398L760.782 357.699C761.517 359.075 761.286 360.832 760.146 361.917C752.917 369.248 736.499 381.01 720.659 378.785C711.232 377.491 703.651 371.538 698.137 361.213C692.567 350.783 691.89 341.142 696.136 332.478C703.258 317.992 722.734 310.925 732.066 309.208C733.631 308.917 735.191 309.649 735.926 311.025L739.008 316.796L747.036 312.509Z" fill="#BFC9FF"/>
<path d="M685.41 362.498C687.604 361.327 690.385 362.155 691.545 364.326C692.704 366.496 691.845 369.268 689.651 370.44C687.456 371.612 684.675 370.784 683.516 368.613C682.357 366.442 683.215 363.67 685.41 362.498Z" fill="#BFC9FF"/>
<path d="M680.667 345.502C682.862 344.33 685.643 345.159 686.802 347.33C687.961 349.5 687.103 352.272 684.908 353.444C682.714 354.616 679.933 353.788 678.773 351.617C677.614 349.446 678.473 346.674 680.667 345.502Z" fill="#BFC9FF"/>
<path d="M696.925 375.946C699.119 374.774 701.9 375.602 703.06 377.773C704.219 379.944 703.36 382.716 701.166 383.888C698.972 385.06 696.191 384.231 695.031 382.061C693.844 379.837 694.73 377.118 696.925 375.946Z" fill="#BFC9FF"/>
</g>
<defs>
<filter id="filter0_f_562_3521" x="0.227356" y="0.963196" width="1067.29" height="1576.37" filterUnits="userSpaceOnUse" color-interpolation-filters="sRGB">
<feFlood flood-opacity="0" result="BackgroundImageFix"/>
<feBlend mode="normal" in="SourceGraphic" in2="BackgroundImageFix" result="shape"/>
<feGaussianBlur stdDeviation="128.002" result="effect1_foregroundBlur_562_3521"/>
</filter>
<filter id="filter1_f_562_3521" x="288.37" y="420.554" width="190.387" height="197.46" filterUnits="userSpaceOnUse" color-interpolation-filters="sRGB">
<feFlood flood-opacity="0" result="BackgroundImageFix"/>
<feBlend mode="normal" in="SourceGraphic" in2="BackgroundImageFix" result="shape"/>
<feGaussianBlur stdDeviation="5.88514" result="effect1_foregroundBlur_562_3521"/>
</filter>
<filter id="filter2_f_562_3521" x="347.221" y="1259.19" width="101.282" height="107.783" filterUnits="userSpaceOnUse" color-interpolation-filters="sRGB">
<feFlood flood-opacity="0" result="BackgroundImageFix"/>
<feBlend mode="normal" in="SourceGraphic" in2="BackgroundImageFix" result="shape"/>
<feGaussianBlur stdDeviation="5.88514" result="effect1_foregroundBlur_562_3521"/>
</filter>
<linearGradient id="paint0_linear_562_3521" x1="425.069" y1="1294.05" x2="661.971" y2="315.952" gradientUnits="userSpaceOnUse">
<stop stop-color="#3DE8FF" stop-opacity="0.41"/>
<stop offset="1" stop-color="#0051EE" stop-opacity="0.29"/>
</linearGradient>
<linearGradient id="paint1_linear_562_3521" x1="386.297" y1="461.612" x2="394.108" y2="540.777" gradientUnits="userSpaceOnUse">
<stop offset="0.00540541" stop-color="#8C623E"/>
<stop offset="0.1505" stop-color="#B28452"/>
<stop offset="0.4748" stop-color="#EAB671"/>
<stop offset="0.673" stop-color="#B58653"/>
<stop offset="0.7991" stop-color="#EAB671"/>
<stop offset="1" stop-color="#825937"/>
</linearGradient>
<linearGradient id="paint2_linear_562_3521" x1="343.789" y1="1279.61" x2="453.184" y2="1356.3" gradientUnits="userSpaceOnUse">
<stop offset="0.00540541" stop-color="#8C623E"/>
<stop offset="0.1018" stop-color="#EAB671"/>
<stop offset="0.1937" stop-color="#B28452"/>
<stop offset="0.3405" stop-color="#825937"/>
<stop offset="0.4748" stop-color="#EAB671"/>
<stop offset="0.6432" stop-color="#825937"/>
<stop offset="0.7829" stop-color="#EAB671"/>
<stop offset="1" stop-color="#825937"/>
</linearGradient>
<linearGradient id="paint3_linear_562_3521" x1="464.039" y1="936.216" x2="437.473" y2="1030.83" gradientUnits="userSpaceOnUse">
<stop offset="0.00540541" stop-color="#8C623E"/>
<stop offset="0.1018" stop-color="#EAB671"/>
<stop offset="0.1937" stop-color="#B28452"/>
<stop offset="0.3405" stop-color="#825937"/>
<stop offset="0.4748" stop-color="#EAB671"/>
<stop offset="0.6432" stop-color="#825937"/>
<stop offset="0.7829" stop-color="#EAB671"/>
<stop offset="1" stop-color="#825937"/>
</linearGradient>
<linearGradient id="paint4_linear_562_3521" x1="575.295" y1="855.945" x2="593.168" y2="862.195" gradientUnits="userSpaceOnUse">
<stop offset="0.00540541" stop-color="#8C623E"/>
<stop offset="0.1505" stop-color="#B28452"/>
<stop offset="0.4748" stop-color="#EAB671"/>
<stop offset="0.673" stop-color="#B58653"/>
<stop offset="0.7991" stop-color="#EAB671"/>
<stop offset="1" stop-color="#825937"/>
</linearGradient>
<clipPath id="clip0_562_3521">
<rect width="108.945" height="136.181" fill="white" transform="translate(377.113 432.324) rotate(34.4178)"/>
</clipPath>
<clipPath id="clip1_562_3521">
<rect width="58.8514" height="69.1504" fill="white" transform="translate(436.733 1336.54) rotate(161.513)"/>
</clipPath>
<clipPath id="clip2_562_3521">
<rect width="96.4633" height="118.724" fill="white" transform="translate(659 917.336) rotate(-17.7051)"/>
</clipPath>
<clipPath id="clip3_562_3521">
<rect width="141.246" height="188.327" fill="white" transform="translate(736.804 581) rotate(13.1372)"/>
</clipPath>
<clipPath id="clip4_562_3521">
<rect width="109.66" height="105.274" fill="white" transform="translate(695.657 424.322) rotate(-118.104)"/>
</clipPath>
</defs>
</svg>
