<svg width="62" height="62" viewBox="0 0 62 62" fill="none" xmlns="http://www.w3.org/2000/svg">
<rect width="62" height="62" rx="12" fill="#77B9FF"/>
<path d="M31.0938 10C25.5014 10.0068 20.1401 12.2314 16.1857 16.1857C12.2314 20.1401 10.0068 25.5014 10 31.0937C11.1608 59.0771 51.0309 59.069 52.1875 31.0936C52.1806 25.5013 49.9561 20.14 46.0017 16.1857C42.0473 12.2314 36.686 10.0068 31.0938 10ZM31.0938 50.7812C25.8741 50.7755 20.8698 48.6995 17.1789 45.0086C13.488 41.3177 11.412 36.3134 11.4062 31.0937C12.4869 4.97546 49.7045 4.98306 50.7812 31.0939C50.7755 36.3136 48.6994 41.3178 45.0085 45.0086C41.3177 48.6995 36.3134 50.7755 31.0938 50.7812Z" fill="#0B1423"/>
<path d="M42.4984 17.7413C27.3224 5.13455 6.25489 22.7707 15.8992 39.9108C22.4909 51.5688 39.9137 51.4766 46.3586 39.7843C47.8665 37.1361 48.6595 34.1411 48.6595 31.0936C48.6595 28.0462 47.8665 25.0512 46.3586 22.403C46.3587 22.3958 46.3568 22.3886 46.353 22.3824C46.3493 22.3762 46.3439 22.3712 46.3375 22.3679C46.3276 22.321 46.3142 22.2884 46.2882 22.2765C45.2993 20.5552 44.0166 19.0203 42.4984 17.7413ZM37.2812 16.1522C38.5852 16.6946 39.8121 17.4062 40.9304 18.2686L36.4164 23.6616C35.9296 23.3166 35.4117 23.0177 34.8695 22.7686L37.2812 16.1522ZM30.3906 14.9428V21.9881C29.7953 22.0236 29.2058 22.125 28.6328 22.2905L26.2281 15.6741C27.5762 15.2433 28.9764 14.9973 30.3906 14.9428ZM20.1742 19.1756L24.7023 24.5686C24.2792 24.9846 23.8955 25.4388 23.5563 25.9256L17.4602 22.403C18.2222 21.2149 19.1344 20.1302 20.1742 19.1757L20.1742 19.1756ZM15.0625 33.203C14.8761 31.8029 14.8761 30.3843 15.0625 28.9842L22.0023 30.2006C21.9356 30.7941 21.9356 31.3931 22.0023 31.9866L15.0625 33.203ZM20.1742 43.0116C19.1344 42.057 18.2222 40.9723 17.4602 39.7842L23.5563 36.2616C23.8955 36.7484 24.2791 37.2027 24.7023 37.6186L20.1742 43.0116ZM30.3906 47.2444C28.9764 47.1899 27.5762 46.9439 26.2281 46.5131L28.6328 39.8967C29.2063 40.0612 29.7955 40.1649 30.3906 40.2061V47.2444ZM33.7375 38.3639C32.5682 38.7897 31.3134 38.9272 30.0796 38.7646C28.8458 38.602 27.6695 38.1442 26.6504 37.43C25.6313 36.7158 24.7995 35.7663 24.2257 34.6621C23.6518 33.5579 23.3528 32.3315 23.354 31.0871C23.3553 29.8426 23.6567 28.6168 24.2327 27.5137C24.8087 26.4106 25.6423 25.4627 26.6628 24.7505C27.6833 24.0383 28.8605 23.5828 30.0946 23.4226C31.3287 23.2625 32.5832 23.4023 33.7517 23.8304C40.4866 26.2794 40.4722 35.9268 33.7375 38.3639V38.3639ZM37.2812 46.035L34.8695 39.4186C35.4117 39.1696 35.9296 38.8706 36.4164 38.5256L40.9305 43.9186C39.8121 44.781 38.5852 45.4926 37.2812 46.035V46.035ZM45.4305 38.5608L39.3414 35.0381C39.5981 34.5043 39.8007 33.946 39.9461 33.3717L46.8789 34.5881C46.5796 35.9722 46.0922 37.3088 45.4305 38.5608V38.5608ZM46.8789 27.5991L39.9461 28.8155C39.8007 28.2412 39.5981 27.683 39.3414 27.1491L45.4304 23.6264C46.0922 24.8784 46.5795 26.215 46.8789 27.5991Z" fill="#0B1423"/>
<path d="M35.5656 32.5845C35.2576 32.2764 34.8618 32.0712 34.4326 31.9969C34.0033 31.9227 33.5616 31.983 33.168 32.1696L32.0922 31.0938L33.175 30.011C33.6256 30.2215 34.136 30.266 34.6162 30.1367C35.0964 30.0074 35.5154 29.7126 35.7994 29.3044C36.0833 28.8961 36.2139 28.4006 36.168 27.9055C36.1221 27.4103 35.9028 26.9473 35.5487 26.5981C35.1946 26.2489 34.7285 26.0361 34.2327 25.9972C33.7369 25.9584 33.2434 26.0959 32.8392 26.3856C32.4349 26.6752 32.1461 27.0984 32.0235 27.5804C31.901 28.0623 31.9527 28.5721 32.1695 29.0196L31.0938 30.0954L30.018 29.0196C30.2348 28.5721 30.2865 28.0623 30.164 27.5803C30.0414 27.0984 29.7526 26.6752 29.3483 26.3855C28.9441 26.0958 28.4505 25.9583 27.9548 25.9972C27.459 26.0361 26.9929 26.2489 26.6388 26.5981C26.2847 26.9472 26.0653 27.4103 26.0194 27.9054C25.9736 28.4006 26.1041 28.8961 26.3881 29.3044C26.672 29.7126 27.0911 30.0074 27.5713 30.1367C28.0515 30.266 28.5619 30.2215 29.0125 30.011L30.0953 31.0938L29.0195 32.1696C28.57 31.9555 28.0592 31.9071 27.5775 32.0331C27.0957 32.159 26.674 32.4511 26.3867 32.8578C26.0995 33.2645 25.9652 33.7597 26.0076 34.2558C26.0499 34.7519 26.2663 35.2171 26.6184 35.5692C26.9705 35.9213 27.4357 36.1376 27.9318 36.18C28.4279 36.2224 28.923 36.0881 29.3298 35.8008C29.7365 35.5136 30.0286 35.0918 30.1545 34.6101C30.2804 34.1283 30.2321 33.6176 30.018 33.1681L31.0938 32.0923L32.1695 33.1681C32.0037 33.5168 31.9368 33.9045 31.9763 34.2887C32.0157 34.6729 32.16 35.0389 32.3932 35.3467C32.6265 35.6545 32.9399 35.8923 33.2991 36.0341C33.6584 36.176 34.0497 36.2164 34.4303 36.151C34.811 36.0856 35.1663 35.9168 35.4576 35.6632C35.7489 35.4096 35.9649 35.0808 36.082 34.7128C36.1992 34.3448 36.213 33.9516 36.1219 33.5763C36.0308 33.201 35.8384 32.8579 35.5656 32.5845Z" fill="#0B1423"/>
</svg>
