<svg width="62" height="62" viewBox="0 0 62 62" fill="none" xmlns="http://www.w3.org/2000/svg">
<rect width="62" height="62" rx="12" fill="#77B9FF"/>
<path d="M22.6953 14.3125C22.542 14.3125 22.3949 14.3734 22.2865 14.4818C22.1781 14.5903 22.1172 14.7373 22.1172 14.8906V18.3594C22.1172 18.5127 22.1781 18.6598 22.2865 18.7682C22.3949 18.8766 22.542 18.9375 22.6953 18.9375C22.8486 18.9375 22.9957 18.8766 23.1041 18.7682C23.2125 18.6598 23.2734 18.5127 23.2734 18.3594V17.79L24.6629 18.8233C24.7859 18.9148 24.9403 18.9537 25.092 18.9314C25.2437 18.909 25.3803 18.8274 25.4718 18.7043C25.5633 18.5813 25.6021 18.4269 25.5798 18.2752C25.5575 18.1235 25.4758 17.9869 25.3528 17.8954L23.6588 16.6357L25.3564 15.3517C25.4787 15.2593 25.5592 15.122 25.5802 14.9702C25.6013 14.8184 25.5612 14.6644 25.4688 14.5421C25.3763 14.4199 25.2391 14.3393 25.0873 14.3182C24.9355 14.2971 24.7815 14.3371 24.6592 14.4295L23.2734 15.4775V14.8906C23.2734 14.7373 23.2125 14.5903 23.1041 14.4818C22.9957 14.3734 22.8486 14.3125 22.6953 14.3125ZM29.2715 15.4688C29.4248 15.4688 29.5719 15.4078 29.6803 15.2994C29.7887 15.191 29.8496 15.044 29.8496 14.8906C29.8496 14.7373 29.7887 14.5902 29.6803 14.4818C29.5719 14.3734 29.4248 14.3125 29.2715 14.3125H27.8984C27.5919 14.3128 27.298 14.4348 27.0812 14.6515C26.8644 14.8683 26.7425 15.1622 26.7422 15.4688V17.7813C26.7425 18.0878 26.8644 18.3817 27.0812 18.5985C27.298 18.8153 27.5919 18.9372 27.8984 18.9375H29.2715C29.4248 18.9375 29.5719 18.8766 29.6803 18.7682C29.7887 18.6598 29.8496 18.5127 29.8496 18.3594C29.8496 18.206 29.7887 18.059 29.6803 17.9506C29.5719 17.8422 29.4248 17.7813 29.2715 17.7813H27.8984V17.2031H29.2715C29.4248 17.2031 29.5719 17.1422 29.6803 17.0338C29.7887 16.9254 29.8496 16.7783 29.8496 16.625C29.8496 16.4717 29.7887 16.3246 29.6803 16.2162C29.5719 16.1078 29.4248 16.0469 29.2715 16.0469H27.8984V15.4688H29.2715ZM33.1016 14.8906V16.45L31.8482 14.5699C31.7794 14.4667 31.6792 14.3884 31.5624 14.3465C31.4456 14.3046 31.3184 14.3014 31.1997 14.3374C31.0809 14.3733 30.9769 14.4465 30.903 14.5462C30.829 14.6458 30.7891 14.7666 30.7891 14.8906V18.3594C30.7891 18.5127 30.85 18.6598 30.9584 18.7682C31.0668 18.8766 31.2139 18.9375 31.3672 18.9375C31.5205 18.9375 31.6676 18.8766 31.776 18.7682C31.8844 18.6598 31.9453 18.5127 31.9453 18.3594V16.8L33.1987 18.6801C33.2675 18.7833 33.3677 18.8616 33.4845 18.9035C33.6013 18.9454 33.7285 18.9486 33.8472 18.9126C33.966 18.8767 34.07 18.8035 34.1439 18.7038C34.2179 18.6042 34.2578 18.4834 34.2578 18.3594V14.8906C34.2578 14.7373 34.1969 14.5902 34.0885 14.4818C33.9801 14.3734 33.833 14.3125 33.6797 14.3125C33.5264 14.3125 33.3793 14.3734 33.2709 14.4818C33.1625 14.5902 33.1016 14.7373 33.1016 14.8906ZM38.8828 17.7813V15.4688C38.8825 15.1622 38.7606 14.8683 38.5438 14.6515C38.327 14.4348 38.0331 14.3128 37.7266 14.3125H36.5703C36.2638 14.3128 35.9699 14.4348 35.7531 14.6515C35.5363 14.8683 35.4144 15.1622 35.4141 15.4688V17.7813C35.4144 18.0878 35.5363 18.3817 35.7531 18.5985C35.9699 18.8153 36.2638 18.9372 36.5703 18.9375H37.7266C38.0331 18.9372 38.327 18.8153 38.5438 18.5985C38.7606 18.3817 38.8825 18.0878 38.8828 17.7813ZM36.5703 15.4688H37.7266V17.7813H36.5703V15.4688ZM25.5397 36.2668C25.6729 36.4143 25.7983 36.5687 25.9155 36.7293C25.797 36.5703 25.6698 36.4171 25.5397 36.2668ZM27.4822 40.3195H27.4793C27.4446 40.12 27.4041 39.9263 27.355 39.7327C27.407 39.9263 27.4475 40.12 27.4822 40.3195ZM27.5602 42.6638C27.5631 42.6262 27.5689 42.5915 27.5718 42.5539C27.5689 42.5886 27.566 42.6262 27.5631 42.6638H27.5602ZM19.2266 34.5469C17.7973 34.5469 16.4001 34.9707 15.2117 35.7648C14.0233 36.5588 13.0971 37.6875 12.5501 39.008C12.0031 40.3284 11.86 41.7815 12.1389 43.1833C12.4177 44.5851 13.106 45.8727 14.1166 46.8834C15.1273 47.8941 16.4149 48.5823 17.8167 48.8611C19.2185 49.14 20.6716 48.9969 21.9921 48.4499C23.3125 47.903 24.4412 46.9767 25.2352 45.7883C26.0293 44.5999 26.4531 43.2027 26.4531 41.7734C26.4515 39.8574 25.6895 38.0202 24.3347 36.6653C22.9798 35.3105 21.1427 34.5486 19.2266 34.5469ZM19.2266 47.8438C18.026 47.8438 16.8523 47.4877 15.8541 46.8207C14.8558 46.1537 14.0778 45.2057 13.6183 44.0965C13.1589 42.9872 13.0387 41.7667 13.2729 40.5892C13.5071 39.4117 14.0853 38.33 14.9342 37.4811C15.7832 36.6321 16.8648 36.054 18.0423 35.8198C19.2198 35.5855 20.4404 35.7058 21.5496 36.1652C22.6588 36.6247 23.6068 37.4027 24.2738 38.401C24.9409 39.3992 25.2969 40.5728 25.2969 41.7734C25.2951 43.3828 24.655 44.9258 23.517 46.0639C22.379 47.2019 20.836 47.842 19.2266 47.8438ZM41.7734 19.2266C40.3442 19.2266 38.947 19.6504 37.7586 20.4445C36.5702 21.2385 35.6439 22.3672 35.097 23.6876C34.55 25.0081 34.4069 26.4611 34.6857 27.863C34.9646 29.2648 35.6528 30.5524 36.6635 31.5631C37.6741 32.5737 38.9618 33.262 40.3636 33.5408C41.7654 33.8197 43.2184 33.6766 44.5389 33.1296C45.8594 32.5826 46.988 31.6564 47.7821 30.468C48.5762 29.2796 49 27.8824 49 26.4531C48.9983 24.537 48.2364 22.6999 46.8815 21.345C45.5267 19.9901 43.6895 19.2282 41.7734 19.2266ZM41.7734 32.5234C40.5728 32.5234 39.3992 32.1674 38.401 31.5004C37.4027 30.8334 36.6247 29.8853 36.1652 28.7761C35.7058 27.6669 35.5855 26.4464 35.8198 25.2689C36.054 24.0913 36.6321 23.0097 37.4811 22.1608C38.33 21.3118 39.4117 20.7337 40.5892 20.4995C41.7667 20.2652 42.9872 20.3854 44.0965 20.8449C45.2057 21.3043 46.1537 22.0824 46.8207 23.0806C47.4877 24.0789 47.8438 25.2525 47.8438 26.4531C47.842 28.0625 47.2019 29.6055 46.0639 30.7435C44.9258 31.8816 43.3828 32.5217 41.7734 32.5234Z" fill="#0B1423"/>
<path d="M41.4844 21.25C40.6268 21.25 39.7885 21.5043 39.0755 21.9807C38.3624 22.4572 37.8067 23.1344 37.4785 23.9266C37.1503 24.7189 37.0645 25.5907 37.2318 26.4318C37.3991 27.2729 37.812 28.0455 38.4184 28.6519C39.0248 29.2583 39.7974 29.6713 40.6385 29.8386C41.4796 30.0059 42.3514 29.92 43.1437 29.5918C43.936 29.2636 44.6131 28.7079 45.0896 27.9949C45.566 27.2818 45.8203 26.4435 45.8203 25.5859C45.8189 24.4364 45.3616 23.3344 44.5488 22.5215C43.736 21.7087 42.6339 21.2514 41.4844 21.25ZM42.3222 24.8979L41.7915 26.8909C41.7723 26.9647 41.7388 27.0339 41.6927 27.0947C41.6467 27.1554 41.5891 27.2064 41.5233 27.2448C41.4575 27.2832 41.3847 27.3082 41.3092 27.3184C41.2337 27.3285 41.1569 27.3237 41.0832 27.3041C41.0096 27.2845 40.9406 27.2505 40.8801 27.2041C40.8196 27.1577 40.7689 27.0999 40.7309 27.0338C40.6929 26.9678 40.6683 26.8949 40.6586 26.8193C40.6489 26.7437 40.6542 26.6669 40.6742 26.5934L41.0965 25.0078H40.6172C40.4639 25.0078 40.3168 24.9469 40.2084 24.8385C40.1 24.7301 40.0391 24.583 40.0391 24.4297C40.0391 24.2764 40.1 24.1293 40.2084 24.0209C40.3168 23.9125 40.4639 23.8516 40.6172 23.8516H41.5679C41.6861 23.8519 41.8026 23.8795 41.9083 23.9324C42.014 23.9853 42.106 24.0619 42.1771 24.1563C42.2562 24.2607 42.3103 24.3818 42.3355 24.5103C42.3606 24.6388 42.3561 24.7714 42.3222 24.8979ZM19.5156 36.5703C18.6581 36.5703 17.8198 36.8246 17.1067 37.3011C16.3937 37.7775 15.8379 38.4547 15.5097 39.247C15.1816 40.0392 15.0957 40.9111 15.263 41.7522C15.4303 42.5932 15.8433 43.3658 16.4497 43.9722C17.056 44.5786 17.8286 44.9916 18.6697 45.1589C19.5108 45.3262 20.3826 45.2403 21.1749 44.9121C21.9672 44.584 22.6444 44.0282 23.1208 43.3152C23.5973 42.6021 23.8516 41.7638 23.8516 40.9063C23.8502 39.7567 23.3929 38.6547 22.5801 37.8418C21.7672 37.029 20.6652 36.5717 19.5156 36.5703ZM20.2866 42.6406H19.6404C19.5075 42.6406 19.3764 42.6101 19.2572 42.5514C19.1379 42.4927 19.0338 42.4073 18.9528 42.302C18.8718 42.1966 18.8161 42.074 18.79 41.9437C18.7639 41.8134 18.7681 41.6789 18.8023 41.5504L19.1087 40.3998L19.058 40.3281H18.6484C18.4951 40.3281 18.3481 40.2672 18.2396 40.1588C18.1312 40.0504 18.0703 39.9033 18.0703 39.75C18.0703 39.5967 18.1312 39.4496 18.2396 39.3412C18.3481 39.2328 18.4951 39.1719 18.6484 39.1719H19.5992C19.7174 39.1722 19.8339 39.1999 19.9395 39.2527C20.0452 39.3056 20.1372 39.3822 20.2084 39.4766C20.2874 39.581 20.3416 39.7021 20.3667 39.8306C20.3919 39.9591 20.3873 40.0917 20.3535 40.2182L20.0164 41.4844H20.2866C20.4399 41.4844 20.5869 41.5453 20.6954 41.6537C20.8038 41.7621 20.8647 41.9092 20.8647 42.0625C20.8647 42.2158 20.8038 42.3629 20.6954 42.4713C20.5869 42.5797 20.4399 42.6406 20.2866 42.6406Z" fill="#0B1423"/>
<path d="M44.9531 18.6976V13.7113C44.9522 13.2577 44.7716 12.823 44.4509 12.5022C44.1302 12.1815 43.6954 12.0009 43.2419 12H17.7581C17.3046 12.0009 16.8698 12.1815 16.5491 12.5022C16.2284 12.823 16.0478 13.2577 16.0469 13.7113V34.0179C17.0558 33.6037 18.1359 33.3906 19.2266 33.3906C19.2613 33.3906 19.2988 33.3906 19.3335 33.3935C18.8854 33.0333 18.5694 32.5346 18.4348 31.9756C18.3003 31.4166 18.3548 30.8288 18.5899 30.3041C18.825 29.7794 19.2274 29.3474 19.7341 29.0758C20.2409 28.8041 20.8234 28.7081 21.3905 28.8027C21.9576 28.8973 22.4774 29.1773 22.8684 29.5988C23.2595 30.0202 23.4999 30.5595 23.5519 31.1321C23.6039 31.7047 23.4646 32.2784 23.1558 32.7634C22.8471 33.2484 22.3863 33.6174 21.8455 33.8127C23.1784 34.2514 24.3793 35.0189 25.3373 36.0442C25.6151 35.7161 25.97 35.462 26.37 35.3046C26.7701 35.1473 27.203 35.0915 27.6299 35.1425C28.0567 35.1934 28.4643 35.3494 28.8162 35.5965C29.168 35.8436 29.453 36.1741 29.6458 36.5583C29.8386 36.9426 29.9331 37.3687 29.9208 37.7984C29.9086 38.2282 29.79 38.6482 29.5756 39.0208C29.3612 39.3935 29.0578 39.7072 28.6924 39.9338C28.3271 40.1604 27.9113 40.2929 27.4822 40.3195C27.5522 40.7099 27.5928 41.1051 27.6036 41.5017C28.265 41.5739 28.8736 41.8969 29.3041 42.4042C29.7346 42.9115 29.9543 43.5644 29.918 44.2288C29.8817 44.8931 29.5922 45.5183 29.109 45.9756C28.6258 46.433 27.9856 46.6878 27.3203 46.6875C26.9306 46.6871 26.5461 46.5981 26.1959 46.4273C25.4906 47.4786 24.558 48.3578 23.4671 49H43.2419C43.6954 48.9991 44.1302 48.8185 44.4509 48.4978C44.7716 48.177 44.9522 47.7423 44.9531 47.2887V34.2087C43.4583 34.8226 41.8176 34.9905 40.2295 34.6919C38.6413 34.3934 37.1736 33.6412 36.0037 32.5263C35.7969 32.9407 35.4832 33.2922 35.0949 33.5447C34.7067 33.7971 34.2581 33.9413 33.7954 33.9623C33.3328 33.9832 32.873 33.8802 32.4635 33.6639C32.054 33.4476 31.7098 33.1259 31.4663 32.7319C31.2229 32.338 31.0891 31.8862 31.0788 31.4232C31.0685 30.9602 31.182 30.5029 31.4077 30.0985C31.6333 29.6941 31.9629 29.3573 32.3624 29.123C32.7618 28.8887 33.2166 28.7653 33.6797 28.7656C33.6912 28.7656 33.7057 28.7685 33.7173 28.7685C33.6059 28.3849 33.5228 27.9936 33.4687 27.5978C33.1069 27.5691 32.7551 27.465 32.436 27.2921C32.1168 27.1193 31.8374 26.8815 31.6157 26.5942C31.394 26.3068 31.235 25.9762 31.1488 25.6237C31.0626 25.2711 31.0511 24.9044 31.1152 24.5472C31.1792 24.1899 31.3174 23.8501 31.5208 23.5495C31.7241 23.2488 31.9881 22.9941 32.2959 22.8017C32.6036 22.6093 32.9482 22.4835 33.3075 22.4323C33.6668 22.3811 34.0329 22.4057 34.3821 22.5045C34.8736 21.5876 35.5313 20.7701 36.3217 20.0938H17.2031V13.7113C17.2032 13.5641 17.2616 13.4229 17.3657 13.3188C17.4698 13.2148 17.6109 13.1563 17.7581 13.1562H43.2419C43.3891 13.1563 43.5302 13.2148 43.6343 13.3188C43.7384 13.4229 43.7968 13.5641 43.7969 13.7113V18.3189C44.191 18.4167 44.5775 18.5433 44.9531 18.6976ZM40.0391 35.125C40.5536 35.125 41.0566 35.2776 41.4844 35.5634C41.9122 35.8493 42.2457 36.2556 42.4426 36.731C42.6395 37.2064 42.691 37.7294 42.5906 38.2341C42.4903 38.7388 42.2425 39.2023 41.8786 39.5661C41.5148 39.93 41.0513 40.1778 40.5466 40.2781C40.0419 40.3785 39.5189 40.327 39.0435 40.1301C38.5681 39.9332 38.1618 39.5997 37.8759 39.1719C37.5901 38.7441 37.4375 38.2411 37.4375 37.7266C37.4385 37.0369 37.713 36.3758 38.2006 35.8881C38.6883 35.4005 39.3494 35.126 40.0391 35.125ZM40.0391 41.4844C40.5536 41.4844 41.0566 41.637 41.4844 41.9228C41.9122 42.2087 42.2457 42.615 42.4426 43.0904C42.6395 43.5657 42.691 44.0888 42.5906 44.5935C42.4903 45.0981 42.2425 45.5617 41.8786 45.9255C41.5148 46.2894 41.0513 46.5371 40.5466 46.6375C40.0419 46.7379 39.5189 46.6864 39.0435 46.4895C38.5681 46.2926 38.1618 45.9591 37.8759 45.5313C37.5901 45.1035 37.4375 44.6005 37.4375 44.0859C37.4385 43.3963 37.713 42.7352 38.2006 42.2475C38.6883 41.7598 39.3494 41.4854 40.0391 41.4844ZM33.6797 35.125C34.1942 35.125 34.6972 35.2776 35.125 35.5634C35.5529 35.8493 35.8863 36.2556 36.0832 36.731C36.2801 37.2064 36.3316 37.7294 36.2313 38.2341C36.1309 38.7388 35.8831 39.2023 35.5193 39.5661C35.1554 39.93 34.6919 40.1778 34.1872 40.2781C33.6826 40.3785 33.1595 40.327 32.6841 40.1301C32.2087 39.9332 31.8024 39.5997 31.5166 39.1719C31.2307 38.7441 31.0781 38.2411 31.0781 37.7266C31.0792 37.0369 31.3536 36.3758 31.8412 35.8881C32.3289 35.4005 32.99 35.126 33.6797 35.125ZM33.6797 41.4844C34.1942 41.4844 34.6972 41.637 35.125 41.9228C35.5529 42.2087 35.8863 42.615 36.0832 43.0904C36.2801 43.5657 36.3316 44.0888 36.2313 44.5935C36.1309 45.0981 35.8831 45.5617 35.5193 45.9255C35.1554 46.2894 34.6919 46.5371 34.1872 46.6375C33.6826 46.7379 33.1595 46.6864 32.6841 46.4895C32.2087 46.2926 31.8024 45.9591 31.5166 45.5313C31.2307 45.1035 31.0781 44.6005 31.0781 44.0859C31.0792 43.3963 31.3536 42.7352 31.8412 42.2475C32.3289 41.7598 32.99 41.4854 33.6797 41.4844ZM27.3203 22.4062C27.8349 22.4062 28.3378 22.5588 28.7657 22.8447C29.1935 23.1306 29.5269 23.5369 29.7238 24.0122C29.9207 24.4876 29.9723 25.0107 29.8719 25.5154C29.7715 26.02 29.5237 26.4836 29.1599 26.8474C28.7961 27.2112 28.3325 27.459 27.8279 27.5594C27.3232 27.6598 26.8001 27.6082 26.3247 27.4113C25.8494 27.2144 25.4431 26.881 25.1572 26.4532C24.8713 26.0253 24.7188 25.5224 24.7188 25.0078C24.7198 24.3182 24.9942 23.657 25.4819 23.1694C25.9695 22.6817 26.6307 22.4073 27.3203 22.4062ZM27.3203 28.7656C27.8349 28.7656 28.3378 28.9182 28.7657 29.2041C29.1935 29.4899 29.5269 29.8962 29.7238 30.3716C29.9207 30.847 29.9723 31.3701 29.8719 31.8747C29.7715 32.3794 29.5237 32.8429 29.1599 33.2068C28.7961 33.5706 28.3325 33.8184 27.8279 33.9188C27.3232 34.0191 26.8001 33.9676 26.3247 33.7707C25.8494 33.5738 25.4431 33.2404 25.1572 32.8125C24.8713 32.3847 24.7188 31.8817 24.7188 31.3672C24.7198 30.6775 24.9942 30.0164 25.4819 29.5287C25.9695 29.0411 26.6307 28.7667 27.3203 28.7656ZM20.9609 22.4062C21.4755 22.4062 21.9785 22.5588 22.4063 22.8447C22.8341 23.1306 23.1676 23.5369 23.3645 24.0122C23.5614 24.4876 23.6129 25.0107 23.5125 25.5154C23.4121 26.02 23.1644 26.4836 22.8005 26.8474C22.4367 27.2112 21.9731 27.459 21.4685 27.5594C20.9638 27.6598 20.4407 27.6082 19.9654 27.4113C19.49 27.2144 19.0837 26.881 18.7978 26.4532C18.512 26.0253 18.3594 25.5224 18.3594 25.0078C18.3604 24.3182 18.6348 23.657 19.1225 23.1694C19.6102 22.6817 20.2713 22.4073 20.9609 22.4062Z" fill="#0B1423"/>
</svg>
