<svg width="62" height="62" viewBox="0 0 62 62" fill="none" xmlns="http://www.w3.org/2000/svg">
<rect width="62" height="62" rx="12" fill="#77B9FF"/>
<path d="M44.536 43.3027C47.8973 39.8891 49.7812 35.2906 49.7812 30.5C49.7812 25.7094 47.8973 21.1109 44.536 17.6973C44.4685 17.61 44.3902 17.5316 44.3028 17.4641C40.8893 14.1028 36.2907 12.2187 31.5 12.2188C26.7093 12.2188 22.1107 14.1028 18.6971 17.4641C18.6098 17.5316 18.5315 17.61 18.4639 17.6973C15.1027 21.1109 13.2188 25.7094 13.2188 30.5C13.2187 35.2906 15.1027 39.8891 18.4639 43.3027C18.5315 43.39 18.6099 43.4684 18.6972 43.5359C22.1108 46.8972 26.7093 48.7812 31.5 48.7812C36.2907 48.7812 40.8892 46.8972 44.3028 43.5359C44.3901 43.4684 44.4685 43.39 44.536 43.3027ZM16.0959 31.9063H20.341C20.5921 33.9068 21.3789 35.8025 22.6184 37.3928L19.618 40.3931C17.6077 37.9885 16.3789 35.0277 16.0959 31.9063ZM19.618 20.6069L22.6184 23.6072C21.3789 25.1975 20.5921 27.0932 20.341 29.0938H16.0959C16.3789 25.9723 17.6077 23.0115 19.618 20.6069ZM46.9041 29.0938H42.659C42.4079 27.0932 41.6211 25.1975 40.3816 23.6072L43.382 20.6069C45.3923 23.0115 46.6211 25.9723 46.9041 29.0938ZM38.3927 21.6184C36.8024 20.3789 34.9068 19.5921 32.9062 19.341V15.0958C36.0277 15.3789 38.9885 16.6077 41.3931 18.618L38.3927 21.6184ZM30.0937 19.341C28.0932 19.5921 26.1976 20.3789 24.6073 21.6184L21.6069 18.618C24.0115 16.6077 26.9723 15.3789 30.0937 15.0958V19.341ZM24.6073 39.3816C26.1976 40.6211 28.0932 41.4079 30.0937 41.659V45.9042C26.9723 45.6211 24.0115 44.3923 21.6069 42.382L24.6073 39.3816ZM32.9062 41.659C34.9068 41.4079 36.8024 40.6211 38.3927 39.3816L41.3931 42.382C38.9885 44.3923 36.0277 45.6211 32.9062 45.9042V41.659ZM40.3816 37.3928C41.6211 35.8025 42.4079 33.9068 42.659 31.9063H46.9041C46.6211 35.0277 45.3923 37.9885 43.382 40.3931L40.3816 37.3928Z" fill="#0B1423"/>
</svg>
