<svg width="62" height="62" viewBox="0 0 62 62" fill="none" xmlns="http://www.w3.org/2000/svg">
<rect width="62" height="62" rx="12" fill="#77B9FF"/>
<path d="M31 49C40.9411 49 49 40.9411 49 31C49 21.0589 40.9411 13 31 13C21.0589 13 13 21.0589 13 31C13 40.9411 21.0589 49 31 49Z" fill="#0B1423"/>
<path d="M30.9985 19.2788C28.2113 19.2793 25.9316 21.4746 25.932 24.1879C25.9331 24.8641 26.206 25.492 26.4843 26.1066C26.4228 26.1045 26.3625 26.0927 26.3011 26.0924H26.2989C23.5122 26.0929 21.2329 28.2874 21.2324 31C21.232 33.7132 23.5116 35.9086 26.2989 35.9091C26.9956 35.9092 27.6616 35.7733 28.2676 35.5257C28.8421 35.2909 29.3498 34.9414 29.7929 34.5298C29.6213 35.9396 29.4628 37.3915 29.2263 38.6362C28.9182 40.2579 28.4677 41.5681 27.9257 42.0916C27.6891 42.3206 27.8512 42.7211 28.1804 42.7212H33.8206C34.1491 42.7197 34.3099 42.3201 34.0739 42.0916C33.5319 41.5681 33.0813 40.2579 32.7733 38.6362C32.5368 37.3915 32.3782 35.9396 32.2067 34.5298C32.6498 34.9414 33.1575 35.2909 33.7319 35.5257C34.3379 35.7733 35.004 35.9092 35.7007 35.9091C38.4885 35.9094 40.769 33.7138 40.7686 31C40.7681 28.2869 38.4879 26.0921 35.7007 26.0924C35.6383 26.0924 35.5782 26.1042 35.5161 26.1066C35.7941 25.4917 36.0653 24.8642 36.067 24.1879C36.0673 21.4746 33.7877 19.2793 31.0005 19.2788H30.9994H30.9985Z" fill="#77B9FF"/>
</svg>
