<svg width="62" height="62" viewBox="0 0 62 62" fill="none" xmlns="http://www.w3.org/2000/svg">
<rect width="62" height="62" rx="12" fill="#77B9FF"/>
<path d="M42.5216 18H24.4784C23.8206 18.0013 23.1902 18.2603 22.7256 18.72C22.261 19.1797 22 19.8027 22 20.4522V46.5529C22 47.2019 22.2611 47.8243 22.7259 48.2833C23.1907 48.7422 23.8211 49 24.4784 49H42.5216C43.1789 49 43.8093 48.7422 44.2741 48.2833C44.7389 47.8243 45 47.2019 45 46.5529V20.4522C45 19.8027 44.739 19.1797 44.2744 18.72C43.8097 18.2603 43.1794 18.0013 42.5216 18ZM27.3579 25.255C27.2689 25.3209 27.1607 25.3565 27.0494 25.3565C26.9382 25.3565 26.8299 25.3209 26.7409 25.255C26.5404 25.1078 24.8024 23.7776 24.8024 22.4068C24.7978 22.1436 24.8624 21.8838 24.9899 21.6526C25.1173 21.4214 25.3033 21.2268 25.5296 21.0877C25.7559 20.9486 26.0149 20.8698 26.2812 20.859C26.5476 20.8481 26.8123 20.9056 27.0494 21.0259C27.2866 20.9056 27.5512 20.8481 27.8176 20.859C28.0839 20.8698 28.3429 20.9486 28.5692 21.0877C28.7956 21.2268 28.9815 21.4214 29.109 21.6526C29.2364 21.8838 29.301 22.1436 29.2964 22.4068C29.2964 23.7776 27.5636 25.1078 27.3579 25.255ZM33.8008 39.6178C33.7118 39.6837 33.6035 39.7193 33.4923 39.7193C33.381 39.7193 33.2728 39.6837 33.1838 39.6178C32.9781 39.4654 28.1087 35.8151 28.1087 32.3475C28.1018 31.4453 28.4572 30.5771 29.097 29.9329C29.7369 29.2888 30.6092 28.9211 31.5229 28.9104C32.2319 28.9093 32.9224 29.1336 33.4923 29.5501C34.0628 29.1349 34.7529 28.9107 35.4617 28.9104C36.3754 28.9211 37.2477 29.2888 37.8875 29.9329C38.5274 30.5771 38.8828 31.4453 38.8759 32.3475C38.8759 35.7999 34.0116 39.4654 33.8008 39.6178ZM39.9403 45.8523C39.8513 45.9182 39.743 45.9538 39.6318 45.9538C39.5205 45.9538 39.4123 45.9182 39.3233 45.8523C39.1227 45.705 37.3848 44.3749 37.3848 43.0041C37.3802 42.7409 37.4448 42.4811 37.5722 42.2499C37.6997 42.0187 37.8856 41.8241 38.112 41.685C38.3383 41.5459 38.5973 41.4671 38.8636 41.4562C39.13 41.4454 39.3946 41.5029 39.6318 41.6232C39.8688 41.5041 40.1329 41.4476 40.3985 41.459C40.6641 41.4704 40.9222 41.5495 41.1478 41.6884C41.3733 41.8274 41.5587 42.0215 41.6859 42.252C41.8131 42.4826 41.8778 42.7416 41.8737 43.0041C41.8737 44.3749 40.1357 45.705 39.9403 45.8523Z" fill="#0B1423"/>
<path d="M24.2722 16.5691H38L37.5164 14.7022C37.3623 14.119 36.9808 13.62 36.4555 13.3145C35.9302 13.0089 35.3039 12.9217 34.7136 13.0719L17.7307 17.3869C17.438 17.4607 17.1629 17.5908 16.921 17.7698C16.6792 17.9489 16.4755 18.1733 16.3214 18.4303C16.1673 18.6872 16.066 18.9717 16.0232 19.2675C15.9804 19.5632 15.9969 19.8644 16.0719 20.1538L20.7154 38V20.0818C20.7154 19.6201 20.8075 19.1629 20.9863 18.7364C21.1651 18.3099 21.4272 17.9224 21.7575 17.5961C22.0878 17.2699 22.48 17.0113 22.9115 16.835C23.343 16.6588 23.8054 16.5684 24.2722 16.5691Z" fill="#0B1423"/>
</svg>
