<svg width="62" height="62" viewBox="0 0 62 62" fill="none" xmlns="http://www.w3.org/2000/svg">
<rect width="62" height="62" rx="12" fill="#77B9FF"/>
<path d="M42.93 19.8802C42.48 18.8002 41.4 17.9902 40.14 17.9902H31.5V15.9202C31.5 15.8302 31.5 15.7402 31.41 15.6502C31.32 15.3802 31.05 15.2002 30.69 15.2002H24.48C24.21 15.2002 23.94 15.3802 23.76 15.6502C23.76 15.7402 23.67 15.8302 23.67 15.9202V17.9902H15.12C13.86 17.9902 12.78 18.7102 12.33 19.8802C12.24 20.1502 12.15 20.4202 12.06 20.6902H43.11C43.11 20.4202 43.02 20.1502 42.93 19.8802ZM12.15 39.0502H12.06V47.2402C12.06 48.9502 13.41 50.3002 15.12 50.3002H18.27V45.6202C18.27 45.1702 18.36 44.7202 18.54 44.2702C19.08 43.1002 20.25 42.2902 21.51 42.2902H33.75C35.1 42.2902 36.27 43.1002 36.72 44.2702C36.9 44.7202 36.99 45.0802 36.99 45.6202V50.3002H40.05C41.76 50.3002 43.11 48.9502 43.11 47.2402V39.0502H43.02H12.15Z" fill="#0B1423"/>
<path d="M33.75 44.1802H21.51C20.88 44.1802 20.34 44.5402 20.16 45.0802C20.07 45.2602 20.07 45.4402 20.07 45.6202V50.3002H35.28V45.6202C35.28 45.4402 35.28 45.2602 35.19 45.0802C34.83 44.5402 34.38 44.1802 33.75 44.1802ZM53.1 14.8402C53.1 12.5902 51.21 10.7002 48.96 10.7002C46.62 10.7002 44.82 12.5902 44.82 14.8402C44.82 16.5502 45.81 17.9902 47.25 18.6202V28.4302H45.36V24.7402C45.36 23.4802 44.37 22.4902 43.11 22.4902H12.15C10.89 22.4902 9.89999 23.4802 9.89999 24.7402V35.0002C9.89999 36.2602 10.89 37.2502 12.15 37.2502H43.02C44.28 37.2502 45.27 36.2602 45.27 35.0002V31.9402H48.06C48.06 31.9402 48.06 31.9402 48.15 31.9402H49.68C49.68 31.9402 49.68 31.9402 49.77 31.9402H49.86C50.4 31.9402 50.85 31.4902 50.85 30.9502V29.4202C50.85 29.2402 50.76 29.0602 50.67 28.9702V18.6202C52.11 17.9902 53.1 16.5502 53.1 14.8402ZM20.43 33.5602C20.43 33.9202 20.16 34.2802 19.71 34.2802H13.77C13.41 34.2802 13.05 34.0102 13.05 33.5602V26.0002C13.05 25.6402 13.32 25.3702 13.77 25.3702H19.8C20.16 25.3702 20.52 25.6402 20.52 26.0002V33.5602H20.43ZM31.23 33.5602C31.23 33.9202 30.96 34.2802 30.51 34.2802H24.48C24.12 34.2802 23.76 34.0102 23.76 33.5602V26.0002C23.76 25.6402 24.03 25.3702 24.48 25.3702H30.6C30.96 25.3702 31.32 25.6402 31.32 26.0002V33.5602H31.23ZM42.12 33.5602C42.12 33.9202 41.85 34.2802 41.49 34.2802H35.46C35.1 34.2802 34.83 34.0102 34.83 33.5602V26.0002C34.83 25.6402 35.1 25.3702 35.46 25.3702H41.4C41.76 25.3702 42.03 25.6402 42.03 26.0002V33.5602H42.12Z" fill="#0B1423"/>
</svg>
