<svg width="62" height="62" viewBox="0 0 62 62" fill="none" xmlns="http://www.w3.org/2000/svg">
<rect width="62" height="62" rx="12" fill="#77B9FF"/>
<path d="M34.3793 41.3618H14.2069C13.3838 41.3618 12.5944 41.0349 12.0124 40.4529C11.4304 39.8708 11.1035 39.0815 11.1035 38.2584V22.7411C11.1035 21.9181 11.4304 21.1287 12.0124 20.5467C12.5944 19.9647 13.3838 19.6377 14.2069 19.6377H34.3793C35.2024 19.6377 35.9918 19.9647 36.5738 20.5467C37.1558 21.1287 37.4828 21.9181 37.4828 22.7411V38.2584C37.4828 39.0815 37.1558 39.8708 36.5738 40.4529C35.9918 41.0349 35.2024 41.3618 34.3793 41.3618ZM40.5862 25.8446V35.1549L47.4836 39.7542C47.7174 39.9102 47.9892 39.9998 48.2699 40.0134C48.5507 40.0269 48.8298 39.964 49.0776 39.8313C49.3253 39.6986 49.5324 39.501 49.6766 39.2598C49.8209 39.0186 49.8969 38.7427 49.8966 38.4617V22.5379C49.8966 22.2569 49.8204 21.9813 49.676 21.7403C49.5317 21.4993 49.3246 21.302 49.0769 21.1694C48.8292 21.0369 48.5501 20.9741 48.2696 20.9877C47.989 21.0014 47.7173 21.0909 47.4836 21.2468L40.5862 25.8446Z" fill="#0B1423"/>
</svg>
