<svg width="62" height="62" viewBox="0 0 62 62" fill="none" xmlns="http://www.w3.org/2000/svg">
<rect width="62" height="62" rx="12" fill="#77B9FF"/>
<path d="M42.6667 16H19.3333C17.5 16 16 17.5 16 19.3333V42.6667C16 44.5 17.5 46 19.3333 46H42.6667C44.5 46 46 44.5 46 42.6667V19.3333C46 17.5 44.5 16 42.6667 16ZM23.5 41C22.1167 41 21 39.8833 21 38.5C21 37.1167 22.1167 36 23.5 36C24.8833 36 26 37.1167 26 38.5C26 39.8833 24.8833 41 23.5 41ZM23.5 26C22.1167 26 21 24.8833 21 23.5C21 22.1167 22.1167 21 23.5 21C24.8833 21 26 22.1167 26 23.5C26 24.8833 24.8833 26 23.5 26ZM31 33.5C29.6167 33.5 28.5 32.3833 28.5 31C28.5 29.6167 29.6167 28.5 31 28.5C32.3833 28.5 33.5 29.6167 33.5 31C33.5 32.3833 32.3833 33.5 31 33.5ZM38.5 41C37.1167 41 36 39.8833 36 38.5C36 37.1167 37.1167 36 38.5 36C39.8833 36 41 37.1167 41 38.5C41 39.8833 39.8833 41 38.5 41ZM38.5 26C37.1167 26 36 24.8833 36 23.5C36 22.1167 37.1167 21 38.5 21C39.8833 21 41 22.1167 41 23.5C41 24.8833 39.8833 26 38.5 26Z" fill="#0B1423"/>
</svg>
