<svg width="18" height="16" viewBox="0 0 18 16" fill="none" xmlns="http://www.w3.org/2000/svg">
<path d="M7.86306 14.3005L4.85979 15.8748C4.07552 16.2854 3.15951 15.6224 3.30772 14.75L3.88203 11.4145C4.00347 10.7085 3.76881 9.98594 3.2542 9.48716L0.82318 7.12462C0.189179 6.50884 0.539114 5.43328 1.41601 5.30601L4.77539 4.81955C5.48761 4.71692 6.10309 4.27151 6.42009 3.62904L7.92275 0.59325C8.31592 -0.199052 9.44806 -0.199052 9.83916 0.59325L11.3418 3.62904C11.6609 4.27151 12.2743 4.71692 12.9865 4.81955L16.3459 5.30601C17.2228 5.43328 17.5727 6.50678 16.9387 7.12462L14.5077 9.48716C13.9931 9.98799 13.7584 10.7085 13.8799 11.4145L14.4542 14.75C14.6045 15.6203 13.6864 16.2854 12.9021 15.8748L9.89886 14.3005C9.26074 13.9659 8.50117 13.9659 7.86306 14.3005Z" fill="url(#paint0_linear_16_1098)"/>
<path d="M10.4608 13.2309C9.97502 12.9764 9.42953 12.843 8.88198 12.843C8.33444 12.843 7.78689 12.9784 7.30316 13.2309L5.09445 14.3886C4.87214 14.5056 4.61071 14.3167 4.65394 14.0704L5.04916 11.7777C5.25501 10.581 4.85773 9.36175 3.98495 8.51403L2.31349 6.89042C2.13235 6.71595 2.23321 6.41012 2.48228 6.37317L4.9483 6.01602C6.05368 5.85592 7.0088 5.16419 7.50489 4.16457L8.60821 1.93545C8.71937 1.70967 9.04048 1.70967 9.1537 1.93545L10.257 4.16457C10.7511 5.16419 11.7062 5.85592 12.8136 6.01602L15.2796 6.37317C15.5287 6.41012 15.6275 6.7139 15.4484 6.89042L13.777 8.51403C12.9062 9.36175 12.5069 10.581 12.7127 11.7777L13.108 14.0704C13.1512 14.3188 12.8898 14.5056 12.6675 14.3886L10.4608 13.2309Z" fill="url(#paint1_linear_16_1098)"/>
<path opacity="0.5" d="M3.98494 8.10164L2.31348 6.47804C2.30936 6.47393 2.3073 6.46983 2.30525 6.46777C2.20026 6.58067 2.18791 6.76745 2.31348 6.88856L3.98494 8.51216C4.65599 9.16489 5.04503 10.0393 5.09444 10.9527C5.15619 9.89356 4.75685 8.85084 3.98494 8.10164ZM15.4546 6.46777C15.4505 6.47188 15.4505 6.47598 15.4464 6.47804L13.7749 8.10164C13.003 8.85084 12.6036 9.89356 12.6654 10.9527C12.7148 10.0393 13.1038 9.16489 13.7749 8.51216L15.4464 6.88856C15.574 6.7654 15.5596 6.58067 15.4546 6.46777ZM13.0709 13.8571C12.9947 13.9905 12.8218 14.0603 12.6675 13.9782L10.4608 12.8226C9.97501 12.5681 9.42952 12.4347 8.88197 12.4347C8.33443 12.4347 7.78688 12.5701 7.30315 12.8226L5.09444 13.9782C4.93799 14.0603 4.76714 13.9905 4.69098 13.8571L4.65393 14.0685C4.6107 14.3149 4.87212 14.5037 5.09444 14.3867L7.30109 13.2311C7.78688 12.9766 8.33237 12.8431 8.87991 12.8431C9.42746 12.8431 9.97501 12.9786 10.4587 13.2311L12.6654 14.3887C12.8877 14.5057 13.1491 14.3169 13.1059 14.0706L13.0709 13.8571Z" fill="white"/>
<path opacity="0.5" d="M12.8115 6.01406C11.7062 5.85396 10.749 5.16224 10.255 4.16262L9.15369 1.9335C9.04253 1.70771 8.72141 1.70771 8.6082 1.9335L7.50487 4.16262C7.01085 5.16224 6.05367 5.85396 4.94829 6.01406L2.48227 6.37122C2.2332 6.40816 2.13439 6.71195 2.31348 6.88847L3.98493 8.51207C4.80419 9.30848 5.20559 10.4354 5.07797 11.5622C7.66337 10.2219 10.2405 8.49155 12.6819 6.38353C12.8095 6.27269 12.935 6.16185 13.0606 6.05101L12.8115 6.01406Z" fill="white"/>
<defs>
<linearGradient id="paint0_linear_16_1098" x1="8.88046" y1="4.97363e-05" x2="8.88046" y2="16" gradientUnits="userSpaceOnUse">
<stop offset="0.00540541" stop-color="#FFB61C"/>
<stop offset="1" stop-color="#F5811B"/>
</linearGradient>
<linearGradient id="paint1_linear_16_1098" x1="8.88042" y1="1.76552" x2="8.88042" y2="14.4239" gradientUnits="userSpaceOnUse">
<stop offset="0.00540541" stop-color="#FFDB32"/>
<stop offset="1" stop-color="#FCA32D"/>
</linearGradient>
</defs>
</svg>
