<svg width="1440" height="280" viewBox="0 0 1440 280" fill="none" xmlns="http://www.w3.org/2000/svg">
<path d="M3.5 59.5001C56 50.1667 178.9 56.0001 250.5 154C340 276.5 557.5 237.5 633.5 125.5C709.5 13.5 906 119 940 195.5C974 272 1354.5 298.5 1436.5 23.5" stroke="url(#paint0_linear_618_3527)"/>
<g filter="url(#filter0_f_618_3527)">
<path d="M3.5 62.5001C56 53.1667 178.9 59.0001 250.5 157C340 279.5 557.5 240.5 633.5 128.5C709.5 16.5 906 122 940 198.5C974 275 1354.5 301.5 1436.5 26.5" stroke="url(#paint1_linear_618_3527)" stroke-opacity="0.54" stroke-width="9"/>
</g>
<defs>
<filter id="filter0_f_618_3527" x="-22.2876" y="0.214111" width="1488.1" height="279.56" filterUnits="userSpaceOnUse" color-interpolation-filters="sRGB">
<feFlood flood-opacity="0" result="BackgroundImageFix"/>
<feBlend mode="normal" in="SourceGraphic" in2="BackgroundImageFix" result="shape"/>
<feGaussianBlur stdDeviation="12.5" result="effect1_foregroundBlur_618_3527"/>
</filter>
<linearGradient id="paint0_linear_618_3527" x1="3.49999" y1="33.9894" x2="633.562" y2="602.997" gradientUnits="userSpaceOnUse">
<stop stop-color="#FF4646"/>
<stop offset="1" stop-color="#C2206E"/>
</linearGradient>
<linearGradient id="paint1_linear_618_3527" x1="3.49999" y1="36.9894" x2="633.562" y2="605.997" gradientUnits="userSpaceOnUse">
<stop stop-color="#FF5858"/>
<stop offset="1" stop-color="#FF52A5"/>
</linearGradient>
</defs>
</svg>
