<svg width="34" height="28" viewBox="0 0 34 28" fill="none" xmlns="http://www.w3.org/2000/svg">
<path d="M32.0953 15.229C31.9865 6.99617 25.2581 0.332031 17.0001 0.332031C8.74161 0.332031 2.01405 6.99617 1.90401 15.229C1.11525 15.8447 0.514648 16.6448 0.514648 17.6579V22.5736C0.514648 24.3619 2.38659 25.49 3.86247 26.1028V26.5963C3.86247 27.1881 4.51473 27.6686 5.31903 27.6686H5.73357C6.53829 27.6686 7.19013 27.1881 7.19013 26.5963V13.8657C7.19013 13.2731 6.53829 12.793 5.73357 12.793H5.31903C5.05149 12.793 4.80369 12.8501 4.58865 12.9425C5.74869 7.15115 10.8723 2.77391 17.0001 2.77391C23.1274 2.77391 28.2515 7.15073 29.4111 12.9421C29.1804 12.8433 28.9321 12.7924 28.6811 12.7926H28.2661C27.4614 12.7926 26.8092 13.2727 26.8092 13.8653V26.5959C26.8092 27.1877 27.4614 27.6682 28.2661 27.6682H28.6811C29.4858 27.6682 30.1372 27.1877 30.1372 26.5959V26.1024C31.6131 25.4896 33.4851 24.3611 33.4851 22.5731V17.6575C33.4851 16.6453 32.8845 15.8447 32.0953 15.229Z" fill="black"/>
<path d="M32.0953 15.229C31.9865 6.99617 25.2581 0.332031 17.0001 0.332031C8.74161 0.332031 2.01405 6.99617 1.90401 15.229C1.11525 15.8447 0.514648 16.6448 0.514648 17.6579V22.5736C0.514648 24.3619 2.38659 25.49 3.86247 26.1028V26.5963C3.86247 27.1881 4.51473 27.6686 5.31903 27.6686H5.73357C6.53829 27.6686 7.19013 27.1881 7.19013 26.5963V13.8657C7.19013 13.2731 6.53829 12.793 5.73357 12.793H5.31903C5.05149 12.793 4.80369 12.8501 4.58865 12.9425C5.74869 7.15115 10.8723 2.77391 17.0001 2.77391C23.1274 2.77391 28.2515 7.15073 29.4111 12.9421C29.1804 12.8433 28.9321 12.7924 28.6811 12.7926H28.2661C27.4614 12.7926 26.8092 13.2727 26.8092 13.8653V26.5959C26.8092 27.1877 27.4614 27.6682 28.2661 27.6682H28.6811C29.4858 27.6682 30.1372 27.1877 30.1372 26.5959V26.1024C31.6131 25.4896 33.4851 24.3611 33.4851 22.5731V17.6575C33.4851 16.6453 32.8845 15.8447 32.0953 15.229Z" fill="url(#paint0_linear_44_2345)"/>
<defs>
<linearGradient id="paint0_linear_44_2345" x1="6.121" y1="2.22614" x2="36.3095" y2="3.47382" gradientUnits="userSpaceOnUse">
<stop stop-color="#3DE8FF"/>
<stop offset="1" stop-color="#1C69FF"/>
</linearGradient>
</defs>
</svg>
