<svg width="28" height="24" viewBox="0 0 28 24" fill="none" xmlns="http://www.w3.org/2000/svg">
<path fill-rule="evenodd" clip-rule="evenodd" d="M20.5857 0C22.3737 0 24.0937 0.706667 25.359 1.97467C26.6257 3.24 27.3337 4.94667 27.3337 6.73333V17.2667C27.3337 20.9867 24.307 24 20.5857 24H7.41366C3.69233 24 0.666992 20.9867 0.666992 17.2667V6.73333C0.666992 3.01333 3.67899 0 7.41366 0H20.5857ZM22.7069 8.71979L22.8136 8.61312C23.1322 8.22645 23.1322 7.66645 22.7989 7.27979C22.6136 7.08112 22.3589 6.95979 22.0936 6.93312C21.8136 6.91845 21.5469 7.01312 21.3456 7.19979L15.3336 11.9998C14.5602 12.6411 13.4522 12.6411 12.6669 11.9998L6.6669 7.19979C6.25223 6.89312 5.6789 6.93312 5.33357 7.29312C4.97357 7.65312 4.93357 8.22645 5.2389 8.62646L5.41357 8.79979L11.4802 13.5331C12.2269 14.1198 13.1322 14.4398 14.0802 14.4398C15.0256 14.4398 15.9469 14.1198 16.6922 13.5331L22.7069 8.71979Z" fill="url(#paint0_linear_44_2354)"/>
<defs>
<linearGradient id="paint0_linear_44_2354" x1="0.666992" y1="1.125" x2="21.4442" y2="4.38069" gradientUnits="userSpaceOnUse">
<stop stop-color="#FF4646"/>
<stop offset="1" stop-color="#C2206E"/>
</linearGradient>
</defs>
</svg>
