<svg width="40" height="36" viewBox="0 0 40 36" fill="none" xmlns="http://www.w3.org/2000/svg">
<path fill-rule="evenodd" clip-rule="evenodd" d="M30.1 6.91016C28.74 6.91016 27.65 8.01016 27.65 9.36016C27.65 10.3302 28.22 11.1702 29.04 11.5702C28.46 13.8202 27 16.4802 25.56 18.3202C24.06 20.2302 22.04 21.1902 20.01 21.1902C17.99 21.1902 15.96 20.2302 14.46 18.3202C13.02 16.4902 11.56 13.8202 10.98 11.5702C11.8 11.1702 12.37 10.3302 12.37 9.36016C12.37 8.00016 11.27 6.91016 9.91999 6.91016C8.55999 6.91016 7.46999 8.01016 7.46999 9.36016C7.46999 10.5502 8.31999 11.5502 9.44999 11.7702C9.39999 14.6502 8.00999 19.4402 5.62999 20.8802L7.12999 26.4202H20H32.89L34.39 20.8802C32.01 19.4402 30.62 14.6402 30.57 11.7702C31.7 11.5502 32.55 10.5502 32.55 9.36016C32.55 8.00016 31.46 6.91016 30.1 6.91016Z" fill="url(#paint0_linear_429_1776)"/>
<path fill-rule="evenodd" clip-rule="evenodd" d="M0.899994 9.78993C0.909994 9.59993 1.07999 9.33993 1.31999 9.28993C1.94999 9.24993 2.55999 9.41993 3.06999 9.75993C3.61999 10.1299 4.17999 10.7999 4.34999 11.8199L1.83999 12.4399L0.899994 9.78993Z" fill="url(#paint1_linear_429_1776)"/>
<path fill-rule="evenodd" clip-rule="evenodd" d="M20 0.860352C18.11 0.860352 16.58 2.39035 16.58 4.28035V4.86035H20H23.42V4.28035C23.42 2.39035 21.89 0.860352 20 0.860352Z" fill="url(#paint2_linear_429_1776)"/>
<path fill-rule="evenodd" clip-rule="evenodd" d="M39.1 9.79066C39.09 9.60066 38.92 9.34066 38.68 9.29066C38.05 9.25066 37.44 9.43066 36.93 9.77066C36.38 10.1407 35.82 10.8107 35.65 11.8307L38.16 12.4507L39.1 9.79066Z" fill="url(#paint3_linear_429_1776)"/>
<path fill-rule="evenodd" clip-rule="evenodd" d="M34.67 26.4502V30.6202C34.67 30.8902 34.61 31.1202 34.47 31.3502C33.21 33.4702 27.28 35.1302 20.01 35.1302C12.73 35.1302 6.80999 33.4702 5.54999 31.3502C5.40999 31.1202 5.34999 30.8902 5.34999 30.6202V26.4502C6.77999 32.0502 33.22 32.0502 34.67 26.4502Z" fill="url(#paint4_linear_429_1776)"/>
<path fill-rule="evenodd" clip-rule="evenodd" d="M20 1.44043C21.89 1.44043 23.42 2.97043 23.42 4.86043C23.42 6.26043 22.58 7.46043 21.38 7.99043C22.33 12.3104 24.25 17.9604 28.46 19.3004C32.05 20.4404 35.39 17.3704 36.47 14.6204C35.73 13.9304 35.38 12.8704 35.65 11.8304C36.04 10.3104 37.59 9.40043 39.1 9.80043C37.26 15.4004 35.69 21.3304 34.67 26.9504C34.24 29.3304 27.81 31.2104 20 31.2104C12.19 31.2104 5.76999 29.3404 5.32999 26.9504C4.30999 21.3104 2.73999 15.3804 0.899994 9.79043C2.41999 9.40043 3.95999 10.3104 4.34999 11.8204C4.61999 12.8604 4.26999 13.9204 3.52999 14.6104C4.59999 17.3604 7.94999 20.4304 11.54 19.2904C15.75 17.9504 17.66 12.3004 18.62 7.98043C17.42 7.45043 16.58 6.25043 16.58 4.85043C16.58 2.97043 18.11 1.44043 20 1.44043Z" fill="url(#paint5_linear_429_1776)"/>
<path fill-rule="evenodd" clip-rule="evenodd" d="M28.46 19.2905C32.05 20.4305 35.39 17.3605 36.47 14.6105C35.9 16.8105 34.26 19.4805 31.5 20.2305C24.59 22.1005 21.7 13.3005 21.38 7.98047C22.33 12.3005 24.25 17.9505 28.46 19.2905Z" fill="url(#paint6_linear_429_1776)"/>
<path fill-rule="evenodd" clip-rule="evenodd" d="M11.54 19.2905C7.95 20.4305 4.61 17.3605 3.53 14.6105C4.1 16.8105 5.74 19.4805 8.5 20.2305C15.41 22.1005 18.3 13.3005 18.62 7.98047C17.67 12.3005 15.75 17.9505 11.54 19.2905Z" fill="url(#paint7_linear_429_1776)"/>
<path opacity="0.65" fill-rule="evenodd" clip-rule="evenodd" d="M33.54 28.3604C31.37 30.0304 26.07 31.2004 19.89 31.2004C13.72 31.2004 8.40999 30.0304 6.23999 28.3604C8.17999 30.2004 13.57 31.5104 19.89 31.5104C26.21 31.5104 31.6 30.2004 33.54 28.3604Z" fill="url(#paint8_radial_429_1776)"/>
<path fill-rule="evenodd" clip-rule="evenodd" d="M15.27 20.3602L20 17.9902L24.73 20.3602L24.09 28.4802L20 29.6402L15.91 28.4802L15.27 20.3602Z" fill="#BE8954"/>
<path fill-rule="evenodd" clip-rule="evenodd" d="M15.88 20.7106L20 18.6406L24.12 20.7106L23.54 28.0306L20 29.0406L16.46 28.0306L15.88 20.7106Z" fill="#E6E6E6"/>
<path fill-rule="evenodd" clip-rule="evenodd" d="M17.3 21.5102L17.74 26.9802L20 27.6202L22.26 26.9802L22.7 21.5102L20 20.1602L17.3 21.5102Z" fill="url(#paint9_radial_429_1776)"/>
<path fill-rule="evenodd" clip-rule="evenodd" d="M16.46 28.03L17.74 26.98L17.3 21.51L15.88 20.71L16.46 28.03Z" fill="url(#paint10_radial_429_1776)"/>
<path fill-rule="evenodd" clip-rule="evenodd" d="M17.3 21.5106L20 20.1606V18.6406L15.88 20.7106L17.3 21.5106Z" fill="url(#paint11_radial_429_1776)"/>
<path fill-rule="evenodd" clip-rule="evenodd" d="M20 27.6205L17.74 26.9805L16.46 28.0305L20 29.0405V27.6205Z" fill="url(#paint12_radial_429_1776)"/>
<path fill-rule="evenodd" clip-rule="evenodd" d="M23.54 28.03L22.26 26.98L22.7 21.51L24.12 20.71L23.54 28.03Z" fill="url(#paint13_radial_429_1776)"/>
<path fill-rule="evenodd" clip-rule="evenodd" d="M22.7 21.5106L20 20.1606V18.6406L24.12 20.7106L22.7 21.5106Z" fill="url(#paint14_radial_429_1776)"/>
<path fill-rule="evenodd" clip-rule="evenodd" d="M20 27.6205L22.26 26.9805L23.54 28.0305L20 29.0405V27.6205Z" fill="url(#paint15_radial_429_1776)"/>
<path opacity="0.65" fill-rule="evenodd" clip-rule="evenodd" d="M18.61 20.5504C17.84 20.9604 16.75 21.2004 15.88 20.7104L17.31 21.5204L20.01 20.1704V18.6504C20 19.4504 19.34 20.1504 18.61 20.5504Z" fill="white"/>
<path opacity="0.45" fill-rule="evenodd" clip-rule="evenodd" d="M20.99 27.5705C22.01 27.2305 23.12 27.6905 23.54 28.0305L22.26 26.9805L20 27.6205V28.4305V28.6805C20 28.1605 20.26 27.8105 20.99 27.5705Z" fill="white"/>
<path fill-rule="evenodd" clip-rule="evenodd" d="M15.88 20.7102L20 18.6402V17.9902L15.27 20.3602L15.88 20.7102Z" fill="url(#paint16_linear_429_1776)"/>
<path fill-rule="evenodd" clip-rule="evenodd" d="M16.46 28.0304L15.88 20.7104L15.27 20.3604L15.91 28.4804L16.46 28.0304Z" fill="url(#paint17_linear_429_1776)"/>
<path fill-rule="evenodd" clip-rule="evenodd" d="M20 29.0403L16.46 28.0303L15.91 28.4803L20 29.6403V29.0403Z" fill="url(#paint18_linear_429_1776)"/>
<path fill-rule="evenodd" clip-rule="evenodd" d="M24.12 20.7102L20 18.6402V17.9902L24.73 20.3602L24.12 20.7102Z" fill="url(#paint19_linear_429_1776)"/>
<path fill-rule="evenodd" clip-rule="evenodd" d="M23.54 28.0304L24.12 20.7104L24.73 20.3604L24.09 28.4804L23.54 28.0304Z" fill="url(#paint20_linear_429_1776)"/>
<path fill-rule="evenodd" clip-rule="evenodd" d="M20 29.0403L23.54 28.0303L24.09 28.4803L20 29.6403V29.0403Z" fill="url(#paint21_linear_429_1776)"/>
<path opacity="0.7" fill-rule="evenodd" clip-rule="evenodd" d="M15.54 20.2199C16.88 20.1799 18.89 19.2099 19.72 18.1299L15.54 20.2199Z" fill="#FFFCE3"/>
<path fill-rule="evenodd" clip-rule="evenodd" d="M20 1.44043C21.89 1.44043 23.42 2.97043 23.42 4.86043C23.42 6.75043 21.89 8.28043 20 8.28043C18.11 8.28043 16.58 6.75043 16.58 4.86043C16.58 2.97043 18.11 1.44043 20 1.44043Z" fill="url(#paint22_radial_429_1776)"/>
<path fill-rule="evenodd" clip-rule="evenodd" d="M18.04 2.81055C18.81 2.04055 19.9 1.90055 20.49 2.48055C21.08 3.07055 20.93 4.16056 20.16 4.93056C19.4 5.70056 18.3 5.84055 17.72 5.26056C17.13 4.67056 17.28 3.58055 18.04 2.81055Z" fill="url(#paint23_radial_429_1776)"/>
<path fill-rule="evenodd" clip-rule="evenodd" d="M21.54 2.09082C22.42 2.65082 23.01 3.63082 23.01 4.75082C23.01 6.49082 21.6 7.90082 19.86 7.90082C19.39 7.90082 18.94 7.80082 18.54 7.61082C18.78 7.67082 19.04 7.70082 19.3 7.70082C21.1 7.70082 22.55 6.24082 22.55 4.45082C22.56 3.52082 22.17 2.68082 21.54 2.09082Z" fill="url(#paint24_radial_429_1776)"/>
<defs>
<linearGradient id="paint0_linear_429_1776" x1="20.0002" y1="26.4188" x2="20.0002" y2="6.90616" gradientUnits="userSpaceOnUse">
<stop stop-color="#E86900"/>
<stop offset="1" stop-color="#FC8F00"/>
</linearGradient>
<linearGradient id="paint1_linear_429_1776" x1="0.899994" y1="10.8635" x2="4.35379" y2="10.8635" gradientUnits="userSpaceOnUse">
<stop stop-color="#ED8E00"/>
<stop offset="1" stop-color="#FFCB30"/>
</linearGradient>
<linearGradient id="paint2_linear_429_1776" x1="20.0002" y1="4.85415" x2="20.0002" y2="0.860352" gradientUnits="userSpaceOnUse">
<stop stop-color="#ED8E00"/>
<stop offset="1" stop-color="#FFCB30"/>
</linearGradient>
<linearGradient id="paint3_linear_429_1776" x1="35.6466" y1="10.8643" x2="39.1004" y2="10.8643" gradientUnits="userSpaceOnUse">
<stop stop-color="#ED8E00"/>
<stop offset="1" stop-color="#FFCB30"/>
</linearGradient>
<linearGradient id="paint4_linear_429_1776" x1="5.33419" y1="30.7959" x2="34.6662" y2="30.7959" gradientUnits="userSpaceOnUse">
<stop offset="0.052" stop-color="#ED9500"/>
<stop offset="0.4033" stop-color="#FFCC00"/>
<stop offset="0.9257" stop-color="#B36600"/>
</linearGradient>
<linearGradient id="paint5_linear_429_1776" x1="0.899994" y1="16.3167" x2="39.1004" y2="16.3167" gradientUnits="userSpaceOnUse">
<stop offset="0.052" stop-color="#ED9500"/>
<stop offset="0.4033" stop-color="#FFCC00"/>
<stop offset="0.9257" stop-color="#B36600"/>
</linearGradient>
<linearGradient id="paint6_linear_429_1776" x1="21.3758" y1="14.2365" x2="36.4652" y2="14.2365" gradientUnits="userSpaceOnUse">
<stop stop-color="#ED8E00"/>
<stop offset="1" stop-color="#FFCB30"/>
</linearGradient>
<linearGradient id="paint7_linear_429_1776" x1="3.5352" y1="14.2365" x2="18.6246" y2="14.2365" gradientUnits="userSpaceOnUse">
<stop stop-color="#FFCB30"/>
<stop offset="1" stop-color="#ED8E00"/>
</linearGradient>
<radialGradient id="paint8_radial_429_1776" cx="0" cy="0" r="1" gradientUnits="userSpaceOnUse" gradientTransform="translate(19.8944 29.9346) scale(21.8273)">
<stop stop-color="#FFF0B0"/>
<stop offset="1"/>
</radialGradient>
<radialGradient id="paint9_radial_429_1776" cx="0" cy="0" r="1" gradientUnits="userSpaceOnUse" gradientTransform="translate(18.8813 20.5359) scale(9.5788)">
<stop stop-color="#FF8AAF"/>
<stop offset="1" stop-color="#D7001E"/>
</radialGradient>
<radialGradient id="paint10_radial_429_1776" cx="0" cy="0" r="1" gradientUnits="userSpaceOnUse" gradientTransform="translate(14.8398 21.0367) scale(15.8543)">
<stop stop-color="#FF8480"/>
<stop offset="1" stop-color="#F50022"/>
</radialGradient>
<radialGradient id="paint11_radial_429_1776" cx="0" cy="0" r="1" gradientUnits="userSpaceOnUse" gradientTransform="translate(17.0809 16.7958) scale(7.2468)">
<stop stop-color="#FFE3E3"/>
<stop offset="1" stop-color="#FF8A91"/>
</radialGradient>
<radialGradient id="paint12_radial_429_1776" cx="0" cy="0" r="1" gradientUnits="userSpaceOnUse" gradientTransform="translate(16.3621 33.208) scale(6.8504)">
<stop stop-color="#EB716D"/>
<stop offset="0.2714" stop-color="#E35252"/>
<stop offset="1" stop-color="#CF0008"/>
</radialGradient>
<radialGradient id="paint13_radial_429_1776" cx="0" cy="0" r="1" gradientUnits="userSpaceOnUse" gradientTransform="translate(19.8605 20.9358) scale(7.98899)">
<stop stop-color="#EB716D"/>
<stop offset="1" stop-color="#CF0008"/>
</radialGradient>
<radialGradient id="paint14_radial_429_1776" cx="0" cy="0" r="1" gradientUnits="userSpaceOnUse" gradientTransform="translate(20.5973 18.31) scale(12.0622)">
<stop stop-color="#FF8480"/>
<stop offset="1" stop-color="#F50022"/>
</radialGradient>
<radialGradient id="paint15_radial_429_1776" cx="0" cy="0" r="1" gradientUnits="userSpaceOnUse" gradientTransform="translate(19.6505 21.9524) scale(7.9345)">
<stop stop-color="#FFE3E3"/>
<stop offset="1" stop-color="#FF8A91"/>
</radialGradient>
<linearGradient id="paint16_linear_429_1776" x1="15.2663" y1="19.3479" x2="20.0002" y2="19.3479" gradientUnits="userSpaceOnUse">
<stop stop-color="#F5D36C"/>
<stop offset="1" stop-color="#FFF5B0"/>
</linearGradient>
<linearGradient id="paint17_linear_429_1776" x1="15.8627" y1="28.4808" x2="15.8627" y2="20.3605" gradientUnits="userSpaceOnUse">
<stop stop-color="#ED8E00"/>
<stop offset="1" stop-color="#FFCB30"/>
</linearGradient>
<linearGradient id="paint18_linear_429_1776" x1="15.9107" y1="28.8363" x2="20.0002" y2="28.8363" gradientUnits="userSpaceOnUse">
<stop stop-color="#A34900"/>
<stop offset="1" stop-color="#F09C00"/>
</linearGradient>
<linearGradient id="paint19_linear_429_1776" x1="19.9999" y1="19.3479" x2="24.7338" y2="19.3479" gradientUnits="userSpaceOnUse">
<stop stop-color="#F09C00"/>
<stop offset="1" stop-color="#A34900"/>
</linearGradient>
<linearGradient id="paint20_linear_429_1776" x1="24.1374" y1="28.4808" x2="24.1374" y2="20.3605" gradientUnits="userSpaceOnUse">
<stop stop-color="#A34900"/>
<stop offset="1" stop-color="#F09C00"/>
</linearGradient>
<linearGradient id="paint21_linear_429_1776" x1="19.9999" y1="28.8363" x2="24.0895" y2="28.8363" gradientUnits="userSpaceOnUse">
<stop stop-color="#FFBF00"/>
<stop offset="1" stop-color="#DB6A00"/>
</linearGradient>
<radialGradient id="paint22_radial_429_1776" cx="0" cy="0" r="1" gradientUnits="userSpaceOnUse" gradientTransform="translate(18.9069 3.92033) scale(4.6627)">
<stop stop-color="#FCCD10"/>
<stop offset="0.2207" stop-color="#EDAB09"/>
<stop offset="0.4492" stop-color="#E08E02"/>
<stop offset="0.5799" stop-color="#DB8300"/>
<stop offset="0.7066" stop-color="#D67D00"/>
<stop offset="0.8778" stop-color="#C86C00"/>
<stop offset="1" stop-color="#BA5B00"/>
</radialGradient>
<radialGradient id="paint23_radial_429_1776" cx="0" cy="0" r="1" gradientUnits="userSpaceOnUse" gradientTransform="translate(16.6428 1.27425) scale(5.6025)">
<stop stop-color="#FFE58A"/>
<stop offset="1" stop-color="#FFD956" stop-opacity="0"/>
</radialGradient>
<radialGradient id="paint24_radial_429_1776" cx="0" cy="0" r="1" gradientUnits="userSpaceOnUse" gradientTransform="translate(20.1877 4.26702) scale(5.3812)">
<stop stop-color="#FFE58A"/>
<stop offset="1" stop-color="#F93C00" stop-opacity="0"/>
</radialGradient>
</defs>
</svg>
