<svg width="77" height="30" viewBox="0 0 77 30" fill="none" xmlns="http://www.w3.org/2000/svg">
<g clip-path="url(#clip0_40_1701)">
<rect opacity="0.1" width="112" height="30" fill="url(#paint0_linear_40_1701)"/>
<path d="M14.642 20H12.392L16.4886 8.36364H19.0909L23.1932 20H20.9432L17.8352 10.75H17.7443L14.642 20ZM14.7159 15.4375H20.8523V17.1307H14.7159V15.4375ZM30.1974 16.3295V11.2727H32.2543V20H30.2599V18.4489H30.169C29.9721 18.9375 29.6482 19.3371 29.1974 19.6477C28.7505 19.9583 28.1993 20.1136 27.544 20.1136C26.9721 20.1136 26.4664 19.9867 26.027 19.733C25.5914 19.4754 25.2505 19.1023 25.0043 18.6136C24.758 18.1212 24.6349 17.5265 24.6349 16.8295V11.2727H26.6918V16.5114C26.6918 17.0644 26.8433 17.5038 27.1463 17.8295C27.4493 18.1553 27.8471 18.3182 28.3395 18.3182C28.6425 18.3182 28.9361 18.2443 29.2202 18.0966C29.5043 17.9489 29.7372 17.7292 29.919 17.4375C30.1046 17.142 30.1974 16.7727 30.1974 16.3295ZM38.7273 11.2727V12.8636H33.7102V11.2727H38.7273ZM34.9489 9.18182H37.0057V17.375C37.0057 17.6515 37.0473 17.8636 37.1307 18.0114C37.2178 18.1553 37.3314 18.2538 37.4716 18.3068C37.6117 18.3598 37.767 18.3864 37.9375 18.3864C38.0663 18.3864 38.1837 18.3769 38.2898 18.358C38.3996 18.339 38.483 18.322 38.5398 18.3068L38.8864 19.9148C38.7765 19.9527 38.6193 19.9943 38.4148 20.0398C38.214 20.0852 37.9678 20.1117 37.6761 20.1193C37.161 20.1345 36.697 20.0568 36.2841 19.8864C35.8712 19.7121 35.5436 19.4432 35.3011 19.0795C35.0625 18.7159 34.9451 18.2614 34.9489 17.7159V9.18182ZM42.6918 14.8864V20H40.6349V8.36364H42.6463V12.7557H42.7486C42.9531 12.2633 43.2694 11.875 43.6974 11.5909C44.1293 11.303 44.6785 11.1591 45.3452 11.1591C45.9512 11.1591 46.4796 11.286 46.9304 11.5398C47.3812 11.7936 47.7296 12.1648 47.9759 12.6534C48.2259 13.142 48.3509 13.7386 48.3509 14.4432V20H46.294V14.7614C46.294 14.1742 46.1425 13.7178 45.8395 13.392C45.5402 13.0625 45.1198 12.8977 44.5781 12.8977C44.2145 12.8977 43.8887 12.9773 43.6009 13.1364C43.3168 13.2917 43.0933 13.517 42.9304 13.8125C42.7713 14.108 42.6918 14.4659 42.6918 14.8864ZM54.2543 20.1705C53.402 20.1705 52.6634 19.983 52.0384 19.608C51.4134 19.233 50.9285 18.7083 50.5838 18.0341C50.2429 17.3598 50.0724 16.572 50.0724 15.6705C50.0724 14.7689 50.2429 13.9792 50.5838 13.3011C50.9285 12.6231 51.4134 12.0966 52.0384 11.7216C52.6634 11.3466 53.402 11.1591 54.2543 11.1591C55.1065 11.1591 55.8452 11.3466 56.4702 11.7216C57.0952 12.0966 57.5781 12.6231 57.919 13.3011C58.2637 13.9792 58.4361 14.7689 58.4361 15.6705C58.4361 16.572 58.2637 17.3598 57.919 18.0341C57.5781 18.7083 57.0952 19.233 56.4702 19.608C55.8452 19.983 55.1065 20.1705 54.2543 20.1705ZM54.2656 18.5227C54.7277 18.5227 55.1141 18.3958 55.4247 18.142C55.7353 17.8845 55.9664 17.5398 56.1179 17.108C56.2732 16.6761 56.3509 16.1951 56.3509 15.6648C56.3509 15.1307 56.2732 14.6477 56.1179 14.2159C55.9664 13.7803 55.7353 13.4337 55.4247 13.1761C55.1141 12.9186 54.7277 12.7898 54.2656 12.7898C53.7921 12.7898 53.3982 12.9186 53.0838 13.1761C52.7732 13.4337 52.5402 13.7803 52.3849 14.2159C52.2334 14.6477 52.1577 15.1307 52.1577 15.6648C52.1577 16.1951 52.2334 16.6761 52.3849 17.108C52.5402 17.5398 52.7732 17.8845 53.0838 18.142C53.3982 18.3958 53.7921 18.5227 54.2656 18.5227ZM60.1818 20V11.2727H62.1761V12.7273H62.267C62.4261 12.2235 62.6989 11.8352 63.0852 11.5625C63.4754 11.286 63.9205 11.1477 64.4205 11.1477C64.5341 11.1477 64.661 11.1534 64.8011 11.1648C64.9451 11.1723 65.0644 11.1856 65.1591 11.2045V13.0966C65.072 13.0663 64.9337 13.0398 64.7443 13.017C64.5587 12.9905 64.3788 12.9773 64.2045 12.9773C63.8295 12.9773 63.4924 13.0587 63.1932 13.2216C62.8977 13.3807 62.6648 13.6023 62.4943 13.8864C62.3239 14.1705 62.2386 14.4981 62.2386 14.8693V20H60.1818Z" fill="url(#paint1_linear_40_1701)"/>
</g>
<defs>
<linearGradient id="paint0_linear_40_1701" x1="4.5" y1="3" x2="116.5" y2="30" gradientUnits="userSpaceOnUse">
<stop stop-color="#FFAC60"/>
<stop offset="1" stop-color="#FF2A83"/>
</linearGradient>
<linearGradient id="paint1_linear_40_1701" x1="14.1696" y1="5.3" x2="70.0241" y2="13.7678" gradientUnits="userSpaceOnUse">
<stop stop-color="#FFAC60"/>
<stop offset="1" stop-color="#FF2A83"/>
</linearGradient>
<clipPath id="clip0_40_1701">
<rect width="77" height="30" rx="15" fill="white"/>
</clipPath>
</defs>
</svg>
