<svg width="16" height="20" viewBox="0 0 16 20" fill="none" xmlns="http://www.w3.org/2000/svg">
<path d="M8.23995 0.399902C2.95995 0.399902 0.199951 3.7599 0.199951 7.4799C0.199951 9.2799 1.15995 11.0799 2.71995 12.0399C3.19995 12.2799 3.07995 12.0399 3.43995 10.5999C3.43995 10.4799 3.43995 10.3599 3.31995 10.2399C1.15995 7.5999 2.95995 2.4399 7.99995 2.4399C15.32 2.4399 13.88 12.5199 9.31995 12.5199C8.35995 12.6399 7.51995 11.9199 7.51995 10.9599V10.4799C7.99995 9.1599 8.35995 7.9599 8.47995 6.6399C8.47995 4.1199 4.75995 4.4799 4.75995 7.8399C4.75995 8.4399 4.87995 9.0399 5.11995 9.5199C5.11995 9.5199 3.91995 14.4399 3.67995 15.2799C3.43995 16.7199 3.55995 18.1599 3.79995 19.4799C3.67995 19.5999 3.79995 19.5999 3.79995 19.5999H3.91995C4.75995 18.3999 5.47995 17.1999 5.95995 15.8799C6.07995 15.2799 6.67995 13.1199 6.67995 13.1199C7.27995 13.9599 8.35995 14.4399 9.43995 14.4399C13.16 14.4399 15.8 11.1999 15.8 7.2399C15.8 3.2799 12.44 0.399902 8.23995 0.399902Z" fill="#77B9FF"/>
</svg>
