<svg width="55" height="45" viewBox="0 0 55 45" fill="none" xmlns="http://www.w3.org/2000/svg">
<path opacity="0.2" d="M17.9487 21.0441C20.0855 22.0147 21.7521 23.4706 22.9487 25.4118C24.1453 27.3529 24.7436 29.6471 24.7436 32.2941C24.7436 36.0882 23.5897 39.1765 21.282 41.5588C18.9744 43.8529 16.0256 45 12.4359 45C8.84615 45 5.8547 43.8088 3.46154 41.4265C1.15385 39.0441 0 36 0 32.2941C0 30.5294 0.213675 28.7647 0.641025 27C1.06838 25.2353 2.00855 22.5882 3.46154 19.0588L10.8974 0H23.5897L17.9487 21.0441ZM48.2051 21.0441C50.3419 22.0147 52.0085 23.4706 53.2051 25.4118C54.4017 27.3529 55 29.6471 55 32.2941C55 36.0882 53.8462 39.1765 51.5385 41.5588C49.2308 43.8529 46.2821 45 42.6923 45C39.1026 45 36.1111 43.8088 33.7179 41.4265C31.4103 39.0441 30.2564 36 30.2564 32.2941C30.2564 30.5294 30.4701 28.7647 30.8974 27C31.3248 25.2353 32.265 22.5882 33.7179 19.0588L41.1538 0H53.8462L48.2051 21.0441Z" fill="white"/>
</svg>
