<svg width="18" height="18" viewBox="0 0 18 18" fill="none" xmlns="http://www.w3.org/2000/svg">
<path d="M8.352 9.08748L7.90518 10.8989C8.45674 11.0375 10.158 11.5899 10.4094 10.568C10.6722 9.50231 8.90355 9.22669 8.352 9.08748ZM8.96147 6.61532L8.55639 8.25824C9.01572 8.37406 10.4316 8.84628 10.6611 7.9168C10.9 6.94721 9.42083 6.73109 8.96151 6.61532H8.96147ZM9 1.5C7.51664 1.5 6.0666 1.93987 4.83323 2.76398C3.59986 3.58809 2.63856 4.75943 2.07091 6.12987C1.50325 7.50032 1.35472 9.00832 1.64411 10.4632C1.9335 11.918 2.64781 13.2544 3.6967 14.3033C4.7456 15.3522 6.08197 16.0665 7.53683 16.3559C8.99168 16.6453 10.4997 16.4968 11.8701 15.9291C13.2406 15.3614 14.4119 14.4001 15.236 13.1668C16.0601 11.9334 16.5 10.4834 16.5 9C16.5 8.01509 16.306 7.03982 15.9291 6.12987C15.5522 5.21993 14.9997 4.39314 14.3033 3.6967C13.6069 3.00026 12.7801 2.44781 11.8701 2.0709C10.9602 1.69399 9.98492 1.5 9 1.5ZM12.2685 7.93154C12.2527 8.21929 12.1423 8.49377 11.9544 8.71228C11.7665 8.93079 11.5117 9.08109 11.2296 9.13979C11.415 9.21528 11.5828 9.32837 11.7224 9.47192C11.8619 9.61547 11.9702 9.78638 12.0405 9.97387C12.1107 10.1614 12.1413 10.3614 12.1305 10.5613C12.1196 10.7612 12.0674 10.9567 11.9772 11.1355C11.538 12.4046 10.4947 12.5117 9.10728 12.2461L8.77053 13.6109L7.9569 13.4058L8.28924 12.0594C8.07835 12.0064 7.86283 11.9501 7.64082 11.8892L7.30733 13.242L6.49461 13.0369L6.83136 11.6695C6.6413 11.6203 6.44826 11.5681 6.25128 11.5182L5.19248 11.2512L5.59641 10.3093C5.59641 10.3093 6.1959 10.4705 6.1878 10.4586C6.22511 10.4705 6.26441 10.4749 6.30343 10.4715C6.34244 10.4681 6.3804 10.4569 6.41509 10.4388C6.44977 10.4206 6.48051 10.3957 6.5055 10.3655C6.53049 10.3354 6.54925 10.3006 6.56069 10.2631L7.47375 6.55975C7.48547 6.44629 7.45239 6.33274 7.38156 6.24333C7.31073 6.15392 7.20776 6.09573 7.09463 6.08117C7.10738 6.07251 6.50363 5.93258 6.50363 5.93258L6.7201 5.05367L7.84218 5.33702L7.84125 5.34127C8.00994 5.38366 8.18375 5.42399 8.36082 5.46478L8.6943 4.11337L9.50747 4.31845L9.18075 5.64336C9.39906 5.69375 9.61875 5.74461 9.83265 5.79853L10.1571 4.48229L10.9707 4.68737L10.6375 6.03923C11.6648 6.39711 12.4161 6.93361 12.2685 7.93154Z" fill="#A4A6AC"/>
</svg>
