<svg width="18" height="18" viewBox="0 0 18 18" fill="none" xmlns="http://www.w3.org/2000/svg">
<path d="M9.5325 12.2175L9.42 12.1275C9.37819 12.0991 9.33279 12.0764 9.285 12.06L9.15 12C9.02837 11.9746 8.90232 11.9798 8.78319 12.0151C8.66406 12.0505 8.55558 12.1148 8.4675 12.2025C8.40125 12.2754 8.34798 12.3591 8.31 12.45C8.25324 12.5867 8.23817 12.737 8.26669 12.8822C8.29521 13.0274 8.36604 13.1609 8.47027 13.266C8.5745 13.371 8.70747 13.4429 8.85244 13.4725C8.99742 13.5021 9.14792 13.4882 9.285 13.4325C9.37462 13.389 9.45789 13.3335 9.5325 13.2675C9.63657 13.162 9.70707 13.0281 9.7351 12.8826C9.76313 12.7371 9.74743 12.5866 9.69 12.45C9.65261 12.3633 9.59917 12.2844 9.5325 12.2175ZM12 1.5H6C5.40326 1.5 4.83097 1.73705 4.40901 2.15901C3.98705 2.58097 3.75 3.15326 3.75 3.75V14.25C3.75 14.8467 3.98705 15.419 4.40901 15.841C4.83097 16.2629 5.40326 16.5 6 16.5H12C12.5967 16.5 13.169 16.2629 13.591 15.841C14.0129 15.419 14.25 14.8467 14.25 14.25V3.75C14.25 3.15326 14.0129 2.58097 13.591 2.15901C13.169 1.73705 12.5967 1.5 12 1.5ZM12.75 14.25C12.75 14.4489 12.671 14.6397 12.5303 14.7803C12.3897 14.921 12.1989 15 12 15H6C5.80109 15 5.61032 14.921 5.46967 14.7803C5.32902 14.6397 5.25 14.4489 5.25 14.25V3.75C5.25 3.55109 5.32902 3.36032 5.46967 3.21967C5.61032 3.07902 5.80109 3 6 3H12C12.1989 3 12.3897 3.07902 12.5303 3.21967C12.671 3.36032 12.75 3.55109 12.75 3.75V14.25Z" fill="#A4A6AC"/>
</svg>
