<svg width="18" height="17" viewBox="0 0 18 17" fill="none" xmlns="http://www.w3.org/2000/svg">
<path d="M13.1667 4.66671H14.8333C15.7538 4.66671 16.5 5.4129 16.5 6.33337V11.3334C16.5 12.2538 15.7538 13 14.8333 13H13.1667V16.3334L9.83333 13H6.5C6.03976 13 5.6231 12.8135 5.32149 12.5119M5.32149 12.5119L8.16667 9.66671H11.5C12.4205 9.66671 13.1667 8.92052 13.1667 8.00004V3.00004C13.1667 2.07957 12.4205 1.33337 11.5 1.33337H3.16667C2.24619 1.33337 1.5 2.07957 1.5 3.00004V8.00004C1.5 8.92052 2.24619 9.66671 3.16667 9.66671H4.83333V13L5.32149 12.5119Z" stroke="white" stroke-width="1.25" stroke-linecap="round" stroke-linejoin="round"/>
</svg>
