<svg width="20" height="20" viewBox="0 0 20 20" fill="none" xmlns="http://www.w3.org/2000/svg">
<path d="M10 0.25C8.07164 0.25 6.18657 0.821828 4.58319 1.89317C2.97982 2.96451 1.73013 4.48726 0.992179 6.26884C0.254225 8.05042 0.061142 10.0108 0.437348 11.9021C0.813554 13.7934 1.74215 15.5307 3.10571 16.8943C4.46928 18.2579 6.20656 19.1865 8.09787 19.5627C9.98919 19.9389 11.9496 19.7458 13.7312 19.0078C15.5127 18.2699 17.0355 17.0202 18.1068 15.4168C19.1782 13.8134 19.75 11.9284 19.75 10C19.75 7.41414 18.7228 4.93419 16.8943 3.10571C15.0658 1.27723 12.5859 0.25 10 0.25ZM18.25 9.25H15.25C15.2222 6.8753 14.5759 4.54884 13.375 2.5C14.7132 3.09175 15.8699 4.02873 16.7265 5.21488C17.5832 6.40103 18.109 7.79366 18.25 9.25ZM10 18.25C8.32 18.25 6.46 15.205 6.25 10.75H13.75C13.54 15.205 11.68 18.25 10 18.25ZM6.25 9.25C6.4375 4.795 8.2975 1.75 10 1.75C11.7025 1.75 13.54 4.795 13.75 9.25H6.25ZM6.6025 2.5C5.40945 4.55101 4.771 6.87733 4.75 9.25H1.75C1.89103 7.79366 2.41683 6.40103 3.27349 5.21488C4.13015 4.02873 5.28685 3.09175 6.625 2.5H6.6025ZM1.7875 10.75H4.75C4.771 13.1227 5.40945 15.449 6.6025 17.5C5.27558 16.9 4.13113 15.9594 3.28543 14.7738C2.43973 13.5883 1.92292 12.2 1.7875 10.75ZM13.375 17.5C14.5759 15.4512 15.2222 13.1247 15.25 10.75H18.25C18.109 12.2063 17.5832 13.599 16.7265 14.7851C15.8699 15.9713 14.7132 16.9083 13.375 17.5Z" fill="white"/>
</svg>
