<svg width="114" height="54" viewBox="0 0 114 54" fill="none" xmlns="http://www.w3.org/2000/svg">
<rect width="114" height="54" rx="8" fill="#0B1423"/>
<g clip-path="url(#clip0_20_1809)">
<path d="M32.8635 28.5572C31.72 33.1107 27.0748 35.8819 22.4879 34.7464C17.9028 33.6111 15.1116 28.9989 16.2556 24.4456C17.3985 19.8916 22.0438 17.1201 26.6293 18.2553C31.216 19.3906 34.0069 24.0034 32.8635 28.5572Z" fill="#F7931A"/>
<path d="M28.3341 25.2901C28.5045 24.1591 27.6372 23.5511 26.4512 23.1455L26.8359 21.6134L25.8966 21.381L25.5221 22.8727C25.2751 22.8116 25.0215 22.754 24.7695 22.6969L25.1467 21.1953L24.2079 20.9629L23.8229 22.4945C23.6185 22.4482 23.4179 22.4026 23.2231 22.3545L23.2242 22.3497L21.9288 22.0286L21.6789 23.0246C21.6789 23.0246 22.3758 23.1832 22.3611 23.193C22.7415 23.2873 22.8103 23.5373 22.7988 23.7354L22.3606 25.4808C22.3868 25.4875 22.4208 25.497 22.4582 25.5119C22.4269 25.5042 22.3935 25.4957 22.359 25.4875L21.7447 27.9325C21.6981 28.0473 21.5802 28.2194 21.3142 28.154C21.3236 28.1676 20.6315 27.9848 20.6315 27.9848L20.1652 29.0524L21.3875 29.3549C21.6149 29.4115 21.8378 29.4707 22.0572 29.5265L21.6685 31.0761L22.6067 31.3086L22.9917 29.7754C23.248 29.8445 23.4968 29.9082 23.7403 29.9682L23.3566 31.4942L24.2959 31.7266L24.6847 30.1799C26.2864 30.4809 27.4909 30.3595 27.9978 28.9212C28.4064 27.763 27.9775 27.095 27.1348 26.6594C27.7485 26.5189 28.2108 26.1181 28.3341 25.2901ZM26.1879 28.2781C25.8977 29.4362 23.9337 28.8101 23.2969 28.6531L23.8128 26.6002C24.4495 26.7579 26.4913 27.0703 26.1879 28.2781ZM26.4785 25.2734C26.2136 26.3268 24.579 25.7916 24.0487 25.6604L24.5164 23.7984C25.0466 23.9296 26.7543 24.1745 26.4785 25.2734Z" fill="white"/>
<path d="M41.0876 23.1437C41.7819 23.1437 42.3817 23.2672 42.8857 23.5097C43.3922 23.7546 43.8101 24.0845 44.1453 24.4994C44.476 24.9165 44.7221 25.4039 44.881 25.9625C45.0389 26.5227 45.118 27.1248 45.118 27.7695C45.118 28.7597 44.9353 29.6953 44.5664 30.5771C44.1975 31.4603 43.6969 32.2263 43.0602 32.8798C42.424 33.5324 41.6727 34.0469 40.8064 34.427C39.9415 34.8074 39.0011 34.9976 37.9914 34.9976C37.8608 34.9976 37.6313 34.9939 37.307 34.9872C36.9828 34.9806 36.6101 34.9474 36.1928 34.8913C35.7727 34.8331 35.3286 34.7471 34.8596 34.6318C34.3909 34.5187 33.9457 34.3601 33.5265 34.1587L37.2752 18.5201L40.6328 18.0034L39.2906 23.553C39.5779 23.4245 39.8674 23.3249 40.1563 23.2523C40.4455 23.1809 40.7559 23.1437 41.0876 23.1437ZM38.2712 32.353C38.7769 32.353 39.2534 32.2295 39.701 31.987C40.1499 31.7442 40.5373 31.4165 40.8618 31.0082C41.1863 30.5981 41.4432 30.1362 41.6304 29.6201C41.8177 29.104 41.9124 28.5656 41.9124 28.0054C41.9124 27.3171 41.7966 26.7803 41.5657 26.3923C41.3348 26.0058 40.9076 25.8113 40.2871 25.8113C40.0838 25.8113 39.8219 25.8499 39.4971 25.9186C39.1712 25.9917 38.8796 26.1434 38.6182 26.3715L37.1891 32.2651C37.2752 32.2803 37.3515 32.2946 37.4165 32.3082C37.4801 32.3228 37.5505 32.3331 37.6206 32.3403C37.6947 32.3485 37.7795 32.3528 37.882 32.3528C37.9845 32.3528 38.1126 32.353 38.2712 32.353Z" fill="white"/>
<path d="M48.6 34.6985H45.3931L48.1013 23.3839H51.3302L48.6 34.6985ZM50.1606 22.0053C49.713 22.0053 49.3071 21.873 48.947 21.6079C48.584 21.3444 48.4042 20.9388 48.4042 20.3922C48.4042 20.0915 48.4657 19.8094 48.5877 19.5433C48.7116 19.2776 48.8734 19.049 49.0762 18.8545C49.2788 18.6617 49.5134 18.5076 49.7799 18.3915C50.0479 18.2773 50.3331 18.2202 50.6371 18.2202C51.0844 18.2202 51.4881 18.3525 51.8495 18.6176C52.2096 18.884 52.3908 19.2896 52.3908 19.8333C52.3908 20.1351 52.3295 20.4182 52.2064 20.6838C52.0842 20.9495 51.9223 21.1782 51.7195 21.3726C51.5186 21.5657 51.2818 21.7192 51.0159 21.8342C50.7475 21.9503 50.4634 22.0053 50.1606 22.0053Z" fill="white"/>
<path d="M54.1407 20.5645L57.4996 20.0479L56.6748 23.383H60.2721L59.6225 26.0068H56.0469L55.0945 29.9645C55.0067 30.2944 54.9569 30.6026 54.943 30.8889C54.9273 31.1766 54.9639 31.4236 55.0506 31.6316C55.1367 31.8401 55.2916 32.0008 55.5164 32.1145C55.74 32.23 56.0603 32.2882 56.4803 32.2882C56.8262 32.2882 57.1633 32.2555 57.4892 32.1907C57.8132 32.127 58.1414 32.0382 58.4737 31.9222L58.7129 34.3754C58.2795 34.5332 57.8102 34.669 57.3046 34.7832C56.7981 34.899 56.1986 34.9548 55.5057 34.9548C54.5094 34.9548 53.737 34.8079 53.1867 34.5154C52.6371 34.2209 52.2487 33.8184 52.0162 33.309C51.7869 32.8014 51.6844 32.2162 51.7131 31.5569C51.7428 30.8961 51.8431 30.2015 52.0162 29.47L54.1407 20.5645Z" fill="white"/>
<path d="M60.1309 30.1799C60.1309 29.2053 60.2898 28.2863 60.6073 27.4259C60.9244 26.5648 61.3811 25.8118 61.9737 25.1655C62.5641 24.5224 63.2835 24.013 64.1303 23.639C64.973 23.2671 65.9166 23.0796 66.9565 23.0796C67.6074 23.0796 68.1888 23.1407 68.7003 23.2631C69.214 23.3867 69.6787 23.5463 70.099 23.7466L68.993 26.2434C68.7041 26.1271 68.4042 26.0245 68.0941 25.9316C67.7837 25.8367 67.4049 25.791 66.9568 25.791C65.8864 25.791 65.0402 26.1573 64.4104 26.8875C63.783 27.6183 63.467 28.6018 63.467 29.8357C63.467 30.5669 63.626 31.1582 63.9449 31.6105C64.2622 32.0629 64.8483 32.2879 65.6994 32.2879C66.1194 32.2879 66.5247 32.2443 66.9129 32.1593C67.3041 32.0732 67.6494 31.9649 67.9536 31.8368L68.1931 34.3964C67.7875 34.5526 67.3402 34.6936 66.8495 34.8171C66.3578 34.9364 65.7724 34.9983 65.0937 34.9983C64.1977 34.9983 63.4392 34.8681 62.8188 34.6118C62.1981 34.3515 61.6852 34.0059 61.2813 33.5682C60.8751 33.1294 60.5835 32.617 60.4032 32.0289C60.2229 31.4413 60.1309 30.824 60.1309 30.1799Z" fill="white"/>
<path d="M74.3772 34.9983C73.6118 34.9983 72.9469 34.8825 72.383 34.6532C71.8206 34.424 71.3548 34.1023 70.9864 33.6853C70.6175 33.2704 70.3414 32.7787 70.1522 32.2122C69.9631 31.6459 69.8721 31.0187 69.8721 30.3316C69.8721 29.4696 70.0115 28.608 70.2932 27.7487C70.5736 26.8875 70.9896 26.1138 71.5402 25.4261C72.0865 24.7373 72.7605 24.1742 73.554 23.7351C74.3467 23.299 75.2584 23.0796 76.2826 23.0796C77.0341 23.0796 77.6954 23.1957 78.2672 23.4249C78.8362 23.6536 79.3049 23.9779 79.6755 24.3928C80.042 24.8098 80.3205 25.2994 80.5078 25.8668C80.6964 26.432 80.7895 27.0607 80.7895 27.7484C80.7895 28.6077 80.652 29.4694 80.3791 30.3313C80.1059 31.189 79.7006 31.9646 79.1656 32.6539C78.6315 33.3416 77.9638 33.9044 77.1617 34.3417C76.3607 34.7789 75.4318 34.9983 74.3772 34.9983ZM75.98 25.7913C75.5046 25.7913 75.0843 25.9284 74.7244 26.199C74.3633 26.4729 74.0599 26.8171 73.8153 27.2323C73.5681 27.6493 73.3849 28.1041 73.261 28.5984C73.1382 29.0938 73.078 29.5621 73.078 30.007C73.078 30.725 73.1947 31.2841 73.4239 31.6865C73.6564 32.0868 74.0741 32.2881 74.6811 32.2881C75.1581 32.2881 75.5763 32.1521 75.9383 31.8785C76.2973 31.6068 76.601 31.2623 76.8474 30.8463C77.093 30.4314 77.2778 29.9754 77.4017 29.4803C77.5229 28.9865 77.5847 28.5155 77.5847 28.0714C77.5847 27.3553 77.4686 26.7948 77.2371 26.3929C77.006 25.9927 76.5865 25.7913 75.98 25.7913Z" fill="white"/>
<path d="M84.2841 34.6985H81.0745L83.7827 23.3839H87.0132L84.2841 34.6985ZM85.8422 22.0053C85.3949 22.0053 84.9893 21.873 84.6297 21.6079C84.2686 21.3444 84.0872 20.9388 84.0872 20.3922C84.0872 20.0915 84.1495 19.8094 84.2718 19.5433C84.394 19.2776 84.557 19.049 84.7598 18.8545C84.9612 18.6617 85.198 18.5076 85.4639 18.3915C85.7304 18.2773 86.0156 18.2202 86.3184 18.2202C86.7668 18.2202 87.1719 18.3525 87.5325 18.6176C87.8934 18.884 88.0756 19.2896 88.0756 19.8333C88.0756 20.1351 88.0109 20.4182 87.8897 20.6838C87.7685 20.9495 87.6055 21.1782 87.4036 21.3726C87.2002 21.5657 86.9664 21.7192 86.6999 21.8342C86.4313 21.9503 86.1467 22.0053 85.8422 22.0053Z" fill="white"/>
<path d="M89.3245 23.8984C89.5679 23.8277 89.8397 23.7427 90.1354 23.6503C90.4321 23.5579 90.7635 23.4718 91.1338 23.3943C91.5001 23.3143 91.9134 23.2495 92.368 23.1993C92.8225 23.148 93.3405 23.123 93.9159 23.123C95.6073 23.123 96.7732 23.6121 97.4169 24.5872C98.0601 25.5622 98.1714 26.8967 97.754 28.5882L96.2788 34.6975H93.0507L94.4804 28.7168C94.5677 28.3433 94.6361 27.9823 94.6867 27.6296C94.7378 27.28 94.7349 26.9719 94.6752 26.7052C94.6182 26.4417 94.4839 26.226 94.2755 26.059C94.0639 25.8945 93.7442 25.8119 93.3105 25.8119C92.8923 25.8119 92.4669 25.8566 92.0327 25.9426L89.9307 34.6972H86.7013L89.3245 23.8984Z" fill="white"/>
</g>
<defs>
<clipPath id="clip0_20_1809">
<rect width="82" height="17" fill="white" transform="translate(16 18)"/>
</clipPath>
</defs>
</svg>
