<svg width="114" height="54" viewBox="0 0 114 54" fill="none" xmlns="http://www.w3.org/2000/svg">
<rect width="114" height="54" rx="8" fill="#0B1423"/>
<path d="M21.2376 23.5502V26.1934H25.5732V28.6505H21.2376V31.5171H26.1412V34.0672H18V21H26.1412V23.5502H21.2376Z" fill="white"/>
<path d="M27.5994 28.8738C27.5994 27.7942 27.8203 26.8511 28.262 26.0445C28.7164 25.2378 29.3412 24.6174 30.1364 24.183C30.9442 23.7487 31.8656 23.5315 32.9006 23.5315C34.2259 23.5315 35.3304 23.8728 36.2139 24.5553C37.1101 25.2378 37.697 26.1996 37.9747 27.4405H34.5289C34.2386 26.6463 33.6769 26.2492 32.8438 26.2492C32.2506 26.2492 31.7773 26.4788 31.4238 26.938C31.0704 27.3847 30.8937 28.03 30.8937 28.8738C30.8937 29.7177 31.0704 30.3692 31.4238 30.8283C31.7773 31.2751 32.2506 31.4984 32.8438 31.4984C33.6769 31.4984 34.2386 31.1013 34.5289 30.3071H37.9747C37.697 31.5233 37.1101 32.4788 36.2139 33.1737C35.3178 33.8687 34.2133 34.2161 32.9006 34.2161C31.8656 34.2161 30.9442 33.999 30.1364 33.5646C29.3412 33.1303 28.7164 32.5098 28.262 31.7032C27.8203 30.8966 27.5994 29.9535 27.5994 28.8738Z" fill="white"/>
<path d="M44.5155 34.2161C43.4805 34.2161 42.5464 33.999 41.7134 33.5646C40.893 33.1303 40.2429 32.5098 39.7633 31.7032C39.2963 30.8966 39.0628 29.9535 39.0628 28.8738C39.0628 27.8066 39.3026 26.8697 39.7822 26.0631C40.2618 25.2441 40.9182 24.6174 41.7513 24.183C42.5843 23.7487 43.5183 23.5315 44.5533 23.5315C45.5884 23.5315 46.5224 23.7487 47.3554 24.183C48.1885 24.6174 48.8448 25.2441 49.3245 26.0631C49.8041 26.8697 50.0439 27.8066 50.0439 28.8738C50.0439 29.9411 49.7978 30.8842 49.3056 31.7032C48.8259 32.5098 48.1633 33.1303 47.3176 33.5646C46.4845 33.999 45.5505 34.2161 44.5155 34.2161ZM44.5155 31.4612C45.134 31.4612 45.6578 31.2378 46.0869 30.7911C46.5287 30.3444 46.7496 29.7053 46.7496 28.8738C46.7496 28.0424 46.535 27.4033 46.1059 26.9566C45.6893 26.5098 45.1718 26.2865 44.5533 26.2865C43.9222 26.2865 43.3984 26.5098 42.9819 26.9566C42.5654 27.3909 42.3571 28.03 42.3571 28.8738C42.3571 29.7053 42.5591 30.3444 42.963 30.7911C43.3795 31.2378 43.897 31.4612 44.5155 31.4612Z" fill="white"/>
<path d="M61.8907 25.2068C61.8907 25.9638 61.714 26.6587 61.3606 27.2916C61.0072 27.9121 60.4644 28.4147 59.7324 28.7994C59.0003 29.1841 58.0915 29.3764 57.006 29.3764H54.9991V34.0672H51.7615V21H57.006C58.0662 21 58.9624 21.1799 59.6945 21.5398C60.4266 21.8997 60.9756 22.3961 61.3417 23.029C61.7077 23.6618 61.8907 24.3878 61.8907 25.2068ZM56.7599 26.8449C57.3783 26.8449 57.839 26.7022 58.142 26.4168C58.4449 26.1313 58.5964 25.728 58.5964 25.2068C58.5964 24.6856 58.4449 24.2823 58.142 23.9969C57.839 23.7115 57.3783 23.5688 56.7599 23.5688H54.9991V26.8449H56.7599Z" fill="white"/>
<path d="M62.9325 28.8552C62.9325 27.788 63.1344 26.8511 63.5383 26.0445C63.9549 25.2378 64.5166 24.6174 65.2234 24.183C65.9302 23.7487 66.7191 23.5315 67.59 23.5315C68.3347 23.5315 68.9848 23.6805 69.5401 23.9783C70.1081 24.2761 70.5436 24.667 70.8465 25.151V23.6805H74.0841V34.0672H70.8465V32.5967C70.531 33.0807 70.0892 33.4716 69.5212 33.7694C68.9658 34.0672 68.3158 34.2161 67.5711 34.2161C66.7128 34.2161 65.9302 33.999 65.2234 33.5646C64.5166 33.1179 63.9549 32.4912 63.5383 31.6846C63.1344 30.8656 62.9325 29.9224 62.9325 28.8552ZM70.8465 28.8738C70.8465 28.0796 70.6193 27.4529 70.1649 26.9938C69.7232 26.5346 69.1804 26.3051 68.5367 26.3051C67.8929 26.3051 67.3439 26.5346 66.8895 26.9938C66.4477 27.4405 66.2268 28.061 66.2268 28.8552C66.2268 29.6494 66.4477 30.2823 66.8895 30.7539C67.3439 31.213 67.8929 31.4426 68.5367 31.4426C69.1804 31.4426 69.7232 31.213 70.1649 30.7539C70.6193 30.2947 70.8465 29.668 70.8465 28.8738Z" fill="white"/>
<path d="M87.2182 23.6805L80.5916 39H77.1079L79.5313 33.7135L75.2335 23.6805H78.8497L81.2921 30.1768L83.7155 23.6805H87.2182Z" fill="white"/>
<path d="M91.4182 31.4426H96V34.0672H87.802V31.5357L92.1945 26.3051H87.8398V23.6805H95.9053V26.212L91.4182 31.4426Z" fill="white"/>
</svg>
