<svg width="114" height="54" viewBox="0 0 114 54" fill="none" xmlns="http://www.w3.org/2000/svg">
<rect width="114" height="54" rx="8" fill="#0B1423"/>
<path d="M40.606 46.91V44.189C40.606 43.1482 39.9695 42.4666 38.8768 42.4666C38.3305 42.4666 37.7364 42.6462 37.328 43.238C37.0097 42.7413 36.5535 42.4666 35.8693 42.4666C35.4131 42.4666 34.957 42.604 34.5963 43.1006V42.5564H33.6415V46.91H34.5963V44.506C34.5963 43.7346 35.0047 43.3701 35.6412 43.3701C36.2777 43.3701 36.596 43.7769 36.596 44.506V46.91H37.5507V44.506C37.5507 43.7346 38.0069 43.3701 38.5957 43.3701C39.2322 43.3701 39.5504 43.7769 39.5504 44.506V46.91H40.606ZM54.7683 42.5564H53.2195V41.2408H52.2647V42.5564H51.4001V43.4176H52.2647V45.4148C52.2647 46.4134 52.6731 46.9998 53.7658 46.9998C54.1742 46.9998 54.6304 46.8625 54.9487 46.6828L54.6728 45.8639C54.397 46.0435 54.0788 46.0911 53.8507 46.0911C53.3945 46.0911 53.2142 45.8163 53.2142 45.3672V43.4176H54.763V42.5564H54.7683ZM62.8732 42.4613C62.3269 42.4613 61.9609 42.736 61.7328 43.0953V42.5511H60.778V46.9047H61.7328V44.4532C61.7328 43.7293 62.051 43.3172 62.6451 43.3172C62.8255 43.3172 63.0535 43.3648 63.2392 43.4071L63.515 42.4983C63.3241 42.4613 63.0535 42.4613 62.8732 42.4613ZM50.6257 42.9157C50.1695 42.5987 49.533 42.4613 48.8488 42.4613C47.7561 42.4613 47.0294 43.0055 47.0294 43.8667C47.0294 44.5906 47.5758 45.0027 48.5305 45.1348L48.9867 45.1823C49.4853 45.2721 49.7611 45.4095 49.7611 45.6367C49.7611 45.9537 49.3951 46.1809 48.7586 46.1809C48.1221 46.1809 47.6182 45.9537 47.2999 45.7265L46.8438 46.4503C47.3424 46.8149 48.0266 46.9946 48.7109 46.9946C49.9839 46.9946 50.7159 46.4028 50.7159 45.5891C50.7159 44.8177 50.1218 44.4109 49.2148 44.2735L48.7586 44.226C48.3502 44.1784 48.0319 44.0886 48.0319 43.8192C48.0319 43.5022 48.3502 43.3225 48.8541 43.3225C49.4004 43.3225 49.9468 43.5497 50.2226 43.6871L50.6257 42.9157ZM76.0277 42.4613C75.4814 42.4613 75.1154 42.736 74.8873 43.0953V42.5511H73.9325V46.9047H74.8873V44.4532C74.8873 43.7293 75.2056 43.3172 75.7996 43.3172C75.98 43.3172 76.2081 43.3648 76.3937 43.4071L76.6695 42.5089C76.4839 42.4613 76.2134 42.4613 76.0277 42.4613ZM63.828 44.7332C63.828 46.0488 64.7403 46.9998 66.1512 46.9998C66.7877 46.9998 67.2439 46.8625 67.7001 46.5032L67.2439 45.7318C66.8779 46.0065 66.5172 46.1386 66.1035 46.1386C65.3291 46.1386 64.7827 45.5944 64.7827 44.7332C64.7827 43.9143 65.3291 43.3701 66.1035 43.3278C66.5119 43.3278 66.8779 43.4652 67.2439 43.7346L67.7001 42.9632C67.2439 42.5987 66.7877 42.4666 66.1512 42.4666C64.7403 42.4613 63.828 43.4176 63.828 44.7332ZM72.6595 44.7332V42.5564H71.7048V43.1006C71.3865 42.6938 70.9303 42.4666 70.3363 42.4666C69.1057 42.4666 68.1509 43.4176 68.1509 44.7332C68.1509 46.0488 69.1057 46.9998 70.3363 46.9998C70.9728 46.9998 71.4289 46.7726 71.7048 46.3658V46.91H72.6595V44.7332ZM69.1534 44.7332C69.1534 43.9618 69.652 43.3278 70.4742 43.3278C71.2486 43.3278 71.7949 43.9196 71.7949 44.7332C71.7949 45.5046 71.2486 46.1386 70.4742 46.1386C69.6573 46.0911 69.1534 45.4993 69.1534 44.7332ZM57.7281 42.4613C56.4551 42.4613 55.5427 43.3701 55.5427 44.7279C55.5427 46.0911 56.4551 46.9946 57.7758 46.9946C58.4123 46.9946 59.0488 46.8149 59.5527 46.4028L59.0966 45.7212C58.7306 45.996 58.2744 46.1756 57.8236 46.1756C57.2295 46.1756 56.6407 45.9009 56.5028 45.1348H59.7331C59.7331 44.9974 59.7331 44.9076 59.7331 44.7702C59.7755 43.3701 58.9534 42.4613 57.7281 42.4613ZM57.7281 43.2802C58.3222 43.2802 58.7306 43.6448 58.8208 44.3211H56.5452C56.6354 43.7346 57.0438 43.2802 57.7281 43.2802ZM81.4487 44.7332V40.834H80.4939V43.1006C80.1756 42.6938 79.7195 42.4666 79.1254 42.4666C77.8948 42.4666 76.9401 43.4176 76.9401 44.7332C76.9401 46.0488 77.8948 46.9998 79.1254 46.9998C79.7619 46.9998 80.2181 46.7726 80.4939 46.3658V46.91H81.4487V44.7332ZM77.9426 44.7332C77.9426 43.9618 78.4412 43.3278 79.2633 43.3278C80.0377 43.3278 80.5841 43.9196 80.5841 44.7332C80.5841 45.5046 80.0377 46.1386 79.2633 46.1386C78.4412 46.0911 77.9426 45.4993 77.9426 44.7332ZM45.9792 44.7332V42.5564H45.0244V43.1006C44.7062 42.6938 44.25 42.4666 43.6559 42.4666C42.4253 42.4666 41.4706 43.4176 41.4706 44.7332C41.4706 46.0488 42.4253 46.9998 43.6559 46.9998C44.2924 46.9998 44.7486 46.7726 45.0244 46.3658V46.91H45.9792V44.7332ZM42.4306 44.7332C42.4306 43.9618 42.9292 43.3278 43.7514 43.3278C44.5258 43.3278 45.0722 43.9196 45.0722 44.7332C45.0722 45.5046 44.5258 46.1386 43.7514 46.1386C42.9292 46.0911 42.4306 45.4993 42.4306 44.7332Z" fill="white"/>
<path d="M64.6501 9.49219H50.3074V35.1595H64.6501V9.49219Z" fill="#FF5A00"/>
<path d="M51.2622 22.326C51.2622 17.1112 53.7234 12.4829 57.5 9.4924C54.7206 7.31559 51.2145 6 47.3901 6C38.3305 6 31 13.3018 31 22.326C31 31.3503 38.3305 38.6521 47.3901 38.6521C51.2145 38.6521 54.7206 37.3365 57.5 35.1597C53.7181 32.2115 51.2622 27.5408 51.2622 22.326Z" fill="#EB001B"/>
<path d="M84 22.326C84 31.3503 76.6695 38.6521 67.6099 38.6521C63.7855 38.6521 60.2794 37.3365 57.5 35.1597C61.3244 32.1639 63.7378 27.5408 63.7378 22.326C63.7378 17.1112 61.2766 12.4829 57.5 9.4924C60.2741 7.31559 63.7802 6 67.6046 6C76.6695 6 84 13.3494 84 22.326Z" fill="#F79E1B"/>
</svg>
