<svg width="114" height="54" viewBox="0 0 114 54" fill="none" xmlns="http://www.w3.org/2000/svg">
<rect width="114" height="54" rx="8" fill="#0B1423"/>
<path d="M15.9348 35.612V20.4937C15.9348 19.1254 17.0268 18.1327 18.5011 18.1327C19.9753 18.1327 20.8353 18.6961 21.4905 19.9437L25.3535 27.4961H25.4081V18.4144H29.7353V33.3852C29.7353 34.9547 28.534 35.8937 27.442 35.8937C26.3227 35.8937 25.5037 35.3839 24.3571 33.1974L20.3302 25.5376H20.2756V35.5986H15.9348V35.612ZM37.5979 30.89L35.9735 28.3413L39.4543 26.0608C38.8127 25.6583 38.3077 25.6047 37.8163 25.6047C36.069 25.6047 35.1135 27.3888 35.1135 28.9181C35.1135 30.5144 36.2601 32.1778 37.9801 32.1778C39.5771 32.1778 41.1333 30.7693 41.7748 29.2803L44.8189 30.8498C43.604 33.7742 40.8876 35.8937 37.6798 35.8937C34.1307 35.8937 31.0184 32.8352 31.0184 29.1327C31.0184 25.4169 34.117 22.3717 37.6798 22.3717C40.6555 22.3717 42.6075 23.9681 43.9998 26.49L37.5979 30.89ZM48.914 29.1327C48.914 27.6437 50.006 26.3961 51.4939 26.3961C52.9818 26.3961 54.0738 27.6437 54.0738 29.1327C54.0738 30.6217 52.9818 31.8693 51.4939 31.8693C50.006 31.8693 48.914 30.6217 48.914 29.1327ZM44.8189 29.1327C44.8189 32.8486 47.9311 35.8937 51.4939 35.8937C55.0566 35.8937 58.1689 32.8352 58.1689 29.1327C58.1689 25.4169 55.0566 22.3717 51.4939 22.3717C47.9311 22.3717 44.8189 25.4169 44.8189 29.1327ZM59.0425 31.923H63.0693C63.5607 31.923 63.8064 31.6815 63.8064 31.3461C63.8064 30.1388 59.179 30.5949 59.179 26.3827C59.179 23.9815 61.2675 22.7742 63.2604 22.7742H67.3282V26.1681H64.0522C63.5607 26.1681 63.1922 26.423 63.1922 26.7717C63.1922 27.7913 68.079 28.0461 68.079 31.4669C68.079 34.0559 66.4546 35.4644 63.7109 35.4644H59.0288V31.923H59.0425ZM73.5118 30.112C73.5118 31.212 74.0715 31.8961 74.986 31.8961C75.9006 31.8961 76.4603 31.212 76.4603 30.112V22.7876H80.5963V30.112C80.5963 33.4254 78.6443 35.9071 74.986 35.9071C71.3414 35.9071 69.3758 33.4388 69.3758 30.112V22.7876H73.5118V30.112ZM85.5104 24.9071H85.565C86.193 23.1095 87.3942 22.7876 89.2097 22.7876V26.5974C86.3158 26.7047 86.0564 27.3217 86.0564 29.5217V35.4778H81.8795V22.7876H85.5104V24.9071ZM90.0833 35.4778V21.862C90.0833 19.2327 92.1581 17.2876 95.4342 17.2876H97.8367V21.0839H95.8164C94.7244 21.0839 94.4514 21.6876 94.4514 22.7474H96.9903V26.5437H94.4514V35.4778H90.0833Z" fill="#FF3399"/>
</svg>
