<svg width="114" height="54" viewBox="0 0 114 54" fill="none" xmlns="http://www.w3.org/2000/svg">
<rect width="114" height="54" rx="8" fill="#0B1423"/>
<path d="M33.6006 17.9569C32.6676 17.3195 31.45 17 29.948 17H24.1329C23.6724 17 23.4181 17.2289 23.3697 17.686L21.0074 32.422C20.9829 32.5667 21.0193 32.6991 21.1164 32.8194C21.2129 32.9401 21.3344 33 21.4798 33H24.2419C24.7264 33 24.9926 32.7717 25.0415 32.3138L25.6956 28.3411C25.7195 28.1486 25.8047 27.992 25.9501 27.8715C26.0954 27.7511 26.2772 27.6723 26.4952 27.6363C26.7133 27.6005 26.9189 27.5825 27.1131 27.5825C27.3067 27.5825 27.5368 27.5947 27.8037 27.6186C28.07 27.6427 28.2398 27.6544 28.3125 27.6544C30.3961 27.6544 32.0316 27.071 33.219 25.9028C34.4059 24.7352 35 23.1159 35 21.0449C35 19.6243 34.5332 18.5949 33.6006 17.9565V17.9569ZM30.6023 22.3817C30.4808 23.2246 30.1662 23.7781 29.6574 24.0431C29.1485 24.3084 28.4216 24.4402 27.4768 24.4402L26.2774 24.4764L26.8954 20.6117C26.9436 20.347 27.101 20.2146 27.3677 20.2146H28.0585C29.0272 20.2146 29.7303 20.3533 30.1664 20.6298C30.6023 20.9069 30.7477 21.4911 30.6023 22.3817Z" fill="#2871F5"/>
<path d="M93.5297 17H90.8554C90.5898 17 90.4333 17.1325 90.3856 17.3973L88.0362 32.4222L88 32.4944C88 32.6154 88.0483 32.7292 88.1448 32.8376C88.2407 32.9457 88.3617 33 88.5062 33H90.8918C91.3489 33 91.602 32.7717 91.6508 32.3139L94 17.5418V17.5059C93.9998 17.1689 93.8427 17.0003 93.5297 17.0003V17Z" fill="#5FCFFF"/>
<path d="M62 22.4912C62 22.3745 61.9527 22.2632 61.859 22.1581C61.7645 22.0529 61.6585 22 61.541 22H58.8209C58.5613 22 58.3495 22.1175 58.1849 22.3508L54.4403 27.8247L52.8861 22.5615C52.7677 22.1875 52.5089 22 52.1088 22H49.459C49.341 22 49.235 22.0528 49.1413 22.1581C49.0469 22.2632 49 22.3746 49 22.4912C49 22.5384 49.2297 23.2281 49.6888 24.5614C50.1479 25.8949 50.6426 27.3335 51.1725 28.8775C51.7025 30.4212 51.9789 31.2402 52.0027 31.3332C50.0714 33.9533 49.106 35.3569 49.106 35.5438C49.106 35.8481 49.259 36 49.5653 36H52.2854C52.5444 36 52.7563 35.8833 52.9214 35.6492L61.9297 22.7366C61.9765 22.6901 62 22.6086 62 22.4911V22.4912Z" fill="#2871F5"/>
<path d="M87.5062 22.2485H84.6627C84.3132 22.2485 84.1019 22.6388 84.027 23.4195C83.3778 22.4737 82.1937 22 80.4724 22C78.6765 22 77.1486 22.6388 75.8893 23.9162C74.6295 25.1938 74 26.6961 74 28.4228C74 29.8187 74.4301 30.9304 75.2905 31.758C76.151 32.5866 77.3045 33 78.7517 33C79.4748 33 80.2105 32.8578 80.9588 32.5742C81.7071 32.2904 82.2928 31.9121 82.7175 31.4387C82.7175 31.4625 82.6921 31.5687 82.6427 31.7578C82.5924 31.9474 82.5678 32.0897 82.5678 32.1836C82.5678 32.5626 82.7295 32.7513 83.0543 32.7513H85.636C86.1092 32.7513 86.384 32.527 86.4586 32.0771L87.9927 22.816C88.0173 22.6741 87.98 22.5441 87.8805 22.4257C87.7803 22.3078 87.6559 22.2485 87.5062 22.2485ZM82.6238 29.2388C81.9878 29.8302 81.2208 30.1259 80.3229 30.1259C79.5993 30.1259 79.0137 29.9369 78.5645 29.5582C78.1153 29.1804 77.8908 28.66 77.8908 27.9968C77.8908 27.1222 78.2026 26.3826 78.8263 25.7793C79.4491 25.1761 80.2231 24.8745 81.146 24.8745C81.8438 24.8745 82.4238 25.0697 82.8856 25.4598C83.3467 25.8501 83.578 26.3885 83.578 27.0745C83.5779 27.926 83.2598 28.6477 82.6238 29.2388Z" fill="#5FCFFF"/>
<path d="M46.5418 22.2485H43.9015C43.5768 22.2485 43.3803 22.6388 43.3108 23.4195C42.6854 22.4737 41.5852 22 40.0103 22C38.3426 22 36.9238 22.6388 35.7544 23.9162C34.5846 25.1938 34 26.6961 34 28.4228C34 29.8187 34.3996 30.9304 35.1987 31.758C35.9978 32.5866 37.0687 33 38.4122 33C39.0604 33 39.7325 32.8578 40.4272 32.5742C41.122 32.2904 41.6779 31.9121 42.0948 31.4387C42.0019 31.7225 41.9558 31.971 41.9558 32.1836C41.9558 32.5626 42.1062 32.7513 42.4074 32.7513H44.8045C45.2443 32.7513 45.4993 32.527 45.5689 32.0771L46.9932 22.816C47.016 22.6741 46.9813 22.5441 46.889 22.4257C46.7963 22.3078 46.6807 22.2485 46.5418 22.2485ZM42.008 29.2564C41.4173 29.8367 40.6932 30.1259 39.8367 30.1259C39.1647 30.1259 38.6262 29.9369 38.2212 29.5582C37.8156 29.1804 37.6131 28.66 37.6131 27.9968C37.6131 27.1222 37.9025 26.3826 38.4818 25.7793C39.0604 25.1761 39.7784 24.8745 40.6357 24.8745C41.2839 24.8745 41.8224 25.0697 42.2513 25.4599C42.6794 25.8502 42.894 26.3886 42.894 27.0746C42.894 27.9498 42.5986 28.6774 42.008 29.2564Z" fill="#2871F5"/>
<path d="M73.6009 17.9569C72.668 17.3195 71.4506 17 69.9484 17H64.1694C63.6846 17 63.4179 17.2289 63.3699 17.686L61.0074 32.422C60.9829 32.5668 61.0192 32.6992 61.1164 32.8195C61.2125 32.9401 61.3344 33 61.4798 33H64.4599C64.7506 33 64.9444 32.8437 65.0415 32.5306L65.6958 28.3411C65.7198 28.1486 65.8047 27.992 65.9502 27.8715C66.0956 27.7511 66.2771 27.6724 66.4954 27.6363C66.7134 27.6005 66.9189 27.5825 67.1133 27.5825C67.307 27.5825 67.537 27.5947 67.8036 27.6186C68.0701 27.6427 68.2403 27.6544 68.3124 27.6544C70.3965 27.6544 72.0317 27.071 73.2191 25.9028C74.4064 24.7352 75 23.1159 75 21.0449C75.0002 19.6244 74.5335 18.595 73.6009 17.9566V17.9569ZM69.8756 23.8986C69.3425 24.2597 68.5428 24.4402 67.4769 24.4402L66.3138 24.4764L66.9317 20.6117C66.9797 20.347 67.1371 20.2146 67.404 20.2146H68.058C68.5911 20.2146 69.015 20.2386 69.3305 20.2867C69.645 20.3352 69.9484 20.4853 70.2391 20.7381C70.5299 20.991 70.6752 21.3583 70.6752 21.8399C70.6752 22.8511 70.4084 23.5372 69.8756 23.8986Z" fill="#5FCFFF"/>
</svg>
