<svg width="114" height="48" viewBox="0 0 114 48" fill="none" xmlns="http://www.w3.org/2000/svg">
<rect width="114" height="48" rx="8" fill="#0B1423"/>
<path d="M47.5084 33.2641L50.7589 14.4711H55.9581L52.7052 33.2641H47.5084ZM71.4883 14.8762C70.4584 14.4955 68.8442 14.0869 66.8287 14.0869C61.6914 14.0869 58.0727 16.6357 58.042 20.2888C58.0128 22.9893 60.6254 24.4957 62.5973 25.3947C64.6211 26.3158 65.3013 26.9032 65.2918 27.7258C65.279 28.9854 63.6757 29.561 62.1814 29.561C60.1005 29.561 58.995 29.2761 57.2875 28.5745L56.6175 28.2759L55.8878 32.4829C57.1022 33.0075 59.3478 33.4619 61.6792 33.4854C67.1444 33.4854 70.6921 30.9658 70.7326 27.0648C70.752 24.9269 69.3669 23.3 66.3674 21.9587C64.5502 21.0894 63.4373 20.5092 63.4491 19.629C63.4491 18.8478 64.3911 18.0125 66.4264 18.0125C68.1266 17.9865 69.3583 18.3518 70.3178 18.7325L70.7837 18.9494L71.4883 14.8762ZM84.8672 14.4708H80.8498C79.6052 14.4708 78.6738 14.8056 78.1273 16.0293L70.4061 33.2517H75.8655C75.8655 33.2517 76.758 30.9359 76.9599 30.4276C77.5567 30.4276 82.8602 30.4356 83.6185 30.4356C83.774 31.0935 84.2509 33.2517 84.2509 33.2517H89.0753L84.8672 14.4702V14.4708ZM78.4932 26.6062C78.9231 25.5234 80.5647 21.3528 80.5647 21.3528C80.5339 21.4029 80.9913 20.2647 81.2539 19.5591L81.6052 21.1795C81.6052 21.1795 82.6009 25.6655 82.8089 26.6062H78.4932ZM43.0947 14.4708L38.0046 27.2868L37.4622 24.6823C36.5147 21.6801 33.5623 18.4275 30.2619 16.799L34.916 33.2342L40.4169 33.2281L48.6019 14.4706H43.0947" fill="white"/>
<path d="M33.2554 14.4701H24.8719L24.8055 14.8611C31.3277 16.4167 35.6433 20.176 37.4352 24.6925L35.6122 16.0563C35.2974 14.8664 34.3848 14.5113 33.2556 14.4697" fill="#F2AE14"/>
</svg>
