<svg width="16" height="18" viewBox="0 0 16 18" fill="none" xmlns="http://www.w3.org/2000/svg">
<path d="M5.61248 16.3111V13.763C5.61248 13.1126 6.14364 12.5853 6.79886 12.5853H9.19401C9.50865 12.5853 9.81041 12.7093 10.0329 12.9302C10.2554 13.1511 10.3804 13.4507 10.3804 13.763V16.3111C10.3784 16.5815 10.4852 16.8416 10.6771 17.0335C10.8691 17.2254 11.1302 17.3333 11.4026 17.3333H13.0367C13.7999 17.3353 14.5325 17.0357 15.0728 16.5007C15.6132 15.9656 15.9168 15.2392 15.9168 14.4815V7.22239C15.9168 6.61039 15.6436 6.02987 15.1707 5.63723L9.61185 1.2299C8.64488 0.45714 7.25942 0.48209 6.32132 1.28915L0.88934 5.63723C0.394113 6.0183 0.098123 6.60054 0.0834961 7.22239V14.4741C0.0834961 16.0532 1.37298 17.3333 2.96364 17.3333H4.5604C5.12618 17.3333 5.58599 16.8802 5.59009 16.3185L5.61248 16.3111Z" fill="#D8D5DE"/>
</svg>
