<svg width="13" height="13" viewBox="0 0 13 13" fill="none" xmlns="http://www.w3.org/2000/svg">
<path fill-rule="evenodd" clip-rule="evenodd" d="M6.5 12.5C9.81371 12.5 12.5 9.81371 12.5 6.5C12.5 3.18629 9.81371 0.5 6.5 0.5C3.18629 0.5 0.5 3.18629 0.5 6.5C0.5 9.81371 3.18629 12.5 6.5 12.5ZM7.5 3.5C7.5 2.94772 7.05228 2.5 6.5 2.5C5.94772 2.5 5.5 2.94772 5.5 3.5V6.5C5.5 6.76522 5.60536 7.01957 5.79289 7.20711L7.91421 9.32843C8.30474 9.71895 8.9379 9.71895 9.32843 9.32843C9.71895 8.9379 9.71895 8.30474 9.32843 7.91421L7.5 6.08579V3.5Z" fill="#77B9FF"/>
</svg>
