<svg width="30" height="30" viewBox="0 0 30 30" fill="none" xmlns="http://www.w3.org/2000/svg">
<path d="M15 26C21.0751 26 26 21.0751 26 15C26 8.92487 21.0751 4 15 4C8.92487 4 4 8.92487 4 15C4 21.0751 8.92487 26 15 26Z" fill="url(#paint0_linear_1_245)"/>
<path opacity="0.5" d="M22.7771 7.22294C21.5776 6.02345 20.1679 5.15746 18.6657 4.62778L4.62497 18.6685C5.15745 20.1679 6.02064 21.5776 7.22293 22.7771C8.42242 23.9766 9.8321 24.8426 11.3343 25.3722L25.375 11.3315C24.8426 9.83211 23.9794 8.42243 22.7771 7.22294Z" fill="white"/>
<path d="M23.7356 15C23.7356 19.8232 19.826 23.7355 15 23.7355C10.1768 23.7355 6.26447 19.826 6.26447 15C6.26447 10.174 10.1768 6.26445 15 6.26445C19.8232 6.26445 23.7356 10.1768 23.7356 15Z" fill="url(#paint1_linear_1_245)"/>
<path d="M22.7995 15C22.7995 19.3075 19.3075 22.7995 15 22.7995C10.6925 22.7995 7.2005 19.3075 7.2005 15C7.2005 10.6925 10.6925 7.20052 15 7.20052C19.3075 7.20052 22.7995 10.6925 22.7995 15Z" fill="url(#paint2_linear_1_245)"/>
<path d="M18.2594 11.0792V13.1447C17.4858 12.6963 16.6815 12.4693 15.8492 12.4693C15.4764 12.4693 15.1906 12.545 14.9944 12.6991C14.7982 12.8532 14.7001 13.0494 14.7001 13.2876C14.7001 13.5259 14.8206 13.7388 15.0588 13.9266C15.2971 14.1144 15.6558 14.3106 16.135 14.5208C16.4321 14.6553 16.6787 14.773 16.8749 14.8711C17.0711 14.972 17.2953 15.1093 17.5503 15.2859C17.8025 15.4624 18.0043 15.6502 18.1529 15.8464C18.3014 16.0425 18.4275 16.2836 18.534 16.5722C18.6405 16.8581 18.6909 17.1692 18.6909 17.5055C18.6909 18.2313 18.4583 18.8507 17.9959 19.3552C17.5307 19.8624 16.9029 20.1931 16.1098 20.3445V22.0092H14.375V20.3865C13.5819 20.3108 12.9205 20.1231 12.3936 19.826V17.6008C13.2652 18.2313 14.1929 18.548 15.1766 18.548C15.5101 18.548 15.7875 18.4611 16.0089 18.2818C16.2275 18.1052 16.3396 17.8726 16.3396 17.5867C16.3396 17.4915 16.3256 17.399 16.2976 17.3149C16.2695 17.228 16.2163 17.1467 16.1406 17.0711C16.065 16.9954 15.9893 16.931 15.9192 16.8777C15.8464 16.8245 15.7427 16.7628 15.6025 16.6899C15.4652 16.6171 15.3475 16.5582 15.2522 16.5106C15.1569 16.4629 15.0168 16.3957 14.829 16.3088C14.6413 16.2219 14.4927 16.1546 14.3778 16.107C13.7557 15.8211 13.2568 15.4652 12.8785 15.0448C12.5001 14.6245 12.3123 14.0639 12.3123 13.3661C12.3123 12.629 12.5562 12.0153 13.0438 11.522C13.5315 11.0288 14.2097 10.7317 15.0813 10.6252V8.97452H16.8329V10.6532C17.3317 10.7401 17.8109 10.8774 18.2594 11.0792Z" fill="url(#paint3_linear_1_245)"/>
<path d="M17.7885 10.6084V12.6739C17.015 12.2255 16.2107 11.9985 15.3783 11.9985C15.0056 11.9985 14.7197 12.0741 14.5236 12.2283C14.3274 12.3824 14.2293 12.5786 14.2293 12.8168C14.2293 13.055 14.3498 13.268 14.588 13.4558C14.8262 13.6436 15.185 13.8397 15.6642 14.0499C15.9613 14.1845 16.2079 14.3022 16.4041 14.4003C16.6002 14.5011 16.8245 14.6385 17.0795 14.815C17.3317 14.9916 17.5335 15.1794 17.682 15.3755C17.8306 15.5717 17.9567 15.8127 18.0632 16.1014C18.1697 16.3873 18.2201 16.6983 18.2201 17.0346C18.2201 17.7605 17.9875 18.3799 17.5251 18.8843C17.0599 19.3916 16.4321 19.7223 15.639 19.8736V21.5383H13.9042V19.9157C13.1111 19.84 12.4497 19.6522 11.9228 19.3552V17.1299C12.7944 17.7605 13.722 18.0772 14.7057 18.0772C15.0392 18.0772 15.3167 17.9903 15.5381 17.811C15.7595 17.6344 15.8688 17.4018 15.8688 17.1159C15.8688 17.0206 15.8548 16.9282 15.8267 16.8441C15.7987 16.7572 15.7455 16.6759 15.6698 16.6003C15.5941 16.5246 15.5185 16.4601 15.4484 16.4069C15.3755 16.3536 15.2718 16.292 15.1317 16.2191C14.9916 16.1462 14.8767 16.0874 14.7814 16.0397C14.6861 15.9921 14.546 15.9248 14.3582 15.838C14.1704 15.7511 14.0219 15.6838 13.907 15.6362C13.2848 15.3503 12.786 14.9944 12.4076 14.574C12.0293 14.1536 11.8415 13.5931 11.8415 12.8953C11.8415 12.1582 12.0853 11.5445 12.573 11.0512C13.0606 10.558 13.7388 10.2609 14.6104 10.1544V8.50369H16.362V10.1824C16.8609 10.2693 17.3401 10.4066 17.7885 10.6084Z" fill="url(#paint4_linear_1_245)"/>
<path opacity="0.5" d="M17.682 15.3783C17.5335 15.1822 17.3317 14.9972 17.0795 14.8178C16.8245 14.6413 16.6003 14.5011 16.4041 14.4031C16.2079 14.3022 15.9613 14.1845 15.6642 14.0527C15.185 13.8425 14.8262 13.6436 14.588 13.4586C14.3498 13.2708 14.2293 13.0606 14.2293 12.8196C14.2293 12.5786 14.3274 12.3852 14.5236 12.2311C14.7198 12.0769 15.0028 12.0013 15.3784 12.0013C16.2107 12.0013 17.015 12.2255 17.7885 12.6767V10.6112C17.3401 10.4094 16.8609 10.2721 16.3536 10.1964V9.90497L12.1078 14.148C12.1891 14.305 12.2843 14.4507 12.402 14.5824C12.7804 15.0028 13.2792 15.3559 13.9014 15.6446C14.0163 15.6922 14.1677 15.7595 14.3526 15.8464C14.5404 15.9332 14.6805 16.0005 14.7758 16.0482C14.8711 16.0958 14.9888 16.1546 15.1261 16.2275C15.2663 16.3004 15.3699 16.362 15.4428 16.4153C15.5129 16.4685 15.5885 16.533 15.6642 16.6087C15.7399 16.6843 15.7931 16.7656 15.8212 16.8525C15.8492 16.9394 15.8632 17.029 15.8632 17.1243C15.8632 17.4102 15.7539 17.6428 15.5325 17.8194C15.3111 17.9959 15.0364 18.0856 14.7001 18.0856C13.7136 18.0856 12.786 17.7689 11.9172 17.1383V19.3636C12.4273 19.6522 13.0663 19.8344 13.8285 19.9129L17.9315 15.8099C17.8586 15.6474 17.7745 15.5045 17.682 15.3783Z" fill="white"/>
<defs>
<linearGradient id="paint0_linear_1_245" x1="14.9999" y1="4" x2="14.9999" y2="26" gradientUnits="userSpaceOnUse">
<stop offset="0.00540541" stop-color="#FFDB32"/>
<stop offset="1" stop-color="#FCA32D"/>
</linearGradient>
<linearGradient id="paint1_linear_1_245" x1="15" y1="6.26529" x2="15" y2="23.7346" gradientUnits="userSpaceOnUse">
<stop offset="0.00540541" stop-color="#ED7600"/>
<stop offset="1" stop-color="#E33900"/>
</linearGradient>
<linearGradient id="paint2_linear_1_245" x1="15" y1="7.19953" x2="15" y2="22.8003" gradientUnits="userSpaceOnUse">
<stop offset="0.00540541" stop-color="#FFB61C"/>
<stop offset="1" stop-color="#F5811B"/>
</linearGradient>
<linearGradient id="paint3_linear_1_245" x1="15.4975" y1="8.98354" x2="15.4975" y2="22.0116" gradientUnits="userSpaceOnUse">
<stop offset="0.00540541" stop-color="#BA5D00"/>
<stop offset="1" stop-color="#B02C00"/>
</linearGradient>
<linearGradient id="paint4_linear_1_245" x1="15.0279" y1="8.51389" x2="15.0279" y2="21.5418" gradientUnits="userSpaceOnUse">
<stop offset="0.00540541" stop-color="#FFFC35"/>
<stop offset="1" stop-color="#FFC830"/>
</linearGradient>
</defs>
</svg>
