<svg width="19" height="18" viewBox="0 0 19 18" fill="none" xmlns="http://www.w3.org/2000/svg">
<path d="M8.34011 1.54964C8.88588 0.405895 10.5139 0.405897 11.0597 1.54964L12.6023 4.78244C12.8219 5.24274 13.2595 5.56067 13.7652 5.62732L17.3165 6.09545C18.5729 6.26107 19.076 7.80943 18.1569 8.68192L15.559 11.148C15.1891 11.4992 15.0219 12.0136 15.1148 12.5151L15.767 16.0372C15.9977 17.2833 14.6806 18.2402 13.5668 17.6357L10.4186 15.9271C9.97035 15.6838 9.42945 15.6838 8.9812 15.9271L5.83301 17.6357C4.7192 18.2402 3.40208 17.2833 3.63282 16.0372L4.28501 12.5151C4.37788 12.0136 4.21073 11.4992 3.84083 11.148L1.24295 8.68192C0.323838 7.80943 0.826933 6.26107 2.08335 6.09545L5.63461 5.62732C6.14026 5.56067 6.57786 5.24274 6.7975 4.78244L8.34011 1.54964Z" fill="#1D283A"/>
</svg>
