<svg width="19" height="18" viewBox="0 0 19 18" fill="none" xmlns="http://www.w3.org/2000/svg">
<path d="M8.14041 1.54965C8.68617 0.40591 10.3142 0.405913 10.86 1.54966L12.4026 4.78245C12.6222 5.24275 13.0598 5.56069 13.5655 5.62734L17.1168 6.09546C18.3732 6.26108 18.8763 7.80944 17.9571 8.68193L15.3593 11.148C14.9894 11.4992 14.8222 12.0136 14.9151 12.5151L15.5673 16.0372C15.798 17.2833 14.4809 18.2402 13.3671 17.6357L10.2189 15.9271C9.77065 15.6838 9.22974 15.6838 8.78149 15.9271L5.6333 17.6357C4.51949 18.2402 3.20238 17.2833 3.43312 16.0372L4.08531 12.5151C4.17817 12.0136 4.01102 11.4992 3.64112 11.148L1.04324 8.68193C0.124131 7.80944 0.627226 6.26108 1.88364 6.09546L5.43491 5.62734C5.94055 5.56069 6.37815 5.24275 6.59779 4.78245L8.14041 1.54965Z" fill="#FF9736"/>
</svg>
