<svg width="50" height="49" viewBox="0 0 50 49" fill="none" xmlns="http://www.w3.org/2000/svg">
<path d="M45.2084 17.2521C44.8959 17.3542 44.5834 17.4562 44.2709 17.5583C44.1667 17.5583 44.0625 17.5583 43.9584 17.6604C43.75 17.7625 43.4375 17.7625 43.2292 17.7625C43.125 17.7625 43.0209 17.7625 42.9167 17.7625C42.6042 17.7625 42.1875 17.8646 41.875 17.8646C36.3542 17.8646 31.875 13.475 31.875 8.06458C31.875 7.75833 31.875 7.35 31.9792 7.04375C31.9792 6.94167 31.9792 6.83958 31.9792 6.7375C31.9792 6.43125 32.0834 6.22708 32.0834 6.02292C32.0834 5.92083 32.0834 5.81875 32.1875 5.71667C32.2917 5.41042 32.3959 5.10417 32.5 4.79792C29.6875 3.57292 26.7709 3.0625 23.75 3.0625C10.9375 3.0625 0.520874 13.1687 0.520874 25.725C0.520874 38.2812 10.9375 48.4896 23.75 48.4896C36.5625 48.4896 46.875 38.2812 46.875 25.725C46.875 22.7646 46.3542 19.9062 45.2084 17.2521ZM19.375 34.8104H15.2084V20.4167H15.1042L11.5625 22.05L10.8334 18.8854L15.7292 16.6396H19.375V34.8104ZM29.4792 35.1167C24.7917 35.1167 22.6042 32.4625 22.6042 30.0125C22.6042 27.8687 23.8542 26.3375 25.9375 25.4187V25.3167C24.1667 24.3979 23.2292 22.9687 23.2292 21.3354C23.2292 18.2729 26.0417 16.2312 29.7917 16.2312C34.1667 16.2312 35.9375 18.6812 35.9375 20.9271C35.9375 22.4583 35.1042 23.9896 33.2292 24.9083V25.0104C35 25.725 36.6667 27.1542 36.6667 29.5021C36.5625 32.9729 33.75 35.1167 29.4792 35.1167Z" fill="url(#paint0_linear_27_4345)"/>
<path d="M29.8958 23.7852C30.9375 23.479 31.7708 22.5602 31.7708 21.4373C31.7708 20.3144 31.1458 19.1915 29.4791 19.1915C28.0208 19.1915 27.1875 20.1102 27.1875 21.3352C27.2916 22.5602 28.4375 23.3769 29.8958 23.7852ZM29.2708 26.9498C27.8125 27.3581 26.9791 28.379 26.9791 29.7061C26.9791 31.0331 28.0208 32.2581 29.5833 32.2581C31.1458 32.2581 32.0833 31.2373 32.0833 30.0123C32.1875 28.379 30.9375 27.3581 29.2708 26.9498ZM41.875 15.5165C43.125 15.5165 44.2708 15.2102 45.3125 14.6998C47.9166 13.3727 49.4791 10.8206 49.4791 8.06439C49.4791 3.98105 46.0416 0.612305 41.875 0.612305C38.9583 0.612305 36.3541 2.14355 35.1041 4.69564C34.5833 5.41022 34.375 6.22689 34.2708 7.14564C34.2708 7.45189 34.1666 7.75814 34.1666 8.06439C34.1666 12.1477 37.6041 15.5165 41.875 15.5165ZM36.7708 6.83939H40.625V3.0623H42.9166V6.83939H46.875V9.1873H43.0208V12.9644H40.625V9.1873H36.7708V6.83939Z" fill="url(#paint1_linear_27_4345)"/>
<defs>
<linearGradient id="paint0_linear_27_4345" x1="0.520874" y1="5.1919" x2="36.7736" y2="10.4088" gradientUnits="userSpaceOnUse">
<stop stop-color="#FF4646"/>
<stop offset="1" stop-color="#C2206E"/>
</linearGradient>
<linearGradient id="paint1_linear_27_4345" x1="26.9791" y1="2.0957" x2="44.7616" y2="3.87872" gradientUnits="userSpaceOnUse">
<stop stop-color="#FF4646"/>
<stop offset="1" stop-color="#C2206E"/>
</linearGradient>
</defs>
</svg>
