<svg width="37" height="37" viewBox="0 0 37 37" fill="none" xmlns="http://www.w3.org/2000/svg">
<path d="M33.4541 13.0271C33.2229 13.1042 32.9916 13.1813 32.7604 13.2583C32.6833 13.2583 32.6062 13.2583 32.5291 13.3354C32.375 13.4125 32.1437 13.4125 31.9895 13.4125C31.9125 13.4125 31.8354 13.4125 31.7583 13.4125C31.527 13.4125 31.2187 13.4896 30.9875 13.4896C26.902 13.4896 23.5875 10.175 23.5875 6.08958C23.5875 5.85833 23.5875 5.55 23.6645 5.31875C23.6645 5.24167 23.6645 5.16458 23.6645 5.0875C23.6645 4.85625 23.7416 4.70208 23.7416 4.54792C23.7416 4.47083 23.7416 4.39375 23.8187 4.31667C23.8958 4.08542 23.9729 3.85417 24.05 3.62292C21.9687 2.69792 19.8104 2.3125 17.575 2.3125C8.09371 2.3125 0.385376 9.94375 0.385376 19.425C0.385376 28.9062 8.09371 36.6146 17.575 36.6146C27.0562 36.6146 34.6875 28.9062 34.6875 19.425C34.6875 17.1896 34.302 15.0312 33.4541 13.0271ZM14.3375 26.2854H11.2541V15.4167H11.177L8.55621 16.65L8.01663 14.2604L11.6395 12.5646H14.3375V26.2854ZM21.8145 26.5167C18.3458 26.5167 16.727 24.5125 16.727 22.6625C16.727 21.0437 17.652 19.8875 19.1937 19.1937V19.1167C17.8833 18.4229 17.1895 17.3437 17.1895 16.1104C17.1895 13.7979 19.2708 12.2562 22.0458 12.2562C25.2833 12.2562 26.5937 14.1062 26.5937 15.8021C26.5937 16.9583 25.977 18.1146 24.5895 18.8083V18.8854C25.9 19.425 27.1333 20.5042 27.1333 22.2771C27.0562 24.8979 24.975 26.5167 21.8145 26.5167Z" fill="url(#paint0_linear_115_9720)"/>
<path d="M22.1229 17.9598C22.8938 17.7286 23.5104 17.0348 23.5104 16.1869C23.5104 15.339 23.0479 14.4911 21.8146 14.4911C20.7354 14.4911 20.1188 15.1848 20.1188 16.1098C20.1959 17.0348 21.0438 17.6515 22.1229 17.9598ZM21.6604 20.3494C20.5813 20.6577 19.9646 21.4286 19.9646 22.4307C19.9646 23.4327 20.7354 24.3577 21.8917 24.3577C23.0479 24.3577 23.7417 23.5869 23.7417 22.6619C23.8188 21.4286 22.8938 20.6577 21.6604 20.3494ZM30.9875 11.7161C31.9125 11.7161 32.7604 11.4848 33.5313 11.0994C35.4583 10.0973 36.6146 8.17025 36.6146 6.089C36.6146 3.00566 34.0709 0.461914 30.9875 0.461914C28.8292 0.461914 26.9021 1.61816 25.9771 3.54525C25.5917 4.08483 25.4375 4.7015 25.3604 5.39525C25.3604 5.6265 25.2833 5.85775 25.2833 6.089C25.2833 9.17233 27.8271 11.7161 30.9875 11.7161ZM27.2104 5.164H30.0625V2.31191H31.7584V5.164H34.6875V6.93691H31.8354V9.789H30.0625V6.93691H27.2104V5.164Z" fill="url(#paint1_linear_115_9720)"/>
<defs>
<linearGradient id="paint0_linear_115_9720" x1="0.385376" y1="3.92041" x2="27.234" y2="7.70675" gradientUnits="userSpaceOnUse">
<stop stop-color="#FF4646"/>
<stop offset="1" stop-color="#C2206E"/>
</linearGradient>
<linearGradient id="paint1_linear_115_9720" x1="19.9646" y1="1.58203" x2="33.1288" y2="2.87559" gradientUnits="userSpaceOnUse">
<stop stop-color="#FF4646"/>
<stop offset="1" stop-color="#C2206E"/>
</linearGradient>
</defs>
</svg>
