<svg width="202" height="52" viewBox="0 0 202 52" fill="none" xmlns="http://www.w3.org/2000/svg">
<path d="M66.418 24.0623H73.6104V28.9886H59.981V5.83489H66.418V24.0623Z" fill="white"/>
<path d="M87.214 29.2185C85.0464 29.2185 83.054 28.7149 81.2367 27.7077C79.4195 26.6787 77.9744 25.2665 76.9016 23.4711C75.8506 21.6538 75.3252 19.6067 75.3252 17.3296C75.3252 15.0526 75.8506 13.0164 76.9016 11.221C77.9744 9.40374 79.4195 7.99153 81.2367 6.98437C83.054 5.97721 85.0464 5.47363 87.214 5.47363C89.4035 5.47363 91.3959 5.97721 93.1913 6.98437C95.0085 7.99153 96.4426 9.40374 97.4936 11.221C98.5445 13.0164 99.07 15.0526 99.07 17.3296C99.07 19.6067 98.5445 21.6538 97.4936 23.4711C96.4426 25.2665 95.0085 26.6787 93.1913 27.7077C91.374 28.7149 89.3816 29.2185 87.214 29.2185ZM87.214 23.2412C88.8561 23.2412 90.1479 22.7048 91.0894 21.632C92.0527 20.5591 92.5344 19.125 92.5344 17.3296C92.5344 15.4905 92.0527 14.0454 91.0894 12.9945C90.1479 11.9216 88.8561 11.3852 87.214 11.3852C85.55 11.3852 84.2473 11.9216 83.3058 12.9945C82.3643 14.0454 81.8936 15.4905 81.8936 17.3296C81.8936 19.1469 82.3643 20.5919 83.3058 21.6648C84.2473 22.7157 85.55 23.2412 87.214 23.2412Z" fill="white"/>
<path d="M116.743 13.4543C116.37 12.8412 115.856 12.3705 115.199 12.0421C114.564 11.7136 113.809 11.5494 112.933 11.5494C111.313 11.5494 110.032 12.0749 109.09 13.1258C108.171 14.1768 107.711 15.589 107.711 17.3625C107.711 19.3549 108.204 20.8766 109.189 21.9275C110.196 22.9566 111.652 23.4711 113.557 23.4711C115.812 23.4711 117.421 22.453 118.385 20.4168H111.915V15.7861H123.935V22.0261C123.431 23.2522 122.687 24.4016 121.702 25.4745C120.738 26.5473 119.512 27.4341 118.023 28.1347C116.535 28.8134 114.838 29.1528 112.933 29.1528C110.612 29.1528 108.554 28.6602 106.759 27.6749C104.985 26.6677 103.606 25.2774 102.621 23.504C101.657 21.7086 101.175 19.6614 101.175 17.3625C101.175 15.0854 101.657 13.0602 102.621 11.2867C103.606 9.49132 104.985 8.101 106.759 7.11574C108.532 6.10858 110.579 5.605 112.9 5.605C115.812 5.605 118.221 6.30563 120.125 7.7069C122.03 9.10816 123.213 11.0239 123.672 13.4543H116.743Z" fill="white"/>
<path d="M133.257 5.83489V28.9886H126.82V5.83489H133.257Z" fill="white"/>
<path d="M158.368 28.9886H151.931L143.36 16.0488V28.9886H136.923V5.83489H143.36L151.931 18.9389V5.83489H158.368V28.9886Z" fill="white"/>
<path d="M168.472 10.9911V14.7679H175.862V19.6614H168.472V23.8324H176.847V28.9886H162.035V5.83489H176.847V10.9911H168.472Z" fill="white"/>
<path d="M191.752 28.9886L187.155 20.4496H186.465V28.9886H180.028V5.83489H190.176C192.037 5.83489 193.614 6.16332 194.905 6.82016C196.197 7.45511 197.171 8.34184 197.828 9.48037C198.485 10.597 198.814 11.8559 198.814 13.2572C198.814 14.8336 198.376 16.2239 197.5 17.4282C196.646 18.6105 195.387 19.4534 193.723 19.957L198.945 28.9886H191.752ZM186.465 16.0488H189.651C190.526 16.0488 191.183 15.8408 191.621 15.4248C192.059 15.0088 192.278 14.4067 192.278 13.6185C192.278 12.8741 192.048 12.2938 191.588 11.8778C191.15 11.4399 190.504 11.221 189.651 11.221H186.465V16.0488Z" fill="white"/>
<path d="M58.8192 41.3728C58.8192 40.0439 59.1159 38.8569 59.7094 37.8118C60.3158 36.7538 61.1351 35.9345 62.1673 35.3539C63.2124 34.7604 64.3801 34.4637 65.6703 34.4637C67.1798 34.4637 68.5023 34.8508 69.6377 35.6249C70.7731 36.399 71.5666 37.4699 72.0182 38.8376H68.9023C68.5926 38.1924 68.154 37.7086 67.5863 37.386C67.0315 37.0635 66.3864 36.9022 65.6509 36.9022C64.8639 36.9022 64.1607 37.0893 63.5414 37.4635C62.935 37.8247 62.4576 38.3408 62.1093 39.0117C61.7738 39.6827 61.6061 40.4697 61.6061 41.3728C61.6061 42.2631 61.7738 43.0501 62.1093 43.734C62.4576 44.4049 62.935 44.9274 63.5414 45.3016C64.1607 45.6628 64.8639 45.8435 65.6509 45.8435C66.3864 45.8435 67.0315 45.6822 67.5863 45.3596C68.154 45.0242 68.5926 44.5339 68.9023 43.8888H72.0182C71.5666 45.2693 70.7731 46.3467 69.6377 47.1208C68.5152 47.882 67.1927 48.2627 65.6703 48.2627C64.3801 48.2627 63.2124 47.9724 62.1673 47.3918C61.1351 46.7982 60.3158 45.979 59.7094 44.9339C59.1159 43.8888 58.8192 42.7018 58.8192 41.3728Z" fill="white"/>
<path d="M85.4219 45.5725H80.0417L79.1514 48.1465H76.3065L81.1642 34.6185H84.3188L89.1765 48.1465H86.3122L85.4219 45.5725ZM84.6865 43.405L82.7318 37.7538L80.7771 43.405H84.6865Z" fill="white"/>
<path d="M98.4626 48.282C97.5208 48.282 96.6692 48.1207 95.908 47.7982C95.1596 47.4756 94.5661 47.0111 94.1275 46.4047C93.6888 45.7983 93.463 45.0822 93.4501 44.2565H96.3531C96.3918 44.8113 96.5853 45.25 96.9337 45.5725C97.295 45.8951 97.7853 46.0564 98.4046 46.0564C99.0368 46.0564 99.5335 45.908 99.8948 45.6112C100.256 45.3016 100.437 44.9016 100.437 44.4113C100.437 44.0114 100.314 43.6824 100.069 43.4243C99.8238 43.1663 99.5142 42.9663 99.14 42.8244C98.7787 42.6695 98.2755 42.5018 97.6304 42.3212C96.7531 42.0631 96.037 41.8115 95.4822 41.5664C94.9403 41.3083 94.4694 40.9277 94.0694 40.4245C93.6823 39.9084 93.4888 39.2246 93.4888 38.3731C93.4888 37.5731 93.6888 36.8764 94.0888 36.2829C94.4887 35.6894 95.05 35.2378 95.7725 34.9282C96.495 34.6056 97.3208 34.4443 98.2497 34.4443C99.6432 34.4443 100.772 34.7862 101.637 35.4701C102.514 36.141 102.998 37.0828 103.088 38.2957H100.108C100.082 37.8312 99.8819 37.4506 99.5077 37.1538C99.1464 36.8442 98.6626 36.6893 98.0562 36.6893C97.5272 36.6893 97.1014 36.8248 96.7789 37.0957C96.4692 37.3667 96.3144 37.7602 96.3144 38.2763C96.3144 38.6376 96.4305 38.9408 96.6628 39.1859C96.9079 39.4182 97.2047 39.6117 97.553 39.7665C97.9143 39.9084 98.4175 40.0762 99.0626 40.2697C99.9399 40.5277 100.656 40.7858 101.211 41.0438C101.766 41.3019 102.243 41.689 102.643 42.205C103.043 42.7211 103.243 43.3985 103.243 44.2371C103.243 44.9597 103.056 45.6306 102.682 46.2499C102.307 46.8692 101.759 47.3659 101.037 47.7401C100.314 48.1014 99.4561 48.282 98.4626 48.282Z" fill="white"/>
<path d="M111.108 34.6379V48.1465H108.398V34.6379H111.108Z" fill="white"/>
<path d="M128.145 48.1465H125.435L119.3 38.8763V48.1465H116.591V34.6185H119.3L125.435 43.9081V34.6185H128.145V48.1465Z" fill="white"/>
<path d="M139.899 48.282C138.635 48.282 137.473 47.9853 136.416 47.3918C135.358 46.7982 134.519 45.979 133.9 44.9339C133.28 43.8759 132.971 42.6824 132.971 41.3535C132.971 40.0375 133.28 38.8569 133.9 37.8118C134.519 36.7538 135.358 35.9281 136.416 35.3346C137.473 34.7411 138.635 34.4443 139.899 34.4443C141.176 34.4443 142.338 34.7411 143.383 35.3346C144.441 35.9281 145.273 36.7538 145.879 37.8118C146.499 38.8569 146.808 40.0375 146.808 41.3535C146.808 42.6824 146.499 43.8759 145.879 44.9339C145.273 45.979 144.441 46.7982 143.383 47.3918C142.325 47.9853 141.164 48.282 139.899 48.282ZM139.899 45.8628C140.712 45.8628 141.428 45.6822 142.047 45.3209C142.667 44.9468 143.15 44.4178 143.499 43.734C143.847 43.0501 144.021 42.2567 144.021 41.3535C144.021 40.4503 143.847 39.6633 143.499 38.9924C143.15 38.3086 142.667 37.786 142.047 37.4248C141.428 37.0635 140.712 36.8829 139.899 36.8829C139.086 36.8829 138.364 37.0635 137.732 37.4248C137.112 37.786 136.628 38.3086 136.28 38.9924C135.932 39.6633 135.757 40.4503 135.757 41.3535C135.757 42.2567 135.932 43.0501 136.28 43.734C136.628 44.4178 137.112 44.9468 137.732 45.3209C138.364 45.6822 139.086 45.8628 139.899 45.8628Z" fill="white"/>
<path d="M32.7201 40.62L39.2901 52H22.477H5.6627L12.1155 40.8239L14.4096 40.3259C16.3723 39.9 18.201 39.0561 19.7875 37.855L14.6079 46.826H22.477H30.3461L25.1665 37.8538C27.3467 39.5056 29.9687 40.4701 32.7201 40.62ZM7.20858 22.582C6.03114 23.7595 5.44186 25.3042 5.44186 26.849C5.44186 28.3937 6.03114 29.9374 7.20858 31.1159C8.38602 32.2934 9.93077 32.8827 11.4755 32.8827C12.36 32.8827 13.2445 32.6889 14.0591 32.3035L10.7544 38.033C8.13138 37.8651 5.55679 36.7778 3.55119 34.7733C1.36307 32.5841 0.269012 29.7165 0.269012 26.849C0.269012 23.9815 1.36307 21.1128 3.55119 18.9247L10.2857 12.1902L12.1144 14.0189L13.9431 15.8475L22.477 24.3814L24.3057 26.2101L24.5434 26.4479L26.1344 28.0388L29.2115 31.1159C30.3889 32.2934 31.9337 32.8827 33.4784 32.8827C35.0232 32.8827 36.5679 32.2934 37.7454 31.1159C38.9228 29.9385 39.5121 28.3937 39.5121 26.849C39.5121 25.3042 38.9228 23.7606 37.7454 22.582L34.6683 19.5049L27.9631 26.2101L24.3057 22.5528L31.0109 15.8475L32.8396 14.0189L34.6683 12.1902L41.4028 18.9247C43.5909 21.1128 44.685 23.9815 44.685 26.849C44.685 29.7165 43.5909 32.5852 41.4028 34.7733C39.2146 36.9615 36.346 38.0555 33.4784 38.0555C30.6109 38.0555 27.7422 36.9615 25.5541 34.7733L22.477 31.6951L19.3999 34.7722C17.8224 36.3496 15.8912 37.3592 13.862 37.7997L19.2478 28.4647L10.2857 19.5049L7.20858 22.582ZM12.1144 10.3626L22.477 0L32.8396 10.3626L29.1822 14.02L22.477 7.31364L15.7718 14.0189L12.1144 10.3626Z" fill="url(#paint0_linear_27_3946)"/>
<defs>
<linearGradient id="paint0_linear_27_3946" x1="0.269012" y1="2.4375" x2="35.2181" y2="6.64738" gradientUnits="userSpaceOnUse">
<stop stop-color="#FF5050"/>
<stop offset="1" stop-color="#FF3D9A"/>
</linearGradient>
</defs>
</svg>
