<svg width="493" height="1073" viewBox="0 0 493 1073" fill="none" xmlns="http://www.w3.org/2000/svg">
<g filter="url(#filter0_f_545_3520)">
<path d="M180.632 514.943C217.424 363.039 214.64 157.916 288.982 175.922C363.324 193.928 724.84 309.271 449.848 580.149C505.263 827.135 541.241 888.838 466.899 870.832C267.106 994.784 143.839 666.848 180.632 514.943Z" fill="url(#paint0_linear_545_3520)" fill-opacity="0.32"/>
</g>
<g clip-path="url(#clip0_545_3520)" filter="url(#filter1_f_545_3520)">
<path d="M238.349 320.223C246.498 322.406 257.094 325.888 261.795 333.643C265.663 340.449 263.836 350.153 260.87 357.188C255.016 371.688 241.465 382.803 226.136 385.145C223.489 385.22 229.641 384.902 228.279 384.725C232.641 384.313 236.827 384.159 241.189 383.747C250.165 383.098 259.141 382.448 268.041 381.368C283.37 379.026 296.973 369.457 303.509 355.046C306.651 347.754 309.159 338.139 305.643 330.819C301.646 322.036 290.369 318.465 281.793 316.366C280.178 316.016 276.75 316.689 275.464 316.941C270.169 317.091 265.126 317.414 259.907 317.993C254.688 318.573 249.897 319.069 244.854 319.391C242.887 319.555 239.964 320.574 238.349 320.223Z" fill="url(#paint1_linear_545_3520)"/>
</g>
<g clip-path="url(#clip1_545_3520)" filter="url(#filter2_f_545_3520)">
<path d="M293.158 897.564C289.216 899.474 284.931 901.499 280.495 900.218C276.231 898.88 274.865 894.795 273.73 890.831C272.418 886.334 271.62 881.664 268.597 878.331C265.746 874.941 261.482 873.603 257.448 872.384C256.986 872.144 252.872 879.245 252.476 879.773C252.139 880.478 248.024 887.579 247.562 887.339C251.596 888.557 255.86 889.895 258.711 893.286C261.793 896.796 262.763 901.408 263.844 905.785C264.979 909.749 266.173 913.891 270.609 915.172C275.104 916.631 279.502 914.371 283.331 912.696C283.674 912.581 284.744 910.644 284.916 910.586C285.986 908.649 287.115 906.89 288.244 905.13C289.545 903.313 290.674 901.553 291.804 899.794C292.028 899.324 292.643 897.736 293.158 897.564Z" fill="url(#paint2_linear_545_3520)"/>
</g>
<defs>
<filter id="filter0_f_545_3520" x="0.155823" y="0.813232" width="725.416" height="1071.43" filterUnits="userSpaceOnUse" color-interpolation-filters="sRGB">
<feFlood flood-opacity="0" result="BackgroundImageFix"/>
<feBlend mode="normal" in="SourceGraphic" in2="BackgroundImageFix" result="shape"/>
<feGaussianBlur stdDeviation="87" result="effect1_foregroundBlur_545_3520"/>
</filter>
<filter id="filter1_f_545_3520" x="196" y="286" width="129.401" height="134.209" filterUnits="userSpaceOnUse" color-interpolation-filters="sRGB">
<feFlood flood-opacity="0" result="BackgroundImageFix"/>
<feBlend mode="normal" in="SourceGraphic" in2="BackgroundImageFix" result="shape"/>
<feGaussianBlur stdDeviation="4" result="effect1_foregroundBlur_545_3520"/>
</filter>
<filter id="filter2_f_545_3520" x="236" y="856" width="68.8388" height="73.2581" filterUnits="userSpaceOnUse" color-interpolation-filters="sRGB">
<feFlood flood-opacity="0" result="BackgroundImageFix"/>
<feBlend mode="normal" in="SourceGraphic" in2="BackgroundImageFix" result="shape"/>
<feGaussianBlur stdDeviation="4" result="effect1_foregroundBlur_545_3520"/>
</filter>
<linearGradient id="paint0_linear_545_3520" x1="288.911" y1="879.694" x2="449.928" y2="214.904" gradientUnits="userSpaceOnUse">
<stop stop-color="#3DE8FF" stop-opacity="0.41"/>
<stop offset="1" stop-color="#0051EE" stop-opacity="0.29"/>
</linearGradient>
<linearGradient id="paint1_linear_545_3520" x1="262.559" y1="313.906" x2="267.868" y2="367.712" gradientUnits="userSpaceOnUse">
<stop offset="0.00540541" stop-color="#8C623E"/>
<stop offset="0.1505" stop-color="#B28452"/>
<stop offset="0.4748" stop-color="#EAB671"/>
<stop offset="0.673" stop-color="#B58653"/>
<stop offset="0.7991" stop-color="#EAB671"/>
<stop offset="1" stop-color="#825937"/>
</linearGradient>
<linearGradient id="paint2_linear_545_3520" x1="233.667" y1="869.882" x2="308.02" y2="922.008" gradientUnits="userSpaceOnUse">
<stop offset="0.00540541" stop-color="#8C623E"/>
<stop offset="0.1018" stop-color="#EAB671"/>
<stop offset="0.1937" stop-color="#B28452"/>
<stop offset="0.3405" stop-color="#825937"/>
<stop offset="0.4748" stop-color="#EAB671"/>
<stop offset="0.6432" stop-color="#825937"/>
<stop offset="0.7829" stop-color="#EAB671"/>
<stop offset="1" stop-color="#825937"/>
</linearGradient>
<clipPath id="clip0_545_3520">
<rect width="74.0476" height="92.5595" fill="white" transform="translate(256.317 294) rotate(34.4178)"/>
</clipPath>
<clipPath id="clip1_545_3520">
<rect width="40" height="47" fill="white" transform="translate(296.839 908.575) rotate(161.513)"/>
</clipPath>
</defs>
</svg>
