<svg width="93" height="125" viewBox="0 0 93 125" fill="none" xmlns="http://www.w3.org/2000/svg">
<path d="M43.5583 2.17682L60.1553 33.2557C61.0884 35.0029 60.4067 37.2042 58.6404 38.1474L44.1358 45.8933C42.3695 46.8366 40.161 46.1788 39.228 44.4316L35.7219 37.8664C26.2414 40.2075 12.6255 46.5261 7.67898 56.5846C4.52 63.0347 5.1742 70.4425 9.585 78.7019C13.9675 86.9085 19.7599 91.5723 26.742 92.5387C38.4531 94.2458 51.3693 85.7151 58.087 79.7461L54.2982 72.6515C53.3652 70.9043 54.0469 68.703 55.8131 67.7598L70.3178 60.0139C72.084 59.0706 74.2925 59.7284 75.2256 61.4756L91.8227 92.5545C92.7557 94.3017 92.074 96.503 90.3078 97.4462L75.8031 105.192C74.0369 106.135 71.8283 105.478 70.8953 103.73L68.1527 98.5947C64.4878 104.226 59.8323 109.162 54.3972 113.153C41.1022 122.907 24.581 126.49 8.98501 123.047C-5.8213 119.795 -17.8625 110.643 -25.0159 97.2479C-32.1693 83.8527 -33.1061 68.7027 -27.5738 54.5889C-21.7607 39.7128 -9.59374 27.9759 5.85305 22.3806C12.1929 20.0836 18.9377 18.9313 25.6027 19.0464L22.5491 13.3283C21.6161 11.5811 22.2977 9.37984 24.064 8.43661L38.5687 0.690696C40.4167 -0.228165 42.6252 0.429624 43.5583 2.17682ZM52.0362 33.5089L38.832 8.78347L30.7501 13.0995L35.2174 21.4648C35.8678 22.6826 35.7374 24.113 34.978 25.2671C34.1903 26.3682 32.8492 26.9483 31.4647 26.8031C23.7212 25.6989 15.7242 26.5673 8.33609 29.2199C-5.09603 34.0796 -15.6724 44.2867 -20.7442 57.2019C-25.51 69.2732 -24.757 82.2759 -18.5932 93.818C-12.4294 105.36 -2.04228 113.218 10.6403 115.971C24.1944 118.94 38.5596 115.827 50.0691 107.367C56.3828 102.703 61.5524 96.5398 64.9416 89.4904C65.5374 88.2876 66.8189 87.4671 68.1721 87.4249C69.5253 87.3827 70.8149 88.123 71.4652 89.3408L75.6215 97.1237L83.7035 92.8077L70.4993 68.0823L62.4174 72.3982L65.7821 78.6987C66.5172 80.0753 66.2859 81.8319 65.1457 82.9171C57.9171 90.2477 41.4986 102.01 25.6592 99.7853C16.2323 98.4914 8.65054 92.5377 3.13703 82.2134C-2.43303 71.7831 -3.11039 62.1423 1.13625 53.4783C8.25808 38.992 27.7342 31.9253 37.0663 30.2079C38.6305 29.9169 40.1907 30.6487 40.9258 32.0253L44.0078 37.7964L52.0362 33.5089Z" fill="#BFC9FF"/>
</svg>
