<svg width="180" height="216" viewBox="0 0 180 216" fill="none" xmlns="http://www.w3.org/2000/svg">
<g opacity="0.05" clip-path="url(#clip0_46_4386)">
<path d="M43.5011 193.785C39.2308 192.788 35.153 190.967 31.4924 188.373C24.1139 183.093 19.1584 175.216 17.6196 166.239C16.0809 157.262 18.1808 148.265 23.4771 140.804C25.1209 138.499 28.4151 137.924 30.7173 139.568C33.0944 141.23 33.5931 144.509 31.9493 146.813C28.2969 151.97 26.8269 158.268 27.9118 164.451C28.9792 170.709 32.3669 176.164 37.5182 179.818C42.6694 183.471 48.9625 184.94 55.1413 183.852C61.3951 182.781 66.8477 179.389 70.5001 174.233C72.1614 171.853 75.4381 171.353 77.7403 172.997C80.1175 174.659 80.6162 177.938 78.9723 180.242C73.6936 187.628 65.8206 192.59 56.8671 194.058C52.3841 194.988 47.8463 194.799 43.5011 193.785Z" fill="#B0BCFF"/>
<path d="M40.3609 156.129C36.0906 155.133 32.0128 153.311 28.3522 150.718C26.9364 149.676 25.6131 148.576 24.3821 147.419C12.3899 135.844 10.6762 116.785 20.3369 103.148C30.692 88.5665 50.6896 84.4578 65.8766 93.853C68.2887 95.3647 69.1221 98.5636 67.6106 100.978C66.0991 103.392 62.9197 104.153 60.4901 102.716C49.9202 96.2167 35.9865 99.0526 28.8091 109.158C22.0889 118.658 23.282 131.824 31.5989 139.853C32.4328 140.68 33.3592 141.45 34.378 142.162C41.0948 146.892 49.5633 147.841 57.1661 144.713C59.7986 143.588 62.8227 144.848 63.9459 147.482C65.0691 150.116 63.7922 153.217 61.1771 154.267C54.4285 157.12 47.1784 157.721 40.3609 156.129Z" fill="#B0BCFF"/>
<path d="M80.195 184.481C75.9247 183.484 71.8469 181.663 68.1863 179.069C60.8077 173.789 55.8523 165.912 54.3135 156.935C52.7747 147.958 54.8747 138.96 60.1709 131.5C62.5093 128.25 65.302 125.423 68.5891 123.186C70.9521 121.524 74.191 122.201 75.7938 124.472C77.454 126.836 76.8514 130.095 74.431 131.665C72.178 133.195 70.2121 135.187 68.5858 137.417C64.9333 142.573 63.4634 148.871 64.5483 155.054C65.6157 161.312 69.0034 166.768 74.1546 170.421C79.3059 174.074 85.599 175.543 91.7778 174.455C98.0315 173.384 103.484 169.992 107.137 164.836C113.857 155.335 112.664 142.17 104.347 134.141C102.282 132.157 102.193 128.815 104.251 126.766C106.235 124.698 109.556 124.683 111.621 126.667C123.613 138.242 125.327 157.301 115.666 170.938C110.387 178.324 102.514 183.286 93.5435 184.829C89.0954 185.609 84.5402 185.495 80.195 184.481Z" fill="#B0BCFF"/>
<path d="M83.7001 137.307C79.4298 136.311 75.352 134.489 71.6915 131.895C64.3129 126.616 59.3574 118.739 57.8187 109.762C56.2799 100.785 58.3799 91.787 63.6761 84.3262C74.5983 69.0071 95.892 65.438 111.139 76.2702C126.442 87.195 130.001 108.503 119.171 123.765C113.893 131.15 106.02 136.112 97.0486 137.656C92.5831 138.511 88.0454 138.321 83.7001 137.307ZM96.8248 81.073C87.7598 78.9573 77.8843 82.345 72.1308 90.4107C68.4784 95.5671 67.0085 101.865 68.0934 108.048C69.1608 114.306 72.5484 119.762 77.6997 123.415C82.851 127.068 89.144 128.537 95.3229 127.449C101.577 126.378 107.029 122.986 110.682 117.83C118.224 107.177 115.755 92.3697 105.113 84.8258C102.546 82.9617 99.7466 81.755 96.8248 81.073Z" fill="#B0BCFF"/>
<path d="M116.002 155.283C113.23 154.636 111.508 151.862 112.08 149.07C112.728 146.296 115.443 144.479 118.29 145.143C127.597 147.236 137.15 143.536 142.684 135.735C146.336 130.579 147.806 124.281 146.721 118.098C145.654 111.84 142.266 106.385 137.115 102.731C131.906 98.9857 125.521 97.5744 119.175 98.7023C116.29 99.215 113.648 97.3335 113.12 94.5219C112.591 91.7103 114.49 88.9909 117.299 88.4607C126.38 86.7851 135.538 88.8433 143.123 94.2507C150.502 99.5307 155.457 107.408 156.996 116.385C158.535 125.362 156.435 134.359 151.139 141.82C143.267 152.87 129.465 158.188 116.002 155.283Z" fill="#B0BCFF"/>
<path d="M38.7682 100.334C37.4946 100.037 36.2686 99.1975 35.5222 97.9954C28.305 86.27 28.748 71.5095 36.7298 60.3269C42.0086 52.9411 49.8816 47.9791 58.8526 46.436C67.8236 44.8928 76.8137 46.9911 84.2672 52.2885C91.6457 57.5684 96.6012 65.4454 98.1399 74.4224C98.5938 77.2165 96.6951 79.9359 93.9029 80.3911C91.0183 80.9038 88.394 78.9472 87.8653 76.1357C86.7978 69.8777 83.4102 64.4223 78.2589 60.7691C67.6168 53.2253 52.8192 55.7014 45.277 66.354C39.7434 74.1548 39.3988 84.4316 44.4516 92.5685C45.9445 94.9726 45.192 98.1967 42.7717 99.7665C41.5128 100.421 40.1167 100.649 38.7682 100.334Z" fill="#B0BCFF"/>
<path d="M110.993 87.3844C108.221 86.7374 106.533 86.1853 106.159 86.0979C104.903 85.7257 103.844 84.8461 103.247 83.679C102.346 82.1246 82.4505 45.8558 99.4734 21.9986C100.515 20.5814 102.126 19.7714 103.862 19.7812C105.58 19.866 107.181 20.793 108.099 22.2724L118.417 38.9909L142.927 25.0247C144.741 24.0248 146.926 24.1395 148.549 25.3089C150.172 26.4784 151.026 28.5751 150.553 30.5995L144.718 58.6491L165.749 64.6646C167.38 65.1242 168.668 66.3737 169.252 67.9331C169.819 69.5676 169.566 71.3271 168.542 72.6693C153.075 94.5969 122.755 90.1296 110.993 87.3844ZM111.351 76.7152C118.19 78.5487 140.656 83.1595 154.709 72.3661L137.238 67.3398C134.651 66.5779 133.061 63.9139 133.598 61.2722L138.061 39.7807L119.211 50.4823C116.751 51.8847 113.697 51.0928 112.204 48.6887L104.165 35.7437C99.7587 51.2395 108.328 70.7124 111.351 76.7152Z" fill="#7D92FF"/>
<path d="M82.0724 103.326C81.548 103.203 81.1159 103.023 80.6265 102.751C78.1969 101.314 77.346 98.1904 78.7252 95.666C79.1074 95.0436 82.4728 89.425 89.1137 88.0495C92.1831 87.4219 96.9981 87.4388 102.661 91.6068C104.963 93.251 105.537 96.5474 103.818 98.8344C102.174 101.139 98.8977 101.639 96.5955 99.9949C94.5755 98.4956 92.7375 97.9085 91.3239 98.2111C89.1661 98.6563 87.782 100.863 87.782 100.863C86.5828 102.955 84.245 103.833 82.0724 103.326Z" fill="#B0BCFF"/>
<path d="M38.9402 133.107C37.8914 132.862 36.9125 132.317 36.171 131.433C35.6767 130.843 31.5672 125.772 32.4903 119.109C32.8906 116.04 34.6673 111.474 40.4098 107.517C42.7552 105.93 46.0117 106.531 47.5969 108.878C49.1822 111.225 48.5796 114.484 46.2342 116.071C44.166 117.486 42.9569 118.943 42.7742 120.403C42.509 122.554 44.0894 124.584 44.0894 124.584C45.9519 126.758 45.6489 130.087 43.4758 131.951C42.1694 133.149 40.4386 133.456 38.9402 133.107Z" fill="#B0BCFF"/>
<path d="M106.533 86.1854C103.911 85.5734 102.136 83.0244 102.616 80.2902C102.681 79.6729 104.972 66.1343 118.987 56.518C121.35 54.8558 124.607 55.4577 126.175 57.8792C127.835 60.2433 127.232 63.5024 124.812 65.0722C114.638 72.1063 112.848 81.8085 112.83 81.8835C112.408 84.7101 109.732 86.6949 106.925 86.1979C106.833 86.2554 106.683 86.2204 106.533 86.1854Z" fill="#7D92FF"/>
</g>
<defs>
<clipPath id="clip0_46_4386">
<rect width="141.246" height="188.327" fill="white" transform="translate(41.804) rotate(13.1372)"/>
</clipPath>
</defs>
</svg>
