<svg width="68" height="131" viewBox="0 0 68 131" fill="none" xmlns="http://www.w3.org/2000/svg">
<path d="M64.3069 118.941L64.2524 118.959L27.3233 130.043C25.3476 130.615 23.2902 129.805 22.3141 128.062C21.7734 127.119 9.7234 104.96 14.6556 80.7849C17.6809 65.8477 20.4756 58.2634 22.9609 52.715C20.8798 53.1446 18.9483 53.2916 17.3432 53.3343C15.5409 53.3227 13.8679 53.1523 12.3206 53.0005C7.55297 52.5266 5.75068 52.515 3.22769 55.3163C1.38815 57.2538 1.06194 60.1756 0.756113 62.9736C0.423125 66.2499 -0.0627706 70.9252 -4.62961 72.207L-15.8512 75.5545C-16.9393 75.9019 -18.1261 75.7525 -19.1259 75.2498C-20.1257 74.7471 -20.8467 73.8032 -21.1869 72.7377L-33.9798 30.0352C-34.6227 27.8336 -33.2593 25.3438 -31.049 24.7556L-17.1445 20.6102C-14.8593 19.8807 -12.4687 21.1721 -11.8088 23.427L-11.6047 24.0663C-10.6458 22.9383 -9.52372 21.7583 -8.22141 20.5794C-0.665922 13.8233 9.31111 11.4601 22.2878 13.4226C30.9151 14.7189 37.2122 5.89908 37.304 5.81107C37.8957 5.03517 38.7185 4.42025 39.6435 4.12498L52.5517 0.238992C54.8538 -0.43723 57.2275 0.800906 57.8874 3.05578C66.9013 33.1694 68.711 41.2798 59.797 68.1938C52.1034 91.607 66.4351 112.274 66.6119 112.453C67.3839 113.556 67.5915 114.958 67.1155 116.284C66.6225 117.556 65.6126 118.524 64.3069 118.941ZM28.4176 120.889L56.5361 112.44C52.1181 104.047 44.9108 85.9782 51.6082 65.6421C59.3392 42.1583 58.4409 35.4007 50.8045 9.60223L43.3711 11.8579C40.6033 15.207 32.4223 23.5716 20.8296 21.813C10.621 20.2583 3.00054 21.928 -2.46376 26.7837C-7.50642 31.2699 -8.72686 35.7101 -8.72686 35.7101C-9.26739 37.585 -10.9506 38.8855 -12.8617 38.9086C-14.7728 38.9316 -16.5174 37.7862 -17.0412 35.9575L-18.8542 29.9028L-24.4752 31.6385L-14.1585 66.2087L-8.08521 64.3872C-7.98325 63.7677 -7.8575 62.847 -7.78955 62.1208C-7.41578 58.5967 -6.87209 53.7269 -3.24402 49.6922C2.39019 43.4908 8.14738 44.0597 13.221 44.5533C14.5881 44.704 16.0095 44.8372 17.5058 44.8292C21.7225 44.8919 26.932 42.994 28.5403 40.8956C29.7983 39.2025 32.1889 38.6155 34.0797 39.6555C35.9534 40.6423 36.7936 42.8984 35.998 44.9135C34.9576 47.4763 33.907 49.6315 32.819 51.8573C29.9698 57.5806 26.7807 64.1168 23.0415 82.4518C19.7579 98.6455 25.53 114.473 28.4176 120.889Z" fill="#A8B7FF"/>
</svg>
