<svg width="375" height="942" viewBox="0 0 375 942" fill="none" xmlns="http://www.w3.org/2000/svg">
<g filter="url(#filter0_f_653_3524)">
<path d="M185.934 443.44C224.536 338.44 239.356 192.358 290.742 211.25C342.129 230.142 589.741 341.765 372.021 511.854C391.197 692.013 411.725 738.834 360.339 719.942C208.123 791.716 147.331 548.439 185.934 443.44Z" fill="url(#paint0_linear_653_3524)" fill-opacity="0.67"/>
</g>
<g opacity="0.1" clip-path="url(#clip0_653_3524)">
<path d="M412.139 378.149L412.064 378.174L360.838 393.55C358.098 394.343 355.244 393.218 353.89 390.801C353.14 389.493 336.425 358.756 343.266 325.221C347.463 304.501 351.339 293.981 354.787 286.285C351.9 286.88 349.221 287.084 346.994 287.144C344.494 287.128 342.174 286.891 340.027 286.681C333.414 286.023 330.914 286.007 327.414 289.893C324.863 292.58 324.41 296.634 323.986 300.515C323.524 305.059 322.85 311.545 316.515 313.323L300.949 317.966C299.44 318.448 297.794 318.241 296.407 317.543C295.02 316.846 294.02 315.537 293.548 314.059L275.802 254.825C274.911 251.771 276.802 248.317 279.868 247.501L299.155 241.751C302.325 240.739 305.641 242.53 306.557 245.658L306.84 246.545C308.17 244.98 309.726 243.343 311.533 241.708C322.013 232.337 335.853 229.058 353.853 231.781C365.82 233.579 374.555 221.345 374.683 221.222C375.503 220.146 376.645 219.293 377.928 218.884L395.833 213.493C399.027 212.555 402.319 214.273 403.235 217.401C415.738 259.172 418.249 270.422 405.884 307.756C395.212 340.233 415.091 368.901 415.337 369.149C416.408 370.68 416.696 372.624 416.035 374.463C415.351 376.228 413.951 377.571 412.139 378.149ZM362.356 380.851L401.36 369.132C395.232 357.49 385.234 332.425 394.525 304.216C405.248 271.641 404.002 262.267 393.41 226.481L383.099 229.61C379.259 234.256 367.911 245.859 351.831 243.419C337.67 241.263 327.099 243.579 319.519 250.314C312.525 256.537 310.832 262.696 310.832 262.696C310.082 265.297 307.747 267.101 305.096 267.133C302.445 267.165 300.025 265.576 299.299 263.04L296.784 254.641L288.987 257.049L303.297 305.002L311.722 302.476C311.863 301.616 312.038 300.339 312.132 299.332C312.65 294.443 313.404 287.688 318.437 282.092C326.252 273.489 334.238 274.279 341.276 274.963C343.173 275.172 345.144 275.357 347.22 275.346C353.069 275.433 360.295 272.8 362.526 269.89C364.271 267.541 367.587 266.727 370.21 268.169C372.809 269.538 373.975 272.668 372.871 275.463C371.428 279.018 369.971 282.007 368.461 285.095C364.509 293.034 360.085 302.1 354.899 327.534C350.344 349.997 358.35 371.951 362.356 380.851Z" fill="#A8B7FF"/>
</g>
<defs>
<filter id="filter0_f_653_3524" x="-34.229" y="0.727554" width="703.29" height="941.106" filterUnits="userSpaceOnUse" color-interpolation-filters="sRGB">
<feFlood flood-opacity="0" result="BackgroundImageFix"/>
<feBlend mode="normal" in="SourceGraphic" in2="BackgroundImageFix" result="shape"/>
<feGaussianBlur stdDeviation="104.43" result="effect1_foregroundBlur_653_3524"/>
</filter>
<linearGradient id="paint0_linear_653_3524" x1="233.054" y1="711.666" x2="401.992" y2="252.151" gradientUnits="userSpaceOnUse">
<stop stop-color="#3DE8FF" stop-opacity="0.41"/>
<stop offset="1" stop-color="#0051EE" stop-opacity="0.29"/>
</linearGradient>
<clipPath id="clip0_653_3524">
<rect width="133.808" height="164.686" fill="white" transform="translate(273 249.693) rotate(-17.7051)"/>
</clipPath>
</defs>
</svg>
