<svg width="187" height="188" viewBox="0 0 187 188" fill="none" xmlns="http://www.w3.org/2000/svg">
<path opacity="0.5" d="M187 79.5184L108.534 89.836L181.186 58.2956L166.426 33.4125L105.778 81.5081L152.858 19.9468L127.94 5.41484L97.7383 78.1668L107.904 0H79.0963L89.3625 78.8888L57.9844 5.85139L33.2347 20.6855L81.0706 81.6592L19.835 34.3276L5.3851 59.3786L77.7605 89.7437L0 79.5184V108.482L78.4746 98.164L5.82196 129.704L20.5743 154.587L81.2218 106.5L34.1421 168.062L59.0681 182.585L89.2701 109.833L79.0963 188H107.904L97.646 109.103L129.016 182.157L153.765 167.323L105.929 106.341L167.165 153.681L181.615 128.621L109.248 98.2563L187 108.482V79.5184Z" fill="url(#paint0_radial_16_1676)"/>
<path d="M123.463 137.469L101.552 136.823C99.0658 136.747 97.2175 136.714 95.5541 136.714C94.2687 136.714 93.2186 136.731 92.0004 136.756C90.2446 136.789 88.2619 136.823 84.9099 136.823H64.6969L76.8449 123.382C66.2007 121.678 56.573 113.208 53.9855 102.705C49.5833 84.7482 65.327 71.7442 72.0478 66.1866C75.5931 63.2567 78.5419 60.6374 81.6671 57.8671L81.7091 57.8335C83.4817 56.2636 85.2796 54.6685 87.2706 52.9391C87.4134 52.8132 87.5563 52.6873 87.7159 52.5613L92.4877 48.1875C92.4877 48.1875 103.182 56.2132 104.829 57.6656L104.98 57.7999C108.114 60.5703 111.071 63.1896 114.658 66.153C121.387 71.7022 137.148 84.6894 132.763 102.647C130.2 113.149 120.598 121.628 109.962 123.349L123.463 137.469ZM95.5541 130.678C97.2763 130.678 99.1834 130.711 101.729 130.787L108.92 130.997L103.947 125.8C102.955 124.768 102.099 123.408 101.393 121.754L99.4186 117.12L104.434 117.565C104.955 117.607 105.484 117.632 106.013 117.632C115.473 117.632 124.639 110.42 126.89 101.211C130.377 86.9309 116.666 75.6227 110.81 70.7955C107.139 67.7733 104.148 65.1204 100.973 62.3081L100.813 62.1821C99.1834 60.7382 97.3351 59.1011 95.3357 57.3717L95.1844 57.2458C95.0668 57.1535 94.9492 57.0695 94.8232 57.0024L93.059 55.9782L91.5048 57.2458C91.4292 57.3046 91.3788 57.3466 91.3367 57.3885L91.2611 57.4557C89.2785 59.1767 87.489 60.7634 85.75 62.3081L85.6744 62.3752C82.5156 65.1792 79.5248 67.832 75.8955 70.8291C70.0484 75.6647 56.3462 86.9813 59.8494 101.261C62.1093 110.454 71.2749 117.657 80.7178 117.657C81.1882 117.657 81.6671 117.64 82.1291 117.598L86.9766 117.212L85.1703 121.729C84.4898 123.424 83.6665 124.818 82.7172 125.867L78.2646 130.787H84.9015C88.1947 130.787 90.1522 130.753 91.8828 130.72C93.0926 130.703 94.2183 130.678 95.5541 130.678ZM85.8004 127.807L87.6907 123.5C88.8584 120.847 89.6061 117.758 89.8582 114.559L90.0514 112.083L87.7663 113.048C86.3549 113.644 85.0023 114.072 83.6245 114.349C82.692 114.542 81.7091 114.635 80.7178 114.635C72.7367 114.635 64.6885 108.313 62.773 100.539C60.0847 89.567 68.8638 80.5422 77.811 73.1461C81.4823 70.1155 84.4983 67.4375 87.6823 64.6083L87.9679 64.3565C89.06 63.391 90.1774 62.392 91.3535 61.3678L93.3446 59.6216L95.3357 61.3678C96.6126 62.4928 97.8224 63.5505 98.9229 64.5328L98.9649 64.5664C102.166 67.3955 105.182 70.0735 108.878 73.121C117.834 80.5003 126.63 89.525 123.95 100.497C122.051 108.288 114.003 114.618 106.005 114.618C105.022 114.618 104.056 114.526 103.123 114.333C101.67 114.039 100.225 113.577 98.7297 112.922L96.4362 111.932L96.621 114.425C96.8647 117.682 97.6292 120.78 98.8137 123.391L100.763 127.672L95.6885 127.664C94.2603 127.664 93.0506 127.681 91.824 127.706L85.8004 127.807ZM93.353 67.6641C92.8909 68.0755 92.4373 68.4785 91.9836 68.8814L91.7232 69.1081C88.472 71.996 85.4224 74.6992 81.6671 77.8054C74.1649 84.001 66.7551 91.3803 68.6454 99.1122C69.8887 104.174 75.5343 108.615 80.7262 108.615C81.3058 108.615 81.8771 108.557 82.4232 108.448C83.4061 108.246 84.389 107.935 85.4224 107.499L89.9254 105.593L89.6901 102.428L101.158 107.398C102.267 107.877 103.308 108.221 104.35 108.422C104.888 108.532 105.459 108.59 106.039 108.59C111.239 108.59 116.876 104.141 118.119 99.0702C120.01 91.3467 112.583 83.9758 105.073 77.7802C101.292 74.6657 98.234 71.954 94.9912 69.0913L94.9492 69.0577C94.4199 68.6044 93.8907 68.1427 93.353 67.6641Z" fill="url(#paint1_linear_16_1676)"/>
<path d="M112.726 68.2436C109.113 65.2633 106.131 62.6273 102.972 59.8233C101.284 58.3374 99.3766 56.6415 97.2931 54.8366L97.0915 54.6687C96.8479 54.4672 96.5959 54.2993 96.3354 54.1482L92.765 52.083L89.5893 54.6687C89.4717 54.761 89.3709 54.8534 89.2701 54.9457C87.2622 56.6835 85.456 58.2954 83.7002 59.8485C80.5414 62.644 77.5674 65.2885 73.9633 68.2688C67.6793 73.4653 52.9522 85.6215 56.9091 101.74C59.4882 112.226 69.9392 120.436 80.7094 120.436C81.2639 120.436 81.8183 120.419 82.3644 120.369C81.8351 121.695 81.1882 122.812 80.4742 123.609L71.4766 133.566H84.9015C88.2032 133.566 90.1858 133.532 91.9417 133.499C93.185 133.474 94.252 133.457 95.5457 133.457C97.2259 133.457 99.1078 133.49 101.628 133.566L116.179 133.994L106.123 123.475C105.375 122.694 104.711 121.611 104.165 120.335C104.779 120.394 105.392 120.419 106.005 120.419C116.792 120.419 127.243 112.192 129.805 101.69C133.754 85.5795 119.018 73.4318 112.726 68.2436ZM91.782 124.457C91.3536 124.466 90.9167 124.474 90.4547 124.482C91.7316 121.569 92.5885 118.144 92.8658 114.568L93.2522 109.623L93.6135 114.425C93.8907 118.077 94.7476 121.502 96.075 124.415C94.4956 124.407 93.1682 124.432 91.782 124.457ZM121.026 99.5573C119.464 105.963 112.592 111.378 106.013 111.378C105.232 111.378 104.468 111.302 103.728 111.151C102.485 110.899 101.242 110.496 99.9311 109.934L93.0506 106.953L93.0758 107.289L86.5817 110.043C85.3636 110.563 84.1958 110.924 83.0113 111.168C82.272 111.319 81.4991 111.394 80.7094 111.394C74.1481 111.394 67.2676 105.988 65.6966 99.5909C63.4031 90.2472 71.5018 82.0367 79.7265 75.2451C83.4481 72.1641 86.4893 69.4693 89.707 66.6233C90.8831 65.5823 92.0761 64.5246 93.3362 63.4164C94.63 64.5497 95.8398 65.6159 96.9571 66.6065C100.175 69.4609 103.216 72.1473 106.954 75.2283C115.196 82.0116 123.311 90.2052 121.026 99.5573Z" fill="#FFD200"/>
<path d="M73.9717 71.652C77.5757 68.6717 80.5497 66.0357 83.7085 63.2317C85.4644 61.6786 87.2706 60.0751 89.2785 58.329C89.3793 58.2366 89.4801 58.1443 89.5977 58.0519L92.7733 55.4662L96.3438 57.5314C96.5958 57.6825 96.8478 57.8504 97.0999 58.0519L97.3015 58.2198C99.385 60.0248 101.292 61.7122 102.981 63.2065C106.139 66.0021 109.122 68.6465 112.734 71.6268C118.061 76.0175 129.419 85.3864 130.41 97.9287C131.46 83.6906 118.523 73.012 112.734 68.2352C109.122 65.2549 106.139 62.6189 102.981 59.8149C101.292 58.3206 99.385 56.6332 97.3015 54.8282L97.0999 54.6603C96.8562 54.4588 96.6042 54.2909 96.3438 54.1482L92.7733 52.083L89.5977 54.6687C89.4801 54.761 89.3793 54.8534 89.2785 54.9457C87.2706 56.6835 85.4644 58.2954 83.7085 59.8485C80.5497 62.644 77.5757 65.2885 73.9717 68.2688C68.1917 73.0372 55.2792 83.7158 56.3209 97.9455C57.3207 85.4116 68.6538 76.0426 73.9717 71.652Z" fill="#FFFFAB"/>
<path d="M109.844 71.4253C106.182 68.4115 103.166 65.7335 99.9647 62.9043C98.1837 61.326 96.3438 59.6974 94.3276 57.9512L94.2687 57.9008C94.2183 57.8588 94.1511 57.8085 94.0671 57.7581L93.2102 57.2544L92.4373 57.884C92.3953 57.9176 92.3533 57.9512 92.3197 57.9848C90.3202 59.7226 88.4888 61.3428 86.7162 62.9127C83.5237 65.7419 80.5161 68.4199 76.8617 71.4337C67.5533 79.1236 58.4297 88.5681 61.3196 100.346C63.3863 108.758 72.0983 115.6 80.7262 115.6C81.8099 115.6 82.8937 115.491 83.9354 115.281C85.4056 114.988 86.8674 114.526 88.3628 113.888C87.9595 118.933 86.2541 123.676 83.8514 126.329L81.6755 128.739H84.9183C88.1612 128.739 90.127 128.705 91.8744 128.672C93.143 128.646 94.2435 128.63 95.5625 128.63C97.2763 128.63 99.2002 128.663 101.779 128.739L105.291 128.839L102.863 126.304C100.284 123.609 98.5197 118.933 98.1333 113.779C99.7295 114.475 101.284 114.962 102.829 115.281C103.863 115.491 104.938 115.592 106.013 115.592C114.658 115.592 123.362 108.742 125.42 100.313C128.302 88.5513 119.161 79.1069 109.844 71.4253Z" fill="url(#paint2_linear_16_1676)"/>
<path opacity="0.27" d="M109.844 71.4253C106.181 68.4115 103.165 65.7335 99.9647 62.9043C98.1836 61.326 96.3438 59.6974 94.3275 57.9512L94.2687 57.9008C94.2183 57.8588 94.1511 57.8085 94.0671 57.7581L93.2018 57.2544L92.4289 57.884C92.3869 57.9176 92.3449 57.9512 92.3113 57.9848C90.3118 59.7226 88.4804 61.3428 86.7077 62.9127C83.5153 65.7419 80.5077 68.4199 76.8533 71.4337C67.5448 79.1236 58.4212 88.5681 61.3112 100.346C61.3868 100.657 61.4792 100.968 61.5717 101.278C66.2931 103.234 71.5185 104.326 77.0129 104.326C95.6549 104.326 111.155 91.8338 114.389 75.3626C112.919 74.0194 111.382 72.7014 109.844 71.4253Z" fill="white"/>
<path opacity="0.8" d="M101.477 128.789C101.578 128.789 101.67 128.789 101.771 128.798L105.283 128.898L102.855 126.355C101.048 124.466 99.6454 121.603 98.8305 118.287C98.5953 118.195 98.36 118.102 98.1248 118.001C98.4441 122.182 99.6622 126.036 101.477 128.789Z" fill="white"/>
<path opacity="0.8" d="M76.8532 75.6735C80.5077 72.6512 83.5237 69.9816 86.7077 67.1524C88.4804 65.5826 90.3118 63.9623 92.3112 62.2245C92.3449 62.1909 92.3869 62.1574 92.4289 62.1238L93.2018 61.4941L94.0587 61.9895C94.1427 62.0398 94.2099 62.0902 94.2603 62.1322L94.3191 62.1825C96.3354 63.9287 98.1752 65.5574 99.9562 67.1357C103.157 69.9648 106.173 72.6428 109.836 75.6567C117.372 81.8775 124.798 89.24 125.832 98.0632C127.075 87.3595 118.539 78.6537 109.836 71.4843C106.19 68.4621 103.165 65.7924 99.973 62.9633C98.192 61.385 96.3522 59.7564 94.3359 58.0102L94.2771 57.9598C94.2267 57.9178 94.1595 57.8675 94.0755 57.8171L93.2186 57.3218L92.4457 57.9514C92.4037 57.985 92.3617 58.0186 92.3281 58.0522C90.3286 59.7899 88.4972 61.4102 86.7245 62.9801C83.5321 65.8092 80.5245 68.4789 76.87 71.5011C68.1917 78.6705 59.6646 87.3763 60.908 98.08C61.9245 89.2568 69.3343 81.8943 76.8532 75.6735Z" fill="white"/>
<path opacity="0.8" d="M87.6487 118.405C86.859 121.679 85.5232 124.541 83.8514 126.388L81.6755 128.789H84.9183C85.0023 128.789 85.0779 128.789 85.1619 128.789C86.859 126.053 88.0351 122.191 88.3627 118.119C88.1191 118.228 87.8839 118.312 87.6487 118.405Z" fill="white"/>
<path opacity="0.7" d="M81.8687 76.9661C85.288 73.1379 95.3357 61.3764 95.3357 61.3764C95.3357 61.3764 103.728 45.644 103.93 45.199C103.989 45.0731 93.2018 59.9996 93.2018 59.9996L81.8687 76.9661Z" fill="white"/>
<path d="M96.2766 58.5554C93.1766 56.1376 93.7395 49.3292 93.7143 47.4067C93.7143 47.9608 93.7143 48.5821 93.7143 49.2537C93.7143 48.9514 93.6975 48.6408 93.6975 48.5737C93.6975 48.1623 93.6975 47.7761 93.6975 47.4067C93.6891 47.9608 93.6555 48.8339 93.5294 49.8413C93.5294 49.8413 92.6221 56.6665 90.9839 58.0769C87.2958 61.3006 78.0126 60.6878 81.5663 60.7717C93.5883 61.032 93.5883 72.7516 93.6975 76.5965C93.6975 76.0844 93.6975 75.4296 93.6975 74.6573C93.7059 74.8 93.7143 74.9091 93.7143 74.9847C93.7143 75.6143 93.7143 76.16 93.7143 76.5965C93.9663 67.4962 93.9411 61.7372 104.434 60.9648C107.895 60.7046 99.8975 61.3762 96.2766 58.5554Z" fill="white"/>
<defs>
<radialGradient id="paint0_radial_16_1676" cx="0" cy="0" r="1" gradientUnits="userSpaceOnUse" gradientTransform="translate(93.5012 94.0013) scale(93.7852 93.7183)">
<stop offset="0.2364" stop-color="#43FF36"/>
<stop offset="1" stop-color="#005C00" stop-opacity="0"/>
</radialGradient>
<linearGradient id="paint1_linear_16_1676" x1="93.3663" y1="131.175" x2="93.3663" y2="64.1227" gradientUnits="userSpaceOnUse">
<stop stop-color="#005C00"/>
<stop offset="0.7636" stop-color="#17B70C"/>
</linearGradient>
<linearGradient id="paint2_linear_16_1676" x1="93.3658" y1="133.923" x2="93.3658" y2="57.0216" gradientUnits="userSpaceOnUse">
<stop stop-color="#005C00"/>
<stop offset="0.7636" stop-color="#17B70C"/>
</linearGradient>
</defs>
</svg>
