<svg width="188" height="189" viewBox="0 0 188 189" fill="none" xmlns="http://www.w3.org/2000/svg">
<path d="M188 79.9414L109.114 90.3139L182.155 58.6057L167.316 33.5902L106.344 81.9416L153.675 20.0529L128.616 5.44365L98.261 78.5826L108.481 0H79.5193L89.8403 79.3084L58.2944 5.88251L33.4125 20.7956L81.5041 82.0936L19.9411 34.5102L5.4139 59.6944L78.1764 90.221L0 79.9414V109.059L78.8943 98.6861L5.84465 130.394L20.6843 155.41L81.6561 107.067L34.3246 168.956L59.384 183.556L89.7474 110.417L79.5193 189H108.481L98.1681 109.683L129.706 183.126L154.588 168.213L106.496 106.906L168.059 154.498L182.586 129.306L109.832 98.779L188 109.059V79.9414Z" fill="url(#paint0_radial_16_1284)"/>
<path d="M141.049 74.6497L141.032 71.2907H140.905C140.339 63.9734 137.932 57.0106 133.844 50.9002L133.996 50.8074L132.138 48.402C125.204 39.4475 115.17 33.5734 103.911 31.8517L103.447 31.7842C102.873 31.6998 102.298 31.6238 101.715 31.5647C101.504 31.5394 101.302 31.531 101.09 31.5056L100.761 31.4803C100.313 31.4466 99.8742 31.4044 99.4266 31.379C98.8353 31.3453 98.2272 31.3368 97.6191 31.3284L97.4755 31.32C97.3488 31.3115 97.2222 31.3115 97.0955 31.3115H97.0026C96.2086 31.3115 95.3725 31.3368 94.4519 31.3875L94.3252 31.3959C93.5144 31.4466 92.6866 31.5141 91.7407 31.6238C70.879 34.0713 54.7133 50.8918 53.1086 71.2738H52.965V80.2031C52.965 103.75 72.7202 122.908 97.0026 122.908C121.285 122.908 141.049 103.775 141.049 80.2199V74.7425V74.6497Z" fill="#A85900"/>
<path d="M144.672 74.6327L144.14 67.6699C143.312 62.2178 141.513 56.9345 138.827 52.107L135.001 46.1907C127.493 36.5019 116.648 30.1383 104.435 28.2731L103.962 28.2056C103.337 28.1128 102.721 28.0368 102.087 27.9693C101.893 27.9524 101.699 27.9355 101.504 27.9187L101.074 27.8849C100.592 27.8427 100.102 27.8005 99.6293 27.7752C98.9874 27.7414 98.337 27.7245 97.7374 27.7161H97.636C97.4586 27.7077 97.2813 27.6992 97.0194 27.6992C96.158 27.6992 95.2542 27.7245 94.2069 27.7836L94.1309 27.7921C93.2272 27.8427 92.3403 27.9271 91.3353 28.0452C69.9753 30.5434 53.041 46.9672 49.8822 67.6699H49.3416V80.2283C49.3416 105.775 70.727 126.554 97.0025 126.554C123.278 126.554 144.663 105.775 144.663 80.2283V74.8184L144.672 74.6327ZM137.425 80.2198C137.425 101.767 119.3 119.304 97.011 119.304C74.7304 119.304 56.5968 101.775 56.5968 80.2198V73.2317L56.7235 71.5691C58.2015 52.7484 73.1088 37.464 92.163 35.2275C93.0245 35.1262 93.7846 35.0587 94.5954 35.0081L94.663 34.9996C95.5245 34.949 96.2931 34.9321 97.1039 34.9321C97.1799 34.9321 97.2559 34.9321 97.3742 34.9405L97.5769 34.949C98.1428 34.9574 98.6918 34.9659 99.2492 34.9996C99.6546 35.0249 100.052 35.0587 100.474 35.0925L101.352 35.1684C101.884 35.2275 102.416 35.295 102.932 35.3625L103.371 35.43C113.709 37.0083 122.915 42.4013 129.275 50.6216L130.837 52.9088C134.604 58.5465 136.783 64.8257 137.299 71.5691L137.417 73.1558L137.425 74.5821V74.7509V80.2198Z" fill="url(#paint1_linear_16_1284)"/>
<path d="M141.049 74.6497L141.032 71.2907H140.905C140.339 63.9734 137.932 57.0106 133.844 50.9002L133.996 50.8074L132.138 48.402C125.204 39.4475 115.17 33.5734 103.911 31.8517L103.447 31.7842C102.873 31.6998 102.298 31.6238 101.715 31.5647C101.504 31.5394 101.302 31.531 101.09 31.5056L100.761 31.4803C100.313 31.4466 99.8742 31.4044 99.4266 31.379C98.8353 31.3453 98.2272 31.3368 97.6191 31.3284L97.4755 31.32C97.3488 31.3115 97.2222 31.3115 97.0955 31.3115H97.0026C96.2086 31.3115 95.3725 31.3368 94.4519 31.3875L94.3252 31.3959C93.5144 31.4466 92.6866 31.5141 91.7407 31.6238C70.879 34.0713 54.7133 50.8918 53.1086 71.2738H52.965V80.2031C52.965 103.75 72.7202 122.908 97.0026 122.908C121.285 122.908 141.049 103.775 141.049 80.2199V74.7425V74.6497Z" fill="#A85900"/>
<path d="M138.498 74.0079C136.353 45.127 118.768 40.2319 97.3995 40.2319C76.0142 40.2319 58.4211 44.8147 56.2927 74.0079H56.0816V80.228C56.0816 102.315 74.5784 120.216 97.3995 120.216C120.221 120.216 138.717 102.315 138.717 80.228V74.0079H138.498Z" fill="url(#paint2_linear_16_1284)"/>
<path d="M138.717 74.6324C138.717 97.0568 120.221 115.228 97.3995 115.228C74.5784 115.228 56.0816 97.0484 56.0816 74.6324C56.0816 52.2164 74.5784 34.0371 97.3995 34.0371C120.221 34.0371 138.717 52.2164 138.717 74.6324Z" fill="#FFD200"/>
<path opacity="0.49" d="M97.3995 34.0371C74.5784 34.0371 56.0816 52.2164 56.0816 74.6324C56.0816 75.1219 56.0985 75.6114 56.1154 76.1009C66.6391 85.3762 81.1325 91.1068 97.1292 91.1068C113.405 91.1068 128.126 85.1736 138.692 75.6029C138.701 75.2738 138.717 74.9531 138.717 74.6239C138.717 52.2164 120.221 34.0371 97.3995 34.0371Z" fill="white"/>
<path opacity="0.49" d="M130.381 50.0644C122.83 40.3249 110.913 34.0288 97.4924 34.0288C83.9703 34.0288 71.9601 40.4093 64.4262 50.2838C73.7675 55.9469 85.0599 59.2637 97.2306 59.2637C109.545 59.2721 120.964 55.8709 130.381 50.0644Z" fill="white"/>
<path opacity="0.49" d="M97.3995 36.3582C119.824 36.3582 138.059 53.9129 138.684 75.7887C138.692 75.4005 138.717 75.0207 138.717 74.6241C138.717 52.2081 120.221 34.0288 97.3995 34.0288C74.5784 34.0288 56.0816 52.2081 56.0816 74.6241C56.0816 75.0123 56.0985 75.4005 56.1069 75.7887C56.7404 53.9129 74.9753 36.3582 97.3995 36.3582Z" fill="white"/>
<path opacity="0.8" d="M97.3995 113.515C74.874 113.515 56.5714 95.7996 56.0985 73.7803C56.09 74.0672 56.0731 74.3542 56.0731 74.6411C56.0731 97.0656 74.5699 115.236 97.3911 115.236C120.212 115.236 138.709 97.0571 138.709 74.6411C138.709 74.3542 138.692 74.0672 138.692 73.7803C138.236 95.7996 119.925 113.515 97.3995 113.515Z" fill="white"/>
<path d="M131.116 74.6324C131.116 92.9298 116.023 107.758 97.3995 107.758C78.7845 107.758 63.683 92.9298 63.683 74.6324C63.683 56.3434 78.776 41.5063 97.3995 41.5063C116.023 41.5063 131.116 56.3434 131.116 74.6324Z" fill="url(#paint3_linear_16_1284)"/>
<path opacity="0.73" d="M97.3995 105.944C79.1054 105.944 64.2235 91.63 63.7083 73.7715C63.6999 74.0922 63.683 74.4045 63.683 74.7252C63.683 93.0226 78.776 107.851 97.3995 107.851C116.015 107.851 131.116 93.0226 131.116 74.7252C131.116 74.4045 131.099 74.0922 131.091 73.7715C130.575 91.63 115.694 105.944 97.3995 105.944Z" fill="white"/>
<path d="M97.3995 45.6249C115.288 45.6249 129.925 59.3227 131.04 76.6242C131.082 75.9237 131.116 75.2147 131.116 74.5058C131.116 56.2168 116.023 41.3882 97.3995 41.3882C78.7845 41.3882 63.683 56.2168 63.683 74.5058C63.683 75.2232 63.7168 75.9237 63.759 76.6242C64.8823 59.3227 79.5108 45.6249 97.3995 45.6249Z" fill="#C45B28"/>
<path d="M116.327 81.4096C116.327 81.3252 116.335 81.2408 116.327 81.1648C116.243 77.3416 114.773 74.2105 111.918 71.7883C109.756 69.9821 105.508 68.3111 99.1478 66.775L99.0634 62.8506L98.9705 58.3353C100.06 58.8839 100.845 59.4409 101.327 59.9979C101.808 60.5549 102.349 61.5508 102.965 63.0025L114.528 60.9432V60.9347C114.494 60.7828 114.444 60.6478 114.401 60.4959L114.52 60.479C114.52 60.479 114.52 60.479 114.52 60.4705C113.709 57.1959 112.045 54.6387 109.545 52.8072C107.036 50.9674 103.455 49.9546 98.7931 49.7605V49.7689L98.7509 47.794L98.734 47.1864L98.7255 46.7222L94.1731 46.815V46.8234V46.9163L94.19 47.8615L94.2322 49.8702C89.1224 50.2415 85.2963 51.6847 82.7625 54.1998C80.5412 56.3941 79.325 59.0358 79.1054 62.1163C79.097 62.1838 79.1054 62.2513 79.097 62.3104C79.0716 62.6818 79.0632 63.0615 79.0716 63.4498C79.0716 63.4582 79.0716 63.4667 79.0716 63.4667C79.0716 63.5595 79.0801 63.6523 79.0801 63.7452C79.0801 63.7958 79.0801 63.8464 79.0801 63.8971V63.9055C79.1392 66.5725 79.8233 68.8343 81.1578 70.6658C82.4838 72.4972 84.0294 73.8222 85.8116 74.6325C86.4788 74.9363 87.3234 75.257 88.3369 75.5946C88.3454 75.5946 88.3623 75.5946 88.3707 75.5946C90.043 76.1601 92.1883 76.7677 94.8066 77.426L94.7981 76.9703L95.0262 87.8576V87.8491C93.5566 87.1824 92.4924 86.4059 91.842 85.5113C91.1917 84.6167 90.6511 83.1566 90.2457 81.1311L77.678 82.8359C77.678 82.8359 77.678 82.8359 77.678 82.8443C77.6865 82.895 77.7034 82.9372 77.7118 82.9878C77.7372 83.0891 77.754 83.1904 77.7794 83.2832L77.6865 83.2917C78.1003 85.3341 78.7 87.0811 79.477 88.5074C80.2541 89.9422 81.3436 91.2672 82.7541 92.4994C84.1646 93.7232 85.8284 94.6684 87.7457 95.3352C89.6629 96.0019 92.1461 96.4408 95.212 96.6434L95.2035 96.1876L95.288 100.433L95.3302 102.467L99.8826 102.374L99.8404 100.34L99.7559 96.1032L99.7644 96.559C102.324 96.3986 104.477 96.0188 106.234 95.428C107.991 94.8288 109.638 93.8836 111.183 92.5923C112.729 91.301 113.979 89.7143 114.95 87.8238C115.922 85.9333 116.386 83.8656 116.335 81.6206C116.335 81.5446 116.327 81.4771 116.327 81.4096ZM91.0903 61.0866C91.1241 60.9685 91.1748 60.8503 91.217 60.7406C91.2508 60.6478 91.2846 60.5549 91.3353 60.4705C91.3859 60.3693 91.4535 60.2764 91.5211 60.1751C91.5717 60.0908 91.6224 60.0064 91.6815 59.9304C92.1883 59.2805 93.1005 58.7235 94.4265 58.2678L94.5785 65.7201V65.7116C93.2525 65.2896 92.3234 64.7495 91.7745 64.0828C91.7407 64.0406 91.7069 63.9899 91.6731 63.9393C91.5971 63.838 91.5211 63.7367 91.4619 63.627C91.4197 63.5511 91.3859 63.4751 91.3437 63.3991C91.3015 63.3063 91.2592 63.2135 91.217 63.1206C91.1832 63.0362 91.1494 62.9434 91.1241 62.8506C91.0988 62.7662 91.0734 62.6733 91.0565 62.5805C91.0312 62.4792 91.0143 62.3864 90.9974 62.2851C90.9805 62.1838 90.9721 62.0741 90.9636 61.9644C90.9721 61.669 91.0143 61.3736 91.0903 61.0866ZM103.514 80.8104C103.979 81.3252 104.291 81.8822 104.46 82.473C104.477 82.3886 104.486 82.3042 104.503 82.2282C104.562 82.4814 104.604 82.7431 104.604 83.0131C104.604 83.2326 104.587 83.4436 104.553 83.6546C104.536 83.7896 104.511 83.9162 104.486 84.0428C104.46 84.1609 104.427 84.2791 104.393 84.3888C104.351 84.507 104.317 84.6251 104.266 84.7433C104.215 84.8699 104.148 84.988 104.08 85.1062C104.021 85.2075 103.971 85.3172 103.903 85.4185C103.81 85.5619 103.7 85.7054 103.59 85.8405C103.54 85.908 103.489 85.9755 103.438 86.043C102.636 86.9545 101.352 87.6297 99.5955 88.0601L99.4012 78.6329C101.437 79.2743 102.805 80.0086 103.514 80.8104Z" fill="#C45B28"/>
<path d="M93.1174 104.788L92.9907 98.7279C90.6342 98.4663 88.6663 98.0611 87.0024 97.4704C84.8234 96.7108 82.8892 95.6136 81.276 94.2042C79.6713 92.8116 78.396 91.2503 77.4922 89.5876C76.6138 87.9756 75.9297 86.0092 75.4736 83.7473L75.3807 83.3L74.2405 81.0213L90.9974 78.7425C89.891 78.4303 88.8944 78.1349 88.016 77.8479H88.0075L87.619 77.7298C86.5548 77.3669 85.6342 77.0208 84.8909 76.6832C82.7541 75.7127 80.8875 74.1344 79.3335 71.9823C77.7372 69.7795 76.8926 67.0788 76.8334 63.9476C76.8334 63.8632 76.8334 63.7957 76.8334 63.7282V63.7198L76.825 63.5088C76.8165 63.0193 76.8334 62.5804 76.8588 62.1415C76.8588 62.0909 76.8588 62.0065 76.8672 61.9221C77.129 58.2846 78.5818 55.1365 81.1916 52.554C83.7254 50.0389 87.3403 48.4522 91.9434 47.8024L91.8843 44.5784L101.006 44.3843L101.023 47.6336C105.128 48.0471 108.438 49.1696 110.888 50.9673C113.819 53.1194 115.786 56.1324 116.724 59.9134L116.792 60.1835V60.5295L117.509 62.6986L102.67 65.3402C107.788 66.7581 111.302 68.311 113.379 70.0411C116.749 72.9107 118.506 76.6242 118.599 81.1057C118.599 81.1901 118.599 81.2745 118.599 81.3589C118.607 81.4348 118.607 81.4939 118.607 81.5614C118.667 84.1693 118.109 86.6253 116.969 88.8449C115.863 90.9971 114.401 92.8454 112.636 94.3139C110.896 95.7655 108.996 96.8543 106.977 97.5548C105.567 98.0358 103.928 98.3903 102.079 98.6097L102.205 104.585L93.1174 104.788ZM97.484 96.7192L97.5769 100.163L97.4924 96.1538L99.739 96.1031L99.6293 94.297C101.969 94.1535 103.954 93.8075 105.508 93.2758C106.994 92.761 108.413 91.9508 109.731 90.8452C111.031 89.7564 112.112 88.3892 112.94 86.7856C113.743 85.2158 114.114 83.5363 114.08 81.6711L114.064 81.4264L114.072 81.207C114.004 78.0336 112.822 75.5101 110.457 73.5014C109.173 72.4296 106.074 70.767 98.6242 68.9693L96.9265 68.5558L96.8421 64.5047V65.7116H94.5785L93.8944 67.8637C92.1292 67.2982 90.8707 66.5302 90.0346 65.5174C89.967 65.433 89.9079 65.3486 89.8488 65.2642C89.7474 65.1208 89.6292 64.9604 89.5278 64.7916C89.4602 64.6819 89.4096 64.5722 89.3589 64.4709C89.2575 64.2684 89.19 64.1249 89.1308 63.973C89.0717 63.8295 89.021 63.686 88.9788 63.5425C88.9366 63.3906 88.8944 63.2556 88.8606 63.1121C88.8183 62.918 88.7846 62.783 88.7677 62.6479C88.7423 62.496 88.7339 62.3441 88.717 62.1922L88.7085 61.9052C88.7254 61.3988 88.8015 60.9178 88.9281 60.4705C88.9873 60.2679 89.0633 60.0738 89.1393 59.8881C89.2153 59.7024 89.2744 59.559 89.342 59.4239C89.4096 59.2889 89.5025 59.137 89.6038 58.9935C89.7305 58.7909 89.8065 58.6644 89.9079 58.5462C90.7018 57.525 91.9434 56.7401 93.7001 56.1324L96.6478 55.1112L96.859 64.0658L96.6647 54.6217L100.026 56.3097C101.394 56.9933 102.4 57.7191 103.084 58.5124C103.489 58.9851 103.903 59.618 104.325 60.4536L111.716 59.137L111.648 58.8838C110.879 57.1368 109.756 55.7273 108.244 54.6133C106.124 53.0603 102.923 52.1826 98.7424 52.0054L98.8353 49.7688L96.5718 49.7942L96.5296 49.0008L96.5887 51.9379L94.4434 52.0982C89.9079 52.4274 86.5379 53.668 84.4011 55.778C82.5683 57.5925 81.5885 59.7109 81.4027 62.2428C81.4027 62.2681 81.4027 62.3356 81.4027 62.4032C81.3858 62.7323 81.3689 63.053 81.3774 63.3737L81.3943 63.7198V63.8632C81.4365 66.066 81.9771 67.8637 83.0413 69.3238C84.1477 70.8514 85.3724 71.9063 86.7997 72.5562C87.3403 72.801 88.0244 73.0626 88.8268 73.3411L89.1393 73.4339C90.744 73.9656 92.8471 74.5733 95.4147 75.2147L94.9755 76.9533L97.1123 76.9111L97.3319 86.3721L97.1039 75.4932L100.128 76.4722C101.268 76.8436 102.248 77.2403 103.058 77.6707L104.283 70.902L106.749 81.7133C106.851 82.1438 106.901 82.5573 106.91 82.954C106.918 83.3253 106.876 83.6545 106.842 83.933C106.817 84.1271 106.775 84.3297 106.732 84.5322C106.69 84.7263 106.639 84.9036 106.58 85.0808C106.521 85.258 106.462 85.4437 106.386 85.6209C106.302 85.8151 106.209 86.0007 106.107 86.1864C106.014 86.3552 105.938 86.4987 105.854 86.6337C105.846 86.6422 105.837 86.659 105.829 86.6675L104.697 91.4275L103.903 88.6508C102.906 89.3429 101.656 89.883 100.161 90.2459L97.4164 90.9211L97.3235 86.6253V87.8322L96.7407 87.8406L94.9839 87.9841L94.114 89.8915C92.2643 89.0559 90.9298 88.0516 90.0346 86.8278C89.4518 86.0261 88.9619 84.9711 88.5565 83.6292L80.4568 84.7263L80.5581 85.1736H80.5412C80.8115 86.0092 81.1325 86.7519 81.4872 87.4102C82.1375 88.6002 83.0666 89.7311 84.2659 90.7692C85.4484 91.7989 86.8758 92.6091 88.5143 93.1745C90.2373 93.7738 92.543 94.1789 95.3809 94.3645L95.2627 96.1706L97.484 96.12V96.7192ZM101.741 82.2282L101.791 84.4731L101.808 84.4478C101.893 84.3465 101.952 84.2706 102.011 84.1946L102.087 84.0511C102.129 83.9668 102.163 83.9077 102.188 83.8486C102.205 83.8064 102.222 83.7558 102.239 83.6967C102.256 83.6376 102.273 83.5785 102.29 83.5194C102.298 83.4772 102.315 83.4182 102.324 83.3591C102.324 83.3253 102.332 83.2831 102.34 83.2494L102.298 83.089C102.222 82.8274 102.079 82.5742 101.842 82.3126C101.808 82.2872 101.783 82.2619 101.741 82.2282ZM92.1376 79.0464L92.467 80.6668C92.5261 80.9369 92.5768 81.1816 92.6359 81.4095L92.5853 79.1645C92.4417 79.1308 92.2897 79.0886 92.1376 79.0464Z" fill="#C45B28"/>
<path d="M114.722 60.4622L103.16 62.5215C102.543 61.0698 102.003 60.0739 101.521 59.5169C101.04 58.9599 100.254 58.4029 99.1647 57.8543L99.3506 66.7667C105.702 68.3027 109.959 69.9738 112.121 71.7799C114.976 74.2105 116.445 77.3333 116.53 81.1565C116.572 83.393 116.116 85.4607 115.145 87.3512C114.173 89.2418 112.923 90.8284 111.378 92.1197C109.832 93.411 108.185 94.3478 106.428 94.9555C104.672 95.5631 102.518 95.9345 99.9587 96.0948L100.077 101.918L95.5245 102.011L95.4063 96.1877C92.3404 95.9851 89.8572 95.5462 87.94 94.8795C86.0227 94.2128 84.3589 93.2675 82.9484 92.0353C81.5379 90.8116 80.4484 89.4865 79.6713 88.0517C78.8943 86.617 78.2946 84.8784 77.8808 82.8275L90.4484 81.1227C90.8623 83.1482 91.4028 84.6083 92.0532 85.4945C92.7035 86.3807 93.7677 87.1656 95.2373 87.8323L95.0093 76.945C90.7863 75.8816 87.788 74.9448 86.0143 74.1346C84.2322 73.3244 82.6866 72.0078 81.3605 70.1763C80.0345 68.3449 79.3419 66.0915 79.2913 63.4161C79.2152 59.7617 80.4484 56.6727 82.9822 54.1577C85.516 51.6511 89.342 50.2079 94.4519 49.8365L94.3927 46.7813L98.9452 46.6885L99.0043 49.7437C103.666 49.9378 107.248 50.9506 109.756 52.7904C112.248 54.6387 113.912 57.1875 114.722 60.4622ZM94.6123 57.7952C93.2948 58.2594 92.3741 58.808 91.8674 59.4578C91.3606 60.1077 91.1157 60.8673 91.1326 61.7366C91.1495 62.6481 91.4366 63.433 91.9687 64.0913C92.5093 64.7496 93.4468 65.2982 94.7728 65.7201L94.6123 57.7952ZM99.7898 88.0517C101.547 87.6298 102.83 86.9546 103.633 86.0346C104.435 85.1231 104.824 84.1104 104.798 82.9963C104.781 82.0258 104.41 81.1396 103.7 80.3462C102.991 79.5445 101.614 78.8186 99.5786 78.1603L99.7898 88.0517Z" fill="#FFD200"/>
<path opacity="0.49" d="M99.1732 58.3271C100.263 58.8757 101.048 59.4328 101.53 59.9898C102.011 60.5468 102.552 61.5427 103.168 62.9943L114.731 60.935C113.92 57.6604 112.256 55.1032 109.756 53.2717C107.256 51.4319 103.666 50.4191 99.0043 50.225L98.9451 47.1782L94.3927 47.2626L94.4519 50.3178C89.342 50.6892 85.516 52.1324 82.9822 54.639C80.4484 57.154 79.2152 60.2345 79.2912 63.8974C79.3504 66.5644 80.0345 68.8262 81.369 70.6576C82.695 72.4891 84.2406 73.8141 86.0227 74.6243C86.69 74.9282 87.5346 75.2489 88.5481 75.5865C89.5785 75.6118 90.6258 75.6202 91.6731 75.5949C98.7678 75.4514 105.525 74.1433 111.682 71.8983C109.41 70.2272 105.305 68.6743 99.3674 67.2395L99.1732 58.3271ZM94.7812 66.1846C93.4552 65.7626 92.5262 65.2224 91.9856 64.5557C91.4451 63.8974 91.1663 63.1125 91.1495 62.201C91.1326 61.3317 91.3775 60.5721 91.8843 59.9223C92.391 59.2724 93.3032 58.7154 94.6292 58.2596L94.7812 66.1846Z" fill="white"/>
<path d="M94.7728 65.7116C93.4468 65.2896 92.5177 64.7495 91.9687 64.0828C91.538 63.5595 91.2761 62.9518 91.1748 62.2598C91.1579 62.4286 91.1495 62.5974 91.1495 62.7746C91.1664 63.6861 91.4451 64.4625 91.9856 65.1293C92.5262 65.7876 93.4637 66.3277 94.7897 66.7582L94.7728 65.7116Z" fill="white"/>
<path d="M92.0701 86.5493C92.7204 87.4355 93.7846 88.2204 95.2542 88.8871L95.2289 87.8406C93.7593 87.1739 92.6951 86.3974 92.0447 85.5028C91.3944 84.6082 90.8539 83.1481 90.44 81.1226L77.8723 82.8274C77.9483 83.1734 78.0243 83.511 78.1004 83.8486L90.4569 82.1691C90.8792 84.1946 91.4197 85.6547 92.0701 86.5493Z" fill="white"/>
<path d="M112.138 72.8264C114.849 75.1304 116.31 78.0674 116.521 81.629C116.53 81.4687 116.53 81.3168 116.53 81.1564C116.445 77.3332 114.976 74.202 112.121 71.7798C109.959 69.9737 105.702 68.3026 99.3506 66.7666L99.3759 67.8131C105.727 69.3492 109.984 71.0202 112.138 72.8264Z" fill="white"/>
<path d="M98.9341 46.7042L94.3826 46.7988L94.4044 47.8451L98.9558 47.7505L98.9341 46.7042Z" fill="white"/>
<path d="M109.764 53.8369C112.003 55.4911 113.574 57.7108 114.46 60.5044L114.722 60.4537C113.911 57.1791 112.248 54.6218 109.748 52.7904C107.239 50.9505 103.658 49.9378 98.9958 49.7437L99.0212 50.7902C103.683 50.9843 107.264 51.9971 109.764 53.8369Z" fill="white"/>
<path d="M104.824 84.0427C104.824 83.8654 104.798 83.7051 104.773 83.5278C104.68 84.4309 104.3 85.2664 103.633 86.0344C102.83 86.9459 101.547 87.6211 99.7897 88.0515L99.8151 89.0981C101.572 88.6676 102.856 88.0009 103.658 87.081C104.46 86.1695 104.849 85.1567 104.824 84.0427Z" fill="white"/>
<path d="M94.4688 50.883L94.4434 49.8364C89.3336 50.2078 85.5075 51.651 82.9737 54.166C80.4315 56.6726 79.2068 59.7616 79.2828 63.4244C79.2913 63.6186 79.2913 63.8042 79.3081 63.9899C79.3419 60.538 80.575 57.6179 82.9991 55.2126C85.5329 52.7059 89.3589 51.2627 94.4688 50.883Z" fill="white"/>
<path opacity="0.31" d="M85.9805 72.5649C84.1984 71.7547 82.6528 70.4381 81.3267 68.6066C80.1781 67.02 79.5024 65.121 79.3081 62.9014C79.2912 63.2221 79.2828 63.5512 79.2912 63.8888C79.3419 66.5642 80.0345 68.8092 81.3605 70.6491C82.6866 72.4805 84.2406 73.8055 86.0143 74.6073C87.7879 75.4175 90.7863 76.3459 95.0093 77.4178L94.9671 75.3838C90.7441 74.3119 87.7542 73.3667 85.9805 72.5649Z" fill="#A85900"/>
<path opacity="0.31" d="M111.344 90.5499C109.798 91.8327 108.151 92.778 106.395 93.3772C104.638 93.9764 102.484 94.3562 99.9249 94.5166L99.9671 96.5505C102.526 96.3902 104.68 96.0104 106.437 95.4196C108.194 94.8204 109.841 93.8751 111.386 92.5838C112.932 91.2926 114.182 89.7059 115.153 87.8154C116.124 85.9249 116.589 83.8571 116.538 81.6122C116.53 81.2577 116.504 80.9201 116.479 80.5825C116.386 82.4393 115.93 84.1694 115.111 85.773C114.14 87.6719 112.881 89.2586 111.344 90.5499Z" fill="#A85900"/>
<path opacity="0.31" d="M100.05 100.344L95.4982 100.44L95.5414 102.474L100.093 102.378L100.05 100.344Z" fill="#A85900"/>
<path opacity="0.31" d="M94.6208 58.2508L94.5785 56.2168C93.2525 56.6725 92.3403 57.2296 91.8336 57.8879C91.3268 58.5377 91.0819 59.2973 91.0988 60.1582C91.1072 60.5211 91.1579 60.8671 91.2508 61.1963C91.3691 60.7321 91.5718 60.3101 91.8758 59.9219C92.3826 59.272 93.2947 58.715 94.6208 58.2508Z" fill="#A85900"/>
<path opacity="0.31" d="M103.717 80.8102C104.182 81.325 104.494 81.8821 104.663 82.4728C104.748 82.1353 104.781 81.7892 104.773 81.4263C104.748 80.4557 104.384 79.5696 103.675 78.7678C102.965 77.9745 101.589 77.2402 99.5533 76.5903L99.5955 78.6243C101.631 79.2742 102.999 80.0084 103.717 80.8102Z" fill="#A85900"/>
<path opacity="0.31" d="M79.6798 88.5073C80.4568 89.942 81.5463 91.2671 82.9568 92.4993C84.3673 93.723 86.0312 94.6683 87.9484 95.335C89.8657 96.0018 92.3488 96.4406 95.4147 96.6432L95.3725 94.6092C92.3066 94.4067 89.8234 93.9678 87.9062 93.3011C85.989 92.6343 84.3251 91.6806 82.9146 90.4569C81.5041 89.2331 80.4146 87.8996 79.6375 86.4733C79.1223 85.528 78.6916 84.4393 78.3284 83.2324L77.8808 83.2915C78.3031 85.3339 78.9027 87.081 79.6798 88.5073Z" fill="#A85900"/>
<path opacity="0.31" d="M101.487 57.9385C101.006 57.3815 100.22 56.8329 99.131 56.2759L99.1732 58.3099C100.263 58.8669 101.048 59.4155 101.53 59.9725C102.011 60.5295 102.56 61.5254 103.168 62.977L114.731 60.9177C114.562 60.2426 114.351 59.6011 114.114 58.985L103.126 60.9431C102.518 59.4914 101.969 58.4955 101.487 57.9385Z" fill="#A85900"/>
<path d="M101.91 120.292L94.6968 111.076H85.9298V119.828C85.3639 118.055 84.4349 116.41 83.1257 114.924C80.4906 111.936 76.9095 110.426 72.4922 110.426C68.0749 110.426 64.5023 111.936 61.8587 114.924C60.8029 116.114 59.9583 117.557 59.3417 119.195C58.7759 120.714 58.4718 122.225 58.4296 123.702C58.0748 123.254 57.6441 122.858 57.1458 122.52C57.7032 121.473 57.9904 120.233 57.9904 118.815C57.9904 113.886 55.0005 111.067 49.7893 111.067H39.3162V136.91H50.4312C53.7674 136.91 56.3434 135.939 58.0833 134.015C59.0292 132.968 59.6289 131.711 59.8738 130.251C60.3975 131.28 61.0647 132.268 61.8756 133.188C64.5107 136.175 68.0834 137.686 72.4922 137.686C76.9095 137.686 80.4906 136.175 83.1257 133.188C84.4349 131.702 85.3639 130.065 85.9298 128.293V136.918H95.7779V127.694L102.991 136.918H111.758V111.076H101.91V120.292ZM49.1727 128.394V128.09C49.6795 128.107 49.9075 128.132 49.9751 128.141C50.0511 128.158 50.1187 128.166 50.1609 128.183C50.1609 128.2 50.1609 128.217 50.1609 128.234C50.0258 128.284 49.7386 128.352 49.1727 128.394ZM75.5834 126.639C74.7726 127.584 73.7929 128.031 72.5006 128.031C71.2168 128.031 70.2456 127.584 69.4432 126.639C68.7844 125.862 68.4803 125.043 68.4803 124.081C68.4803 123.617 68.5648 123.17 68.7337 122.714C69.0293 121.912 69.5023 121.296 70.1949 120.824C70.8875 120.343 71.6476 120.106 72.5091 120.106C73.776 120.106 74.7642 120.553 75.6088 121.516C76.2507 122.25 76.5463 123.06 76.5463 124.081C76.5378 125.069 76.2338 125.879 75.5834 126.639Z" fill="url(#paint4_linear_16_1284)"/>
<path d="M135.17 125.659V111.084H125.322V124.891C125.322 127.162 124.967 127.727 124.95 127.753C124.748 128.031 124.418 128.326 123.548 128.326C123.253 128.326 122.999 128.276 122.763 128.158C122.307 127.947 122.02 127.651 121.961 126.849C121.935 126.453 121.918 125.794 121.918 124.891V111.084H112.07V125.659C112.07 127.449 112.205 128.867 112.476 129.989C112.89 131.702 113.692 133.162 114.849 134.319C116.927 136.412 119.79 137.475 123.354 137.475C126.834 137.475 129.689 136.445 131.842 134.411C133.38 132.951 134.376 131.289 134.79 129.457C135.052 128.377 135.17 127.103 135.17 125.659Z" fill="url(#paint5_linear_16_1284)"/>
<path d="M153.152 122.841C152.544 122.073 151.758 121.414 150.778 120.857L154.554 113.523L152.696 112.552C150.162 111.227 147.527 110.552 144.849 110.552C141.91 110.552 139.503 111.573 137.704 113.574C136.15 115.287 135.364 117.439 135.364 119.971C135.364 122.545 136.209 124.537 137.873 125.904C137.898 125.921 137.915 125.938 137.94 125.963L133.886 133.584L135.407 134.656C138.076 136.547 141.015 137.5 144.157 137.5C145.677 137.5 147.13 137.264 148.464 136.8C152.544 135.39 154.706 132.226 154.706 127.66C154.697 125.744 154.174 124.123 153.152 122.841ZM144.013 128.596C143.211 128.596 142.341 128.267 141.42 127.617C141.775 127.727 142.206 127.862 142.738 128.014C143.565 128.25 144.055 128.445 144.334 128.571C144.233 128.588 144.123 128.596 144.013 128.596Z" fill="url(#paint6_linear_16_1284)"/>
<path d="M53.6829 123.313C54.4515 122.857 55.0258 122.309 55.3975 121.667C55.8451 120.908 56.0647 119.963 56.0647 118.832C56.0647 115.067 54.0376 113.194 49.9751 113.194H41.6051V134.817H50.6086C53.3366 134.817 55.3637 134.082 56.6981 132.614C57.6188 131.601 58.0748 130.284 58.0748 128.672C58.0748 127.432 57.7877 126.335 57.2218 125.398C56.5883 124.36 55.4144 123.668 53.6829 123.313ZM47.2302 117.464H48.2521C48.7758 117.464 49.1981 117.515 49.5106 117.625C50.3974 117.945 50.8366 118.587 50.8366 119.574C50.8366 120.131 50.6677 120.604 50.3298 120.984C49.9075 121.456 49.215 121.693 48.2437 121.693H47.2217V117.464H47.2302ZM51.4869 130.023C50.9211 130.36 49.916 130.529 48.4886 130.529H47.2386V125.972H48.3957C49.4008 125.972 50.1018 126.005 50.5157 126.064C51.8079 126.284 52.4582 127.027 52.4582 128.284C52.4498 129.069 52.1288 129.643 51.4869 130.023Z" fill="#FFD200"/>
<path d="M72.6696 112.544C68.8689 112.544 65.8452 113.801 63.6154 116.325C62.7286 117.329 62.0191 118.536 61.4955 119.946C60.9634 121.355 60.7016 122.731 60.7016 124.073C60.7016 127.01 61.6813 129.584 63.6323 131.803C65.8621 134.327 68.8773 135.584 72.6696 135.584C76.4703 135.584 79.494 134.327 81.7237 131.803C83.6747 129.584 84.6545 127.01 84.6545 124.073C84.6545 121.127 83.6747 118.545 81.7237 116.325C79.494 113.801 76.4787 112.544 72.6696 112.544ZM77.3571 128.006C76.1409 129.423 74.5784 130.132 72.6696 130.132C70.7608 130.132 69.2067 129.415 67.9989 127.989C67.0276 126.832 66.5378 125.524 66.5378 124.064C66.5378 123.355 66.6645 122.655 66.9178 121.971C67.3655 120.764 68.1087 119.794 69.156 119.068C70.2033 118.342 71.3773 117.979 72.6696 117.979C74.5446 117.979 76.1071 118.688 77.3571 120.106C78.3369 121.22 78.8183 122.537 78.8183 124.064C78.8267 125.566 78.3369 126.875 77.3571 128.006Z" fill="#FFD200"/>
<path d="M104.199 126.419L93.8522 113.194H88.2187V134.808H93.8522V121.566L104.199 134.808H109.824V113.194H104.199V126.419Z" fill="#FFD200"/>
<path d="M127.611 124.883C127.611 126.909 127.358 128.276 126.834 128.985C126.133 129.947 125.102 130.428 123.726 130.428C123.118 130.428 122.552 130.31 122.045 130.065C120.812 129.483 120.136 128.462 120.035 126.993C120.001 126.529 119.984 125.828 119.984 124.891V113.194H114.359V125.66C114.359 127.263 114.477 128.537 114.705 129.491C115.035 130.833 115.643 131.947 116.53 132.833C118.211 134.521 120.542 135.365 123.532 135.365C126.471 135.365 128.819 134.538 130.567 132.876C131.8 131.702 132.586 130.403 132.915 128.976C133.126 128.056 133.236 126.951 133.236 125.651V113.186H127.611V124.883Z" fill="#FFD200"/>
<path d="M151.665 124.157C150.821 123.085 149.402 122.267 147.408 121.684C145.821 121.22 144.866 120.891 144.554 120.697C143.844 120.283 143.489 119.794 143.489 119.22C143.489 118.638 143.76 118.173 144.3 117.819C144.773 117.515 145.314 117.363 145.922 117.363C147.172 117.363 148.413 117.844 149.638 118.806L151.893 114.435C149.655 113.262 147.366 112.679 145.027 112.679C142.704 112.679 140.837 113.456 139.444 115C138.253 116.317 137.653 117.979 137.653 119.98C137.653 121.904 138.228 123.33 139.385 124.284C139.782 124.613 140.272 124.892 140.846 125.136C141.209 125.297 142.079 125.584 143.481 125.989C144.638 126.318 145.457 126.647 145.947 126.959C146.606 127.39 146.927 127.921 146.927 128.563C146.927 129.263 146.631 129.812 146.04 130.192C145.533 130.529 144.908 130.707 144.182 130.707C142.56 130.707 140.905 129.939 139.207 128.411L136.8 132.943C139.114 134.58 141.623 135.399 144.326 135.399C145.618 135.399 146.817 135.205 147.941 134.808C151.15 133.703 152.763 131.314 152.763 127.66C152.763 126.233 152.4 125.06 151.665 124.157Z" fill="#FFD200"/>
<path d="M51.4869 130.023C50.9211 130.361 49.916 130.53 48.4886 130.53H47.2386V131.796H48.4886C49.9244 131.796 50.9211 131.627 51.4869 131.289C52.1288 130.909 52.4498 130.327 52.4498 129.551C52.4498 129.306 52.416 129.086 52.3653 128.884C52.2386 129.373 51.9515 129.753 51.4869 130.023Z" fill="white"/>
<path d="M54.8653 123.642C54.5444 123.988 54.1559 124.309 53.6913 124.579C55.4228 124.942 56.5968 125.634 57.2302 126.655C57.6863 127.415 57.9566 128.267 58.041 129.221C58.0579 129.035 58.0833 128.858 58.0833 128.664C58.0833 127.423 57.7961 126.326 57.2302 125.389C56.7488 124.613 55.9549 124.03 54.8653 123.642Z" fill="white"/>
<path d="M56.0225 119.566C56.0478 119.33 56.0562 119.085 56.0562 118.823C56.0562 115.059 54.0292 113.186 49.9667 113.186H41.5966V114.452H49.9667C53.8349 114.46 55.8366 116.173 56.0225 119.566Z" fill="white"/>
<path d="M50.3383 120.984C49.916 121.456 49.2234 121.693 48.2606 121.693H47.2386V122.958H48.2606C49.2234 122.958 49.9244 122.722 50.3383 122.25C50.6761 121.87 50.845 121.397 50.845 120.84C50.845 120.595 50.8197 120.376 50.7606 120.173C50.6846 120.477 50.5494 120.747 50.3383 120.984Z" fill="white"/>
<path d="M72.6696 112.544C68.8689 112.544 65.8536 113.801 63.6239 116.325C62.737 117.329 62.0276 118.536 61.5039 119.946C60.9718 121.355 60.71 122.731 60.71 124.073C60.71 124.301 60.7269 124.528 60.7353 124.748C60.8029 123.592 61.0478 122.41 61.5039 121.203C62.0276 119.794 62.737 118.587 63.6239 117.582C65.8536 115.059 68.8689 113.801 72.6696 113.801C76.4787 113.801 79.4939 115.059 81.7237 117.582C83.5396 119.642 84.494 122.013 84.6291 124.697C84.6376 124.486 84.6545 124.275 84.6545 124.064C84.6545 121.119 83.6747 118.536 81.7237 116.317C79.4939 113.801 76.4787 112.544 72.6696 112.544Z" fill="white"/>
<path d="M77.3571 128.006C76.1409 129.424 74.5784 130.133 72.6696 130.133C70.7608 130.133 69.2067 129.415 67.9989 127.989C67.1712 127.01 66.7151 125.913 66.5884 124.714C66.5631 124.917 66.5293 125.119 66.5293 125.33C66.5293 126.79 67.0192 128.099 67.9905 129.255C69.1982 130.69 70.7608 131.399 72.6611 131.399C74.5699 131.399 76.1324 130.69 77.3487 129.272C78.3199 128.141 78.8098 126.824 78.8098 125.33C78.8098 125.111 78.776 124.9 78.7591 124.689C78.6493 125.93 78.1933 127.044 77.3571 128.006Z" fill="white"/>
<path d="M88.2271 113.194V114.46H93.8522L104.199 127.685V126.419L93.8522 113.194H88.2271Z" fill="white"/>
<path d="M109.824 113.194H104.199V114.46H109.824V113.194Z" fill="white"/>
<path d="M123.726 130.419C123.118 130.419 122.552 130.301 122.045 130.057C120.812 129.474 120.136 128.453 120.035 126.984C120.001 126.52 119.984 125.82 119.984 124.883V126.149C119.984 127.086 120.001 127.786 120.035 128.25C120.136 129.719 120.812 130.74 122.045 131.322C122.552 131.567 123.109 131.685 123.726 131.685C125.102 131.685 126.133 131.204 126.834 130.242C127.349 129.533 127.611 128.166 127.611 126.14V124.875C127.611 126.9 127.349 128.267 126.834 128.976C126.141 129.938 125.102 130.419 123.726 130.419Z" fill="white"/>
<path d="M133.236 113.194H127.611V114.46H133.236V113.194Z" fill="white"/>
<path d="M119.984 113.194H114.359V114.46H119.984V113.194Z" fill="white"/>
<path d="M151.665 124.157C150.821 123.085 149.402 122.267 147.408 121.684C145.821 121.22 144.866 120.891 144.554 120.697C144.106 120.435 143.81 120.131 143.65 119.811C143.549 120.013 143.489 120.241 143.489 120.486C143.489 121.06 143.844 121.549 144.554 121.963C144.875 122.157 145.829 122.486 147.408 122.95C149.402 123.532 150.821 124.36 151.665 125.423C152.29 126.199 152.637 127.187 152.721 128.343C152.738 128.115 152.763 127.896 152.763 127.66C152.763 126.233 152.4 125.06 151.665 124.157Z" fill="white"/>
<path d="M139.452 116.257C140.846 114.704 142.704 113.936 145.035 113.936C147.189 113.936 149.3 114.443 151.378 115.439L151.902 114.426C149.663 113.253 147.375 112.67 145.044 112.67C142.721 112.67 140.854 113.447 139.461 114.991C138.261 116.308 137.67 117.971 137.67 119.971C137.67 120.19 137.679 120.393 137.695 120.595C137.797 118.882 138.388 117.43 139.452 116.257Z" fill="white"/>
<path d="M146.04 130.191C145.533 130.529 144.908 130.706 144.182 130.706C142.56 130.706 140.905 129.938 139.207 128.411L136.8 132.943C136.969 133.061 137.13 133.162 137.299 133.272L139.207 129.685C140.905 131.213 142.56 131.981 144.182 131.981C144.917 131.981 145.533 131.812 146.04 131.466C146.631 131.078 146.927 130.537 146.927 129.837C146.927 129.626 146.876 129.432 146.809 129.238C146.674 129.618 146.429 129.947 146.04 130.191Z" fill="white"/>
<defs>
<radialGradient id="paint0_radial_16_1284" cx="0" cy="0" r="1" gradientUnits="userSpaceOnUse" gradientTransform="translate(94.0008 94.5014) scale(94.2866 94.2167)">
<stop stop-color="#D40EA2"/>
<stop offset="1" stop-color="#380E85" stop-opacity="0.16"/>
</radialGradient>
<linearGradient id="paint1_linear_16_1284" x1="49.3481" y1="77.124" x2="144.674" y2="77.124" gradientUnits="userSpaceOnUse">
<stop stop-color="#380E85"/>
<stop offset="1" stop-color="#D40EA2"/>
</linearGradient>
<linearGradient id="paint2_linear_16_1284" x1="98.5026" y1="117.089" x2="97.3715" y2="76.3425" gradientUnits="userSpaceOnUse">
<stop stop-color="#E66200"/>
<stop offset="0.7091" stop-color="#FFAC00"/>
</linearGradient>
<linearGradient id="paint3_linear_16_1284" x1="98.7504" y1="105.786" x2="96.0359" y2="43.0798" gradientUnits="userSpaceOnUse">
<stop stop-color="#E66200"/>
<stop offset="0.7091" stop-color="#FFAC00"/>
</linearGradient>
<linearGradient id="paint4_linear_16_1284" x1="75.5416" y1="110.693" x2="75.5416" y2="139.984" gradientUnits="userSpaceOnUse">
<stop stop-color="#380E85"/>
<stop offset="1" stop-color="#D40EA2"/>
</linearGradient>
<linearGradient id="paint5_linear_16_1284" x1="123.624" y1="110.693" x2="123.624" y2="139.984" gradientUnits="userSpaceOnUse">
<stop stop-color="#380E85"/>
<stop offset="1" stop-color="#D40EA2"/>
</linearGradient>
<linearGradient id="paint6_linear_16_1284" x1="144.296" y1="110.693" x2="144.296" y2="139.984" gradientUnits="userSpaceOnUse">
<stop stop-color="#380E85"/>
<stop offset="1" stop-color="#D40EA2"/>
</linearGradient>
</defs>
</svg>
