<svg width="188" height="189" viewBox="0 0 188 189" fill="none" xmlns="http://www.w3.org/2000/svg">
<path d="M188 79.9414L109.114 90.3139L182.155 58.6057L167.316 33.5902L106.344 81.9416L153.675 20.0529L128.616 5.44365L98.261 78.5826L108.481 0H79.5193L89.8403 79.3084L58.2944 5.88251L33.4125 20.7956L81.5041 82.0936L19.9411 34.5102L5.4139 59.6944L78.1764 90.221L0 79.9414V109.059L78.8943 98.6861L5.84465 130.394L20.6843 155.41L81.6561 107.067L34.3246 168.956L59.384 183.556L89.7474 110.417L79.5193 189H108.481L98.1681 109.683L129.706 183.126L154.588 168.213L106.496 106.906L168.059 154.498L182.586 129.306L109.832 98.779L188 109.059V79.9414Z" fill="url(#paint0_radial_472_3524)"/>
<g clip-path="url(#clip0_472_3524)">
<path d="M171.324 53.3451L113.025 21.1289C108.655 18.7086 103.124 20.2849 100.72 24.6373L51.0798 114.188C48.6757 118.52 50.2852 124.011 54.6655 126.421L112.964 158.628C117.334 161.048 122.845 159.482 125.25 155.16L174.89 65.6194C177.294 61.267 175.694 55.7553 171.324 53.3451Z" fill="url(#paint1_linear_472_3524)"/>
<path d="M164.591 61.9381L116.672 148.367L61.3888 117.828L109.307 31.3896L164.591 61.9381Z" fill="url(#paint2_linear_472_3524)"/>
<path d="M170.387 55.0233L112.088 22.8172C108.645 20.9156 104.295 22.1562 102.401 25.5731L52.7606 115.113C50.8761 118.51 52.1392 122.832 55.5925 124.734L113.891 156.94C117.334 158.841 121.674 157.621 123.559 154.224L173.199 64.6841C175.083 61.2672 173.83 56.9249 170.387 55.0233ZM108.462 28.929C108.503 28.8578 108.625 28.8171 108.727 28.8781L167.025 61.0842C167.127 61.1452 167.158 61.2672 167.117 61.3384L117.487 150.879C117.467 150.919 117.355 150.95 117.243 150.889L58.944 118.683C58.8217 118.622 58.8014 118.51 58.8217 118.469L108.462 28.929Z" fill="#FFD300"/>
<path d="M120.757 152.129C119.779 153.889 117.548 154.519 115.776 153.533L57.4771 121.327C55.7046 120.35 55.0526 118.123 56.0306 116.364L105.477 27.1694C106.455 25.4101 108.686 24.7796 110.458 25.766L168.757 57.9721C170.53 58.9483 171.182 61.1754 170.204 62.9245L120.757 152.129Z" fill="#B94E04"/>
<path d="M170.204 62.9248C171.182 61.1655 170.53 58.9486 168.757 57.9724L110.458 25.7562C108.686 24.7799 106.455 25.4002 105.477 27.1595L100.995 35.2543L101.127 36.6881L99.8336 37.3389L87.691 59.2537L87.7827 60.2401L86.8964 60.6876L74.7436 82.6125L74.876 84.0464L73.5823 84.687L61.4397 106.612L61.5518 107.761L60.5229 108.28L56.0407 116.374C55.0628 118.134 55.7148 120.351 57.4873 121.337L115.786 153.543C117.559 154.519 119.789 153.889 120.767 152.14L125.25 144.045L125.138 142.896L126.166 142.377L138.319 120.452L138.187 119.018L139.47 118.368L151.623 96.4427L151.531 95.4563L152.418 95.0088L164.57 73.0839L164.438 71.65L165.722 70.9992L170.204 62.9248ZM63.3446 123.534L61.8676 107.934L75.8845 100.897L77.3616 116.496L63.3446 123.534ZM76.4142 99.9511L74.9168 84.0667L89.1986 76.9075L90.6961 92.7919L76.4142 99.9511ZM88.2614 60.5147L102.136 53.5488L103.593 68.9857L89.7182 75.9415L88.2614 60.5147ZM102.676 52.5928L101.168 36.7085L115.45 29.5493L116.947 45.4235L102.676 52.5928ZM79.1545 132.269L77.6774 116.669L91.6944 109.632L93.1715 125.232L79.1545 132.269ZM92.2343 108.686L90.7266 92.8021L105.008 85.6429L106.506 101.527L92.2343 108.686ZM104.081 69.2501L117.956 62.2841L119.413 77.7211L105.538 84.6769L104.081 69.2501ZM118.486 61.3282L116.978 45.4438L131.26 38.2847L132.767 54.1691L118.486 61.3282ZM94.9745 141.015L93.4974 125.415L107.514 118.378L108.991 133.977L94.9745 141.015ZM108.054 117.422L106.547 101.537L120.829 94.3682L122.326 110.253L108.054 117.422ZM119.891 77.9855L133.776 71.0195L135.233 86.4565L121.358 93.4224L119.891 77.9855ZM134.306 70.0636L132.798 54.1792L147.08 47.0201L148.577 62.9045L134.306 70.0636ZM110.795 149.75L109.317 134.15L123.345 127.113L124.822 142.713L110.795 149.75ZM123.864 126.157L122.357 110.273L136.638 103.114L138.136 118.998L123.864 126.157ZM135.711 86.7209L149.596 79.7549L151.053 95.1919L137.178 102.148L135.711 86.7209ZM150.115 78.8092L148.608 62.9248L162.89 55.7656L164.387 71.65L150.115 78.8092Z" fill="url(#paint3_linear_472_3524)"/>
<path opacity="0.35" d="M97.0322 109.114C111.772 117.259 128.428 118.174 142.455 112.988L170.204 62.935C171.182 61.1757 170.53 58.9588 168.757 57.9825L110.458 25.7562C108.686 24.7799 106.455 25.4002 105.477 27.1595L73.6434 84.5853C78.4109 94.5004 86.3769 103.226 97.0322 109.114Z" fill="white"/>
<path opacity="0.35" d="M104.061 72.026C125.504 83.8732 152.377 76.6123 164.978 55.8772L110.479 25.7762C108.706 24.7999 106.475 25.4203 105.497 27.1795L88.4856 57.8704C92.3667 63.5652 97.6129 68.4667 104.061 72.026Z" fill="white"/>
<path d="M152.183 43.2166L88.9338 22.3086C84.1867 20.7426 79.0526 23.3052 77.4839 28.0237L45.253 125.181C43.6944 129.879 46.292 134.974 51.039 136.55L114.289 157.458C119.036 159.024 124.16 156.482 125.718 151.784L157.939 54.6367C159.518 49.908 156.93 44.7929 152.183 43.2166Z" fill="url(#paint4_linear_472_3524)"/>
<path d="M147.161 52.9077L116.051 146.689L56.0611 126.859L87.1715 33.0776L147.161 52.9077Z" fill="url(#paint5_linear_472_3524)"/>
<path d="M151.572 45.0472L88.3226 24.1392C84.584 22.9087 80.5399 24.9222 79.3073 28.634L47.0866 125.781C45.8642 129.472 47.9117 133.479 51.6401 134.71L114.89 155.618C118.628 156.848 122.662 154.855 123.885 151.163L156.105 54.0165C157.348 50.3047 155.311 46.2777 151.572 45.0472ZM85.8981 30.8102C85.9287 30.7289 86.0306 30.6679 86.1528 30.7086L149.402 51.6166C149.514 51.6572 149.565 51.7691 149.545 51.8504L117.324 148.997C117.314 149.038 117.212 149.099 117.09 149.058L53.8302 128.15C53.708 128.11 53.657 128.008 53.6774 127.957L85.8981 30.8102Z" fill="#FFD300"/>
<path d="M120.757 149.628C120.126 151.539 118.048 152.567 116.122 151.926L52.8727 131.018C50.9474 130.377 49.8981 128.323 50.5297 126.411L82.6384 29.6304C83.2699 27.7186 85.348 26.6915 87.2733 27.3321L150.523 48.2401C152.448 48.8706 153.497 50.935 152.866 52.8468L120.757 149.628Z" fill="#B94E04"/>
<path d="M152.856 52.8468C153.487 50.935 152.438 48.8808 150.513 48.2401L87.2631 27.3321C85.3378 26.7016 83.2597 27.7287 82.6282 29.6304L79.7148 38.4065L80.112 39.7895L78.9609 40.664L71.0764 64.4499L71.3514 65.4058L70.567 66.0058L62.6825 89.7917L63.0798 91.1748L61.9287 92.0493L54.0441 115.825L54.3599 116.933L53.4431 117.635L50.5297 126.411C49.8981 128.323 50.9474 130.377 52.8727 131.018L116.122 151.926C118.048 152.567 120.126 151.529 120.757 149.628L123.671 140.852L123.355 139.743L124.272 139.041L132.166 115.256L131.769 113.873L132.92 112.998L140.805 89.2121L140.53 88.2562L141.324 87.6562L149.209 63.8703L148.812 62.4873L149.952 61.6127L152.856 52.8468ZM59.0458 132.106L54.7063 117.056L67.185 107.557L71.5246 122.618L59.0458 132.106ZM67.5314 106.52L63.1103 91.1849L75.8234 81.514L80.2343 96.8492L67.5314 106.52ZM71.8811 65.5787L84.2377 56.1722L88.5263 71.0701L76.18 80.4665L71.8811 65.5787ZM84.5738 55.1349L80.163 39.7996L92.876 30.1287L97.2869 45.4639L84.5738 55.1349ZM76.2003 137.78L71.8608 122.73L84.3395 113.232L88.6791 128.293L76.2003 137.78ZM84.6859 112.184L80.275 96.8492L92.9881 87.1782L97.399 102.513L84.6859 112.184ZM89.0356 71.243L101.382 61.8364L105.671 76.7344L93.3243 86.1308L89.0356 71.243ZM101.739 60.8093L97.3277 45.4741L110.041 35.8031L114.452 51.1384L101.739 60.8093ZM93.365 143.455L89.0255 128.394L101.504 118.896L105.834 133.947L93.365 143.455ZM101.851 117.859L97.4397 102.524L110.143 92.8527L114.553 108.188L101.851 117.859ZM106.2 76.9174L118.557 67.5109L122.845 82.4088L110.499 91.8052L106.2 76.9174ZM118.893 66.4838L114.482 51.1485L127.185 41.4776L131.606 56.8027L118.893 66.4838ZM110.52 149.129L106.19 134.069L118.669 124.571L123.008 139.621L110.52 149.129ZM119.015 123.533L114.594 108.198L127.307 98.5271L131.718 113.862L119.015 123.533ZM123.355 82.5919L135.711 73.1853L140 88.0935L127.654 97.4899L123.355 82.5919ZM136.058 72.1481L131.637 56.8128L144.35 47.1419L148.761 62.4771L136.058 72.1481Z" fill="url(#paint6_linear_472_3524)"/>
<path opacity="0.35" d="M89.4839 111.727C105.477 117.015 122.02 114.839 134.845 107.161L152.856 52.8468C153.487 50.935 152.438 48.8808 150.513 48.2401L87.2632 27.3321C85.3379 26.7016 83.2598 27.7287 82.6282 29.6304L61.9694 91.9374C68.4788 100.795 77.9321 107.903 89.4839 111.727Z" fill="white"/>
<path opacity="0.35" d="M89.5348 73.9785C112.801 81.6665 137.861 69.5752 146.418 46.8775L87.2937 27.3321C85.3684 26.6915 83.2903 27.7186 82.6587 29.6304L71.6061 62.9347C76.4754 67.816 82.5365 71.6701 89.5348 73.9785Z" fill="white"/>
<path d="M125.576 29.6509H58.944C53.9423 29.6509 49.8777 33.6982 49.8777 38.671V141.004C49.8777 145.957 53.9423 149.984 58.944 149.984H125.576C130.577 149.984 134.642 145.957 134.642 141.004V38.671C134.642 33.6982 130.577 29.6509 125.576 29.6509Z" fill="url(#paint7_linear_472_3524)"/>
<path d="M123.854 40.4199H60.6655V139.214H123.854V40.4199Z" fill="url(#paint8_linear_472_3524)"/>
<path d="M125.576 31.5728H58.944C55.0119 31.5728 51.803 34.7557 51.803 38.6709V141.004C51.803 144.889 55.0017 148.051 58.944 148.051H125.576C129.508 148.051 132.716 144.889 132.716 141.004V38.6709C132.716 34.7557 129.508 31.5728 125.576 31.5728ZM58.7402 38.6709C58.7402 38.5895 58.8217 38.4879 58.944 38.4879H125.576C125.698 38.4879 125.779 38.5794 125.779 38.6709V141.004C125.779 141.045 125.698 141.136 125.576 141.136H58.944C58.8115 141.136 58.7402 141.055 58.7402 141.004V38.6709Z" fill="#FFD300"/>
<path d="M129.243 140.526C129.243 142.54 127.603 144.167 125.576 144.167H58.944C56.9168 144.167 55.2665 142.54 55.2665 140.526V38.5693C55.2665 36.5558 56.9168 34.9287 58.944 34.9287H125.576C127.603 34.9287 129.243 36.5558 129.243 38.5693V140.526Z" fill="#B94E04"/>
<path d="M129.243 38.5693C129.243 36.5558 127.603 34.9287 125.576 34.9287H58.944C56.9168 34.9287 55.2665 36.5558 55.2665 38.5693V47.8132L56.0815 49.003L55.2665 50.1928V75.2498L55.8268 76.0735L55.2665 76.8871V101.944L56.0815 103.134L55.2665 104.324V129.381L55.9185 130.337L55.2665 131.293V140.536C55.2665 142.55 56.9168 144.177 58.944 144.177H125.576C127.603 144.177 129.243 142.55 129.243 140.536V131.293L128.591 130.337L129.243 129.381V104.324L128.428 103.134L129.243 101.944V76.8871L128.682 76.0735L129.243 75.2498V50.1928L128.428 49.003L129.243 47.8132V38.5693ZM65.1477 143.262L56.2954 130.327L65.1477 117.391L74.0102 130.327L65.1477 143.262ZM65.1477 116.303L56.1222 103.134L65.1477 89.9648L74.163 103.134L65.1477 116.303ZM56.3769 76.0735L65.1477 63.2704L73.9083 76.0735L65.1477 88.8665L56.3769 76.0735ZM65.1477 62.1722L56.1222 49.003L65.1477 35.8338L74.163 49.003L65.1477 62.1722ZM83.219 143.262L74.3667 130.327L83.219 117.391L92.0713 130.327L83.219 143.262ZM83.219 116.303L74.2037 103.134L83.219 89.9648L92.2343 103.134L83.219 116.303ZM74.4584 76.0735L83.219 63.2704L91.9796 76.0735L83.219 88.8665L74.4584 76.0735ZM83.219 62.1722L74.2037 49.003L83.219 35.8338L92.2343 49.003L83.219 62.1722ZM101.3 143.262L92.4482 130.327L101.3 117.391L110.153 130.327L101.3 143.262ZM101.3 116.303L92.2852 103.134L101.3 89.9648L110.316 103.134L101.3 116.303ZM92.5297 76.0735L101.29 63.2704L110.051 76.0735L101.29 88.8665L92.5297 76.0735ZM101.3 62.1722L92.2852 49.003L101.3 35.8338L110.316 49.003L101.3 62.1722ZM119.372 143.262L110.52 130.327L119.372 117.391L128.224 130.327L119.372 143.262ZM119.372 116.303L110.346 103.134L119.372 89.9648L128.387 103.134L119.372 116.303ZM110.611 76.0735L119.382 63.2704L128.143 76.0735L119.382 88.8665L110.611 76.0735ZM119.372 62.1722L110.346 49.003L119.372 35.8338L128.387 49.003L119.372 62.1722Z" fill="url(#paint9_linear_472_3524)"/>
<path opacity="0.35" d="M87.6197 114.361C104.469 114.361 119.484 107.11 129.243 95.7917V38.5693C129.243 36.5558 127.603 34.9287 125.576 34.9287H58.944C56.9168 34.9287 55.2665 36.5558 55.2665 38.5693V104.202C64.2411 110.568 75.4567 114.361 87.6197 114.361Z" fill="white"/>
<path opacity="0.35" d="M75.7929 78.5142C100.302 78.5142 120.289 59.1723 121.256 34.939H58.9643C56.9372 34.939 55.2869 36.566 55.2869 38.5796V73.6635C61.4601 76.755 68.4176 78.5142 75.7929 78.5142Z" fill="white"/>
<path d="M133.684 132.096C133.694 131.638 133.705 131.231 133.694 130.855C133.684 130.479 133.674 130.082 133.643 129.625L133.542 123.015L133.593 120.798C133.603 120.564 133.603 120.32 133.603 120.035V119.882V119.71V119.649C133.593 119.303 133.582 118.937 133.562 118.449L133.542 118.225C133.521 117.869 133.491 117.513 133.45 117.157L133.44 117.086C132.543 108.605 127.806 100.713 120.105 94.8763C112.659 89.2323 102.9 85.8867 92.6418 85.4697H92.5297C92.1324 85.4494 91.7148 85.4392 91.2666 85.4392H90.9813C90.0543 85.429 89.107 85.4392 88.1902 85.4799L87.9151 85.4901C87.4771 85.5104 87.039 85.5307 86.6418 85.5612L86.5399 85.5714C76.3022 86.3036 66.6655 89.934 59.382 95.8119C51.8846 101.863 47.3922 109.866 46.7402 118.357L46.7301 118.469C46.7097 118.835 46.6893 119.201 46.6689 119.567L46.6587 119.811C46.6486 120.086 46.6486 120.35 46.6486 120.625V120.737V120.818H46.618L46.7708 130.652C46.7504 131.231 46.7402 131.72 46.7504 132.187C46.893 141.513 51.5484 150.207 59.8608 156.675C67.9491 162.959 78.6248 166.427 89.9015 166.427C90.1868 166.427 90.4618 166.427 90.747 166.417C101.851 166.244 112.363 162.736 120.35 156.522C127.399 151.051 131.902 143.912 133.256 136.204L133.705 136.194L133.684 132.096Z" fill="#FFD200"/>
<path d="M89.9117 169C78.0543 169 66.8183 165.339 58.2716 158.709C49.3277 151.753 44.326 142.356 44.163 132.228C44.1528 131.74 44.163 131.221 44.1834 130.631L44 118.296H44.163L44.1732 118.133C44.8761 108.961 49.7046 100.307 57.7623 93.7982C65.4431 87.595 75.5993 83.751 86.3565 82.9883L86.4788 82.9782C86.8761 82.9476 87.3345 82.9171 87.8031 82.907L88.0781 82.8968C89.0357 82.8561 90.034 82.8358 91.0221 82.8561H91.2869C91.7861 82.8663 92.2241 82.8765 92.6418 82.8968H92.7131C103.531 83.3341 113.8 86.8526 121.664 92.822C129.935 99.0964 135.029 107.618 136.007 116.811L136.017 116.913C136.058 117.259 136.088 117.655 136.109 118.052L136.129 118.276C136.16 118.835 136.17 119.221 136.18 119.598V119.679V119.842V119.954C136.19 120.31 136.18 120.574 136.17 120.848L136.119 123.025L136.221 129.523C136.251 130.001 136.261 130.408 136.272 130.804C136.282 131.211 136.272 131.638 136.261 132.116L135.365 138.757C133.501 146.272 128.795 153.238 121.949 158.566C113.525 165.115 102.462 168.827 90.8082 169C90.5026 169 90.2071 169 89.9117 169ZM49.236 123.36L49.348 130.682V130.743C49.3277 131.272 49.3277 131.719 49.3277 132.147C49.4601 140.679 53.7589 148.672 61.4499 154.641C69.09 160.58 79.1952 163.854 89.9117 163.854V166.427V163.854C90.1766 163.854 90.4414 163.854 90.7165 163.844C101.26 163.681 111.222 160.366 118.771 154.488C125.331 149.383 129.467 142.916 130.72 135.757L131.107 133.662L131.097 132.065V132.024C131.107 131.608 131.117 131.231 131.107 130.886C131.097 130.55 131.087 130.184 131.066 129.777V129.655L130.964 122.994L131.025 120.726C131.025 120.523 131.036 120.32 131.036 120.065V119.862V119.689V119.659C131.025 119.364 131.015 119.028 130.995 118.581L130.985 118.388C130.964 118.062 130.944 117.747 130.903 117.432L130.893 117.31C130.068 109.571 125.688 102.31 118.567 96.91C111.528 91.5712 102.299 88.4187 92.5603 88.0323H92.4788C92.0611 88.0119 91.6638 88.0018 91.236 88.0018H90.9813C90.034 87.9916 89.1783 88.0018 88.3226 88.0424L88.0475 88.0526C87.6299 88.073 87.2224 88.0933 86.8557 88.1238L86.7335 88.134C77.0357 88.8255 67.9083 92.2627 61.0424 97.8049C54.0645 103.408 49.9185 110.781 49.3175 118.56L49.3073 118.703C49.2869 118.987 49.2666 119.313 49.2564 119.649L49.2462 119.893C49.236 120.137 49.236 120.381 49.236 120.625V120.777L49.2258 120.828L49.3582 123.36H49.236Z" fill="url(#paint10_linear_472_3524)"/>
<path d="M133.572 132.096C133.582 131.638 133.593 131.231 133.582 130.855C133.572 130.479 133.562 130.082 133.531 129.625L133.43 123.015L133.48 120.798C133.491 120.564 133.491 120.32 133.491 120.035V119.882V119.71V119.649C133.48 119.303 133.47 118.937 133.45 118.449L133.44 118.225C133.419 117.869 133.389 117.513 133.348 117.157L133.338 117.086C132.441 108.605 127.705 100.713 120.003 94.8763C112.557 89.2323 102.798 85.8867 92.5399 85.4697H92.4278C92.0306 85.4494 91.6129 85.4392 91.1647 85.4392H90.8795C89.9525 85.429 89.0051 85.4392 88.0883 85.4799H87.803C87.365 85.5002 86.927 85.5206 86.5297 85.5511L86.4278 85.5612C76.1901 86.2833 66.5535 89.9239 59.2801 95.8017C51.7827 101.863 47.2903 109.866 46.6384 118.357L46.6282 118.469C46.6078 118.835 46.5874 119.201 46.5671 119.567L46.5569 119.811C46.5467 120.086 46.5467 120.35 46.5467 120.625L46.5365 120.737V120.818H46.5059L46.6587 130.652C46.6384 131.231 46.6282 131.72 46.6384 132.187C46.781 141.513 51.4363 150.207 59.7487 156.675C67.837 162.959 78.5127 166.427 89.7997 166.427C90.0849 166.427 90.3599 166.427 90.6452 166.417C101.749 166.244 112.261 162.736 120.248 156.522C127.297 151.051 131.8 143.912 133.154 136.204L133.603 136.194L133.572 132.096Z" fill="#FFD200"/>
<path d="M50.8048 130.703L50.7131 124.825L52.18 124.805C56.6927 111.829 71.7385 100.958 89.7182 100.683C107.698 100.408 123.07 110.801 127.98 123.635L129.457 123.615L129.548 129.787C129.569 130.164 129.589 130.55 129.599 130.926C129.61 131.313 129.599 131.689 129.589 132.065V132.228H129.579C128.958 148.651 111.844 162.065 90.6655 162.39C68.9372 162.726 51.039 149.15 50.7742 132.147C50.7742 131.648 50.7844 131.17 50.8048 130.703Z" fill="url(#paint11_linear_472_3524)"/>
<path d="M49.8268 132.147C49.8166 131.679 49.8268 131.211 49.8472 130.692L49.7453 123.879L51.5076 123.849C53.9117 117.442 58.8115 111.544 65.3718 107.181C72.5025 102.432 80.9168 99.8592 89.708 99.727C98.4992 99.5948 106.995 101.913 114.268 106.429C120.961 110.588 126.044 116.333 128.642 122.669L130.424 122.649L130.537 129.757C130.567 130.194 130.577 130.56 130.587 130.916C130.598 131.262 130.587 131.648 130.577 132.075L130.587 133.174H130.516C129.935 141.085 125.677 148.478 118.445 154.102C110.978 159.909 101.127 163.183 90.6961 163.346C68.4278 163.671 50.0917 149.678 49.8268 132.147ZM128.642 132.025C128.652 131.608 128.652 131.262 128.652 130.926C128.642 130.601 128.632 130.245 128.601 129.838L128.52 124.581L127.328 124.601L127.083 123.971C122.041 110.771 106.333 101.385 89.7385 101.639C73.1443 101.893 57.7317 111.767 53.0968 125.11L52.8727 125.74L51.691 125.76L51.7623 130.682V130.743C51.7419 131.231 51.7317 131.679 51.7419 132.116C51.9966 148.601 69.4567 161.739 90.6553 161.414C100.669 161.261 110.112 158.119 117.243 152.577C124.292 147.095 128.336 139.855 128.621 132.177V132.075L128.642 132.025Z" fill="#B94E04"/>
<path d="M50.8048 130.713L50.7131 124.825L52.18 124.805C56.6927 111.829 71.7385 100.958 89.7182 100.683C107.698 100.408 123.07 110.801 127.98 123.635L129.457 123.615L129.548 129.787C129.569 130.164 129.589 130.54 129.599 130.926C129.61 131.303 129.599 131.689 129.589 132.065V132.218H129.579C128.958 148.641 111.834 162.055 90.6553 162.38C68.9372 162.716 51.0492 149.15 50.7844 132.137C50.7844 131.659 50.7844 131.181 50.8048 130.713Z" fill="#B94E04"/>
<path d="M124.903 133.489L125.025 145.764C121.511 150.95 116.183 155.282 109.694 158.221L109.389 138.248L124.903 133.489Z" fill="#F3C400"/>
<path d="M101.27 139.479L101.596 160.997C98.1324 161.841 94.4652 162.319 90.6655 162.38C86.8659 162.441 83.1885 162.075 79.6944 161.333L79.3684 139.815L101.27 139.479Z" fill="#F3C400"/>
<path d="M71.2903 138.838L71.5959 158.831C65.2088 156.177 59.8608 152.18 56.1936 147.309L56.0611 134.547L71.2903 138.838Z" fill="#F3C400"/>
<path d="M50.7844 132.137C50.7742 131.659 50.7844 131.181 50.8048 130.713L50.7131 124.825L52.18 124.805L52.4244 140.587C51.4058 137.903 50.8353 135.076 50.7844 132.137Z" fill="#F3C400"/>
<path d="M127.99 123.635L129.467 123.615L129.559 129.788C129.579 130.164 129.599 130.54 129.61 130.927C129.62 131.303 129.61 131.689 129.599 132.065V132.218H129.589C129.497 134.72 129.019 137.14 128.204 139.469L127.959 123.564C127.969 123.594 127.98 123.615 127.99 123.635Z" fill="#F3C400"/>
<path d="M50.6927 120.93C50.6927 120.879 50.6927 120.828 50.6927 120.788C50.6927 120.503 50.6927 120.208 50.7029 119.933C50.7029 119.852 50.7131 119.781 50.7131 119.71C50.7232 119.394 50.7436 119.079 50.764 118.774C50.764 118.764 50.764 118.744 50.764 118.733C51.9049 103.439 67.3378 90.9814 86.8047 89.5984C86.8251 89.5984 86.8455 89.5984 86.8659 89.5984C87.2631 89.5679 87.6604 89.5476 88.0577 89.5272C88.1494 89.5171 88.2513 89.5171 88.3429 89.5171C88.7708 89.4967 89.1986 89.4865 89.6265 89.4764C90.0543 89.4662 90.4822 89.4662 90.91 89.4764C91.0017 89.4764 91.1036 89.4764 91.1952 89.4865C91.5925 89.4967 91.9898 89.4967 92.3871 89.5171C92.4075 89.5171 92.4278 89.5171 92.4482 89.5171C111.956 90.3001 127.756 102.279 129.375 117.513C129.375 117.533 129.375 117.544 129.385 117.554C129.416 117.869 129.436 118.174 129.467 118.489C129.467 118.56 129.477 118.642 129.477 118.713C129.497 119.049 129.508 119.384 129.518 119.72C129.518 119.801 129.518 119.882 129.518 119.964C129.518 120.015 129.518 120.076 129.518 120.137C129.528 120.432 129.508 120.727 129.497 121.011C129.497 120.991 129.497 120.96 129.497 120.94C129.497 120.94 129.497 120.94 129.497 120.95C129.487 121.265 129.467 121.581 129.447 121.886C129.447 121.896 129.447 121.916 129.447 121.926C129.08 126.838 127.236 131.455 124.251 135.502C124.251 135.502 124.241 135.513 124.241 135.523C117.946 144.075 106.608 150.106 93.4159 151.051C93.3956 151.051 93.3752 151.051 93.365 151.051C92.9677 151.082 92.5603 151.102 92.163 151.122C92.0611 151.122 91.9694 151.133 91.8676 151.133C91.4397 151.153 91.0119 151.163 90.584 151.173C90.146 151.183 89.7182 151.183 89.2903 151.173C89.1986 151.173 89.0968 151.173 89.0051 151.173C88.5976 151.163 88.2003 151.153 87.7929 151.143C87.7827 151.143 87.7623 151.143 87.7521 151.143C67.8268 150.339 51.7725 137.841 50.7538 122.15C50.7538 122.181 50.7538 122.211 50.7538 122.232C50.7436 121.937 50.7131 121.652 50.7131 121.357C50.7131 121.286 50.7131 121.215 50.7131 121.143C50.6927 121.062 50.6927 120.991 50.6927 120.93Z" fill="url(#paint12_linear_472_3524)"/>
<path d="M89.2699 152.129H88.9847C88.5671 152.119 88.1596 152.109 87.7521 152.098H87.7114C77.8608 151.702 68.5806 148.458 61.5721 142.977C54.5127 137.455 50.326 130.102 49.7963 122.272L49.7759 122.028C49.7657 121.804 49.7555 121.591 49.7453 121.367V121.164L49.7351 120.95C49.7351 120.909 49.7351 120.879 49.7351 120.838V120.798C49.7351 120.503 49.7351 120.198 49.7453 119.913V119.659C49.7555 119.333 49.7759 119.008 49.7963 118.682V118.642C50.3667 110.984 54.4618 103.723 61.2971 98.2014C68.0815 92.7202 77.1171 89.3236 86.7233 88.6423H86.7946C87.1918 88.6118 87.5993 88.5915 88.0068 88.5711L88.3022 88.5609C89.1681 88.5203 90.0543 88.5101 90.91 88.5203H91.2156C91.6231 88.5304 92.0306 88.5406 92.4075 88.5508H92.489C102.115 88.9372 111.253 92.0592 118.2 97.3269C125.209 102.645 129.518 109.774 130.333 117.401V117.452C130.374 117.777 130.394 118.092 130.414 118.428L130.435 118.662C130.455 119.059 130.465 119.384 130.475 119.709C130.475 119.76 130.475 119.811 130.475 119.862V119.943V120.116C130.475 120.34 130.475 120.564 130.465 120.787L130.455 121.031H130.445C130.435 121.336 130.414 121.642 130.394 121.967V121.997C130.027 126.919 128.163 131.79 125.036 136.051L125.005 136.092C118.363 145.122 106.567 151.071 93.4465 152.007H93.4159C93.0085 152.037 92.601 152.058 92.1935 152.078L91.8879 152.088C91.4499 152.109 91.0221 152.119 90.5738 152.129C90.1562 152.129 89.7182 152.129 89.2699 152.129ZM93.3446 150.085C105.895 149.19 117.151 143.526 123.457 134.963L123.477 134.933C126.452 130.885 128.143 126.482 128.489 121.835V121.804C128.509 121.509 128.53 121.214 128.54 120.92L128.55 120.716C128.55 120.523 128.56 120.33 128.56 120.137L128.55 119.953V119.72C128.55 119.394 128.53 119.079 128.509 118.753L128.499 118.54C128.479 118.245 128.458 117.94 128.418 117.645L129.375 117.543L128.418 117.604C126.849 102.889 111.375 91.2253 92.4075 90.4626H92.3463C91.9592 90.4524 91.5721 90.4423 91.1851 90.4321H90.8998C90.0645 90.4219 89.2292 90.4321 88.3837 90.4728L88.1087 90.4829C87.7216 90.5033 87.3345 90.5236 86.927 90.5541H86.8862C67.9389 91.8965 52.8319 104.039 51.7216 118.774L51.7114 118.855C51.691 119.15 51.6808 119.435 51.6706 119.73V119.943C51.6604 120.218 51.6604 120.492 51.6604 120.767V120.899L51.6706 121.113V121.316C51.6706 121.509 51.6808 121.703 51.7012 121.896L51.7114 122.069H51.7216C52.7199 137.292 68.2241 149.373 87.7827 150.166C87.8132 150.166 87.8438 150.166 87.8438 150.166C88.2411 150.176 88.6384 150.197 89.0356 150.197H89.3209C89.7385 150.197 90.1664 150.197 90.584 150.197C91.0119 150.187 91.4295 150.176 91.837 150.156L92.1324 150.136C92.5195 150.115 92.9168 150.095 93.3039 150.075C93.3141 150.095 93.3345 150.085 93.3446 150.085Z" fill="#B94E04"/>
<path d="M89.6265 89.4661C111.365 89.1305 129.253 102.696 129.518 119.709C129.783 136.712 112.312 150.827 90.5739 151.163C68.8455 151.499 50.9474 137.933 50.6825 120.92C50.4278 103.917 67.8981 89.8016 89.6265 89.4661Z" fill="url(#paint13_linear_472_3524)"/>
<path d="M89.7589 97.8963C84.2784 97.9776 79.7046 94.9269 78.7674 90.849C82.2207 90.0151 85.8574 89.5372 89.6265 89.4761C93.4058 89.4151 97.0526 89.7914 100.526 90.5134C99.7216 94.6116 95.2394 97.8149 89.7589 97.8963Z" fill="#FFD200"/>
<path d="M90.4414 142.336C96.0951 142.255 100.791 145.509 101.514 149.78C98.0509 150.624 94.3837 151.112 90.584 151.163C86.7844 151.224 83.107 150.848 79.6129 150.115C80.1935 145.824 84.7878 142.427 90.4414 142.336Z" fill="#FFD200"/>
<path d="M118.761 119.882C118.689 115.601 122.632 111.991 127.847 111.228C128.886 113.923 129.477 116.77 129.518 119.719C129.559 122.668 129.059 125.536 128.112 128.262C122.876 127.651 118.832 124.163 118.761 119.882Z" fill="#FFD200"/>
<path d="M61.4499 120.757C61.5212 125.048 57.5789 128.648 52.3633 129.411C51.3243 126.716 50.7334 123.869 50.6927 120.92C50.6519 117.96 51.1511 115.103 52.0985 112.377C57.3345 112.988 61.3888 116.476 61.4499 120.757Z" fill="#FFD200"/>
<path d="M69.7827 104.709C65.9321 107.821 59.8506 108.198 55.4907 105.798C59.0357 100.703 64.3328 96.4419 70.7708 93.564C73.9185 96.8893 73.6129 101.618 69.7827 104.709Z" fill="#FFD200"/>
<path d="M110.418 135.523C114.329 132.36 120.553 132.014 124.924 134.557C121.43 139.712 116.143 144.024 109.705 146.963C106.261 143.617 106.475 138.706 110.418 135.523Z" fill="#FFD200"/>
<path d="M110.306 104.089C106.424 101.15 105.935 96.5029 108.869 93.0962C115.338 95.8114 120.716 99.8994 124.363 104.893C120.105 107.262 114.177 107.018 110.306 104.089Z" fill="#FFD200"/>
<path d="M70.2716 136.428C74.2241 139.427 74.6519 144.197 71.5246 147.634C65.0051 144.929 59.5654 140.821 55.8879 135.817C60.1766 133.245 66.309 133.417 70.2716 136.428Z" fill="#FFD200"/>
<path opacity="0.71" d="M89.6571 91.6424C68.3056 91.978 51.0798 105.605 50.7436 122.221C50.7335 121.926 50.7029 121.642 50.7029 121.337C50.438 104.334 67.9083 90.2187 89.6367 89.8933C111.365 89.5577 129.263 103.124 129.528 120.137C129.538 120.432 129.518 120.726 129.508 121.011C128.652 104.415 111.019 91.317 89.6571 91.6424Z" fill="white"/>
<path d="M89.7793 99.2081C104.652 98.9843 116.896 108.269 117.08 119.903C117.263 131.546 105.304 141.207 90.4312 141.431C75.5586 141.655 63.3141 132.37 63.1307 120.726C62.9576 109.093 74.9066 99.4318 89.7793 99.2081Z" fill="#B94E04"/>
<path d="M97.4194 106.194C93.966 105.127 92.1324 102.259 92.9168 99.5029C95.3514 99.686 97.7861 100.133 100.17 100.876C102.543 101.618 104.703 102.605 106.638 103.774C104.744 106.174 100.873 107.262 97.4194 106.194Z" fill="#FFD200"/>
<path d="M82.9236 134.292C86.489 135.4 88.3328 138.41 87.3447 141.258C84.8998 141.075 82.4346 140.627 80.0407 139.885C77.6469 139.143 75.4771 138.146 73.5416 136.966C75.3447 134.373 79.3582 133.183 82.9236 134.292Z" fill="#FFD200"/>
<path d="M108.166 125.994C109.562 123.289 113.239 121.824 116.754 122.414C116.499 124.326 115.908 126.228 114.941 128.099C113.983 129.97 112.699 131.658 111.192 133.183C108.126 131.729 106.761 128.699 108.166 125.994Z" fill="#FFD200"/>
<path d="M72.0441 114.747C70.6486 117.462 66.9711 118.916 63.4567 118.326C63.7114 116.415 64.3022 114.513 65.27 112.642C66.2377 110.771 67.511 109.083 69.0187 107.557C72.0849 109.011 73.4397 112.042 72.0441 114.747Z" fill="#FFD200"/>
<path d="M82.6384 106.367C79.1851 107.537 75.253 106.52 73.3379 104.11C77.2598 101.628 82.0068 100.042 86.9983 99.5537C87.854 102.299 86.0713 105.208 82.6384 106.367Z" fill="#FFD200"/>
<path d="M97.6944 134.119C101.209 132.929 105.212 133.997 107.087 136.498C103.175 139.02 98.4177 140.648 93.4058 141.166C92.3769 138.359 94.1596 135.309 97.6944 134.119Z" fill="#FFD200"/>
<path d="M108.187 114.32C106.75 111.676 108.003 108.645 110.978 107.1C114.105 110.14 116.102 113.821 116.703 117.716C113.239 118.326 109.623 116.954 108.187 114.32Z" fill="#FFD200"/>
<path d="M72.2886 126.421C73.7555 129.116 72.4211 132.218 69.3141 133.733C66.146 130.692 64.129 126.991 63.5076 123.086C67.0526 122.343 70.8217 123.716 72.2886 126.421Z" fill="#FFD200"/>
<path d="M89.7895 102.391C102.421 102.198 112.822 110.089 112.975 119.974C113.127 129.858 102.971 138.065 90.3396 138.258C77.708 138.451 67.3073 130.56 67.1545 120.676C67.0017 110.781 77.1579 102.584 89.7895 102.391Z" fill="#FFD200"/>
<path opacity="0.71" d="M89.8099 103.316C77.3718 103.51 67.3481 111.462 67.1851 121.133C67.1749 120.98 67.1647 120.828 67.1647 120.665C67.0119 110.781 77.1681 102.574 89.7997 102.381C102.431 102.188 112.832 110.079 112.985 119.964C112.985 120.116 112.985 120.279 112.975 120.431C112.506 110.76 102.238 103.123 89.8099 103.316Z" fill="white"/>
<path d="M89.7997 100.479C75.202 100.703 63.416 110.018 63.1613 121.377C63.1511 121.164 63.1409 120.96 63.1307 120.747C62.9474 109.103 74.9066 99.4522 89.7793 99.2183C104.652 98.9946 116.896 108.279 117.08 119.923C117.08 120.136 117.08 120.35 117.07 120.553C116.458 109.205 104.397 100.256 89.7997 100.479Z" fill="url(#paint14_linear_472_3524)"/>
<path d="M90.9406 149.373C69.4261 149.699 51.691 136.418 51.0798 119.649C51.0594 120.127 51.0492 120.615 51.0594 121.103C51.3243 138.116 69.2122 151.682 90.9508 151.346C112.679 151.011 130.149 136.906 129.895 119.893C129.895 119.72 129.874 119.547 129.874 119.374C129.141 135.726 112.058 149.058 90.9406 149.373Z" fill="#FFD200"/>
<path opacity="0.71" d="M89.0764 133.936C109.328 133.936 125.881 123.604 126.981 110.588C121.745 98.1711 106.659 89.3239 89.056 89.5883C71.0356 89.8629 55.9592 99.6152 51.4873 112.642C54.0645 124.672 69.9049 133.936 89.0764 133.936Z" fill="white"/>
<path d="M89.657 138.523L86.2547 135.238C85.1341 134.16 84.0951 133.123 83.1681 132.208C80.7029 129.767 78.3701 127.469 75.2122 124.764L75.1817 124.754L74.4075 124.103C74.1121 123.859 73.8064 123.604 73.5008 123.35C73.3786 123.259 73.2564 123.177 73.1341 123.086L69.5484 120.584L69.7623 120.442L69.6808 120.381L73.0221 118.052C73.1545 117.961 73.2767 117.869 73.4092 117.777H73.4194C78.1256 113.73 82.9745 109.49 86.0611 106.001L89.657 101.954L93.2428 106.001C96.3294 109.479 101.178 113.72 105.885 117.767L109.603 120.381L109.48 120.482L109.654 120.615L106.282 122.974C106.139 123.076 105.997 123.167 105.864 123.269C101.769 126.645 99.039 129.34 96.1562 132.187C95.219 133.113 94.1698 134.15 93.0594 135.228L89.657 138.523ZM76.8217 122.821L76.8625 122.832L77.1273 123.055C80.489 125.913 82.9032 128.313 85.4703 130.835C86.3973 131.75 87.4363 132.777 88.5467 133.845L89.6672 134.923L90.7878 133.845C91.8879 132.787 92.9372 131.75 93.854 130.845C96.798 127.937 99.5789 125.191 103.786 121.733L103.868 121.672C104.031 121.56 104.183 121.449 104.346 121.337L105.447 120.564L105.385 120.523L105.426 120.482L103.766 119.313C98.9779 115.194 94.0373 110.873 90.8387 107.273L89.657 105.94L88.4754 107.273C85.2767 110.883 80.3362 115.194 75.5484 119.313L75.3854 119.435C75.253 119.527 75.1205 119.618 74.9881 119.72L73.8879 120.482L73.9796 120.554L73.8981 120.615L75.1002 121.459C75.2428 121.56 75.3854 121.652 75.528 121.754L75.6095 121.815C75.9355 122.079 76.2615 122.354 76.5772 122.618L76.8217 122.821ZM89.657 133.143L88.5059 132.025C87.8744 131.404 87.2632 130.804 86.6723 130.225L86.6214 130.174C83.9423 127.53 81.416 125.038 77.8098 121.988L77.6774 121.876L77.6367 121.866L76.3022 120.757L76.0475 120.574L77.0051 119.75C80.8761 116.415 85.2666 112.581 88.4652 109.225L89.6469 107.984L90.8285 109.225C94.0373 112.591 98.4482 116.445 102.34 119.791L103.216 120.544L102.319 121.286C98.275 124.642 95.5552 127.326 92.6927 130.164C92.1019 130.743 91.4703 131.374 90.798 132.025L89.657 133.143ZM80.2649 120.716C83.7895 123.716 86.2852 126.177 88.9338 128.791L88.9847 128.842C89.2088 129.065 89.4329 129.279 89.657 129.503C89.9117 129.248 90.1562 129.015 90.3905 128.781C93.09 126.116 95.6469 123.594 99.2937 120.513C96.0441 117.706 92.5297 114.605 89.657 111.737C86.8251 114.574 83.3616 117.625 80.1528 120.401L80.438 120.605L80.2649 120.716Z" fill="#B94E04"/>
<path d="M107.514 120.36L104.846 118.489C100.078 114.391 95.1783 110.1 92.0407 106.561L89.657 103.876L87.2733 106.561C84.1358 110.1 79.2258 114.391 74.4686 118.489L74.4075 118.53C74.275 118.621 74.1426 118.713 74.0102 118.804L71.7895 120.35L71.871 120.411L71.7182 120.513L74.0611 122.15C74.2139 122.262 74.3769 122.364 74.5297 122.476C74.8455 122.74 75.1715 123.004 75.4873 123.269L75.9966 123.696L76.0374 123.706C79.3582 126.543 81.7725 128.913 84.3192 131.435C85.2971 132.401 86.3056 133.397 87.3956 134.455L89.657 136.631L91.9185 134.455C93.0289 133.387 94.0781 132.35 95.0051 131.435C97.9185 128.557 100.679 125.831 104.835 122.404C104.988 122.292 105.151 122.181 105.304 122.069L107.545 120.503L107.433 120.411L107.514 120.36ZM91.5416 129.38C90.9508 129.96 90.3192 130.591 89.657 131.241C89.0051 130.611 88.3837 129.991 87.7725 129.391C85.0832 126.726 82.5365 124.214 78.8896 121.143L78.5025 120.818L78.4618 120.808C78.3701 120.726 78.2784 120.655 78.1868 120.574L78.2683 120.513L78.1053 120.401C82.2716 116.811 86.5195 113.089 89.657 109.794C92.8149 113.11 97.073 116.842 101.26 120.452C97.1647 123.828 94.4346 126.533 91.5416 129.38Z" fill="#FFD200"/>
<path d="M104.367 120.31L103.837 119.934C103.705 119.842 103.562 119.74 103.43 119.649L103.328 119.578L103.287 119.547C98.4482 115.388 93.4567 111.015 90.2275 107.385L89.6571 106.734L89.0764 107.385C85.8472 111.015 80.8557 115.388 76.017 119.547L75.8846 119.639C75.7521 119.73 75.6095 119.832 75.4771 119.923L74.9372 120.3L74.9576 120.32L74.927 120.34L74.9983 120.391L74.9779 120.412L75.5382 120.808C75.7216 120.93 75.8947 121.062 76.0781 121.184C76.4245 121.469 76.7708 121.754 77.107 122.039L77.2292 122.14L77.27 122.15C80.8455 125.171 83.3718 127.662 86.0408 130.306C87.0187 131.272 88.0272 132.259 89.107 133.306L89.6571 133.835L90.1969 133.306C91.2869 132.259 92.2954 131.262 93.2733 130.296C96.2377 127.377 99.0289 124.611 103.287 121.103C103.47 120.971 103.643 120.849 103.827 120.717L104.367 120.34L104.336 120.32L104.367 120.31Z" fill="url(#paint15_linear_472_3524)"/>
<path opacity="0.27" d="M99.6808 116.435C96.0747 113.272 92.652 110.13 90.2275 107.394L89.6571 106.744L89.0764 107.394C85.8472 111.025 80.8557 115.398 76.017 119.557L75.8846 119.648C75.7521 119.74 75.6095 119.842 75.4771 119.933L74.9372 120.309L74.9576 120.33L74.927 120.35L74.9983 120.401L74.9779 120.421L75.5382 120.818C75.7216 120.94 75.8947 121.072 76.0781 121.194C76.4245 121.479 76.7708 121.764 77.107 122.048L77.2292 122.15L77.27 122.16C78.2988 123.035 79.236 123.848 80.1222 124.652C80.927 124.733 81.7419 124.774 82.5773 124.774C90.3599 124.764 97.0119 121.306 99.6808 116.435Z" fill="white"/>
<path opacity="0.8" d="M104.367 120.371L104.336 120.35L104.357 120.33L103.827 119.954C103.694 119.862 103.552 119.76 103.419 119.669L103.317 119.598L103.277 119.567C98.438 115.408 93.4465 111.035 90.2173 107.405L89.6469 106.754L89.0662 107.405C85.837 111.035 80.8455 115.408 76.0068 119.567L75.8744 119.659C75.7419 119.75 75.5993 119.852 75.4669 119.943L74.927 120.32L74.9474 120.34L74.9168 120.36L74.9881 120.411L74.9677 120.432L75.528 120.828C75.6808 120.93 75.8234 121.032 75.9762 121.143L76.0068 121.123C80.8455 116.964 85.837 112.591 89.0662 108.961L89.6469 108.31L90.2173 108.961C93.4465 112.591 98.4278 116.954 103.277 121.123L103.287 121.133C103.47 121.001 103.643 120.879 103.817 120.757L104.367 120.371Z" fill="white"/>
<path opacity="0.7" d="M51.1613 115.55C54.7368 111.544 65.2598 99.2389 65.2598 99.2389C65.2598 99.2389 74.0407 82.785 74.2649 82.3172C74.326 82.185 63.039 97.7949 63.039 97.7949L51.1613 115.55Z" fill="white"/>
<path d="M66.2377 96.3C62.9983 93.7678 63.5789 86.6493 63.5484 84.646C63.5484 85.2256 63.5484 85.8765 63.5484 86.5782C63.5484 86.2629 63.528 85.9375 63.528 85.8663C63.528 85.4392 63.528 85.0324 63.528 84.646C63.5178 85.2256 63.4771 86.1409 63.3548 87.1883C63.3548 87.1883 62.4075 94.3271 60.6859 95.8017C56.8251 99.1779 47.107 98.527 50.8353 98.6186C63.416 98.883 63.416 111.147 63.528 115.174C63.528 114.635 63.528 113.954 63.528 113.15C63.5382 113.293 63.5484 113.415 63.5484 113.496C63.5484 114.147 63.5484 114.727 63.5484 115.184C63.8132 105.666 63.7827 99.6456 74.764 98.8321C78.4109 98.5474 70.0272 99.249 66.2377 96.3Z" fill="white"/>
</g>
<defs>
<radialGradient id="paint0_radial_472_3524" cx="0" cy="0" r="1" gradientUnits="userSpaceOnUse" gradientTransform="translate(94.0008 94.5014) scale(94.2866 94.2167)">
<stop stop-color="#DBFF49"/>
<stop offset="1" stop-color="#85470E" stop-opacity="0.13"/>
</radialGradient>
<linearGradient id="paint1_linear_472_3524" x1="49.9621" y1="89.8828" x2="176.003" y2="89.8828" gradientUnits="userSpaceOnUse">
<stop stop-color="#E66200"/>
<stop offset="0.7091" stop-color="#FFAC00"/>
</linearGradient>
<linearGradient id="paint2_linear_472_3524" x1="61.3861" y1="89.8802" x2="164.592" y2="89.8802" gradientUnits="userSpaceOnUse">
<stop stop-color="#E66200"/>
<stop offset="0.7091" stop-color="#FFAC00"/>
</linearGradient>
<linearGradient id="paint3_linear_472_3524" x1="55.5759" y1="89.6475" x2="170.66" y2="89.6475" gradientUnits="userSpaceOnUse">
<stop stop-color="#E66200"/>
<stop offset="0.7091" stop-color="#FFAC00"/>
</linearGradient>
<linearGradient id="paint4_linear_472_3524" x1="44.8053" y1="89.8825" x2="158.406" y2="89.8825" gradientUnits="userSpaceOnUse">
<stop stop-color="#E66200"/>
<stop offset="0.7091" stop-color="#FFAC00"/>
</linearGradient>
<linearGradient id="paint5_linear_472_3524" x1="56.0645" y1="89.8811" x2="147.158" y2="89.8811" gradientUnits="userSpaceOnUse">
<stop stop-color="#E66200"/>
<stop offset="0.7091" stop-color="#FFAC00"/>
</linearGradient>
<linearGradient id="paint6_linear_472_3524" x1="50.3456" y1="89.6285" x2="153.043" y2="89.6285" gradientUnits="userSpaceOnUse">
<stop stop-color="#E66200"/>
<stop offset="0.7091" stop-color="#FFAC00"/>
</linearGradient>
<linearGradient id="paint7_linear_472_3524" x1="49.8777" y1="89.8148" x2="134.64" y2="89.8148" gradientUnits="userSpaceOnUse">
<stop stop-color="#E66200"/>
<stop offset="0.7091" stop-color="#FFAC00"/>
</linearGradient>
<linearGradient id="paint8_linear_472_3524" x1="60.6654" y1="89.8151" x2="123.853" y2="89.8151" gradientUnits="userSpaceOnUse">
<stop stop-color="#E66200"/>
<stop offset="0.7091" stop-color="#FFAC00"/>
</linearGradient>
<linearGradient id="paint9_linear_472_3524" x1="55.2711" y1="89.5496" x2="129.246" y2="89.5496" gradientUnits="userSpaceOnUse">
<stop stop-color="#E66200"/>
<stop offset="0.7091" stop-color="#FFAC00"/>
</linearGradient>
<linearGradient id="paint10_linear_472_3524" x1="90.1369" y1="164.049" x2="90.1369" y2="90.7079" gradientUnits="userSpaceOnUse">
<stop stop-color="#E66200"/>
<stop offset="0.7091" stop-color="#FFAC00"/>
</linearGradient>
<linearGradient id="paint11_linear_472_3524" x1="50.718" y1="131.526" x2="129.614" y2="131.526" gradientUnits="userSpaceOnUse">
<stop stop-color="#E66200"/>
<stop offset="0.7091" stop-color="#FFAC00"/>
</linearGradient>
<linearGradient id="paint12_linear_472_3524" x1="50.6911" y1="120.321" x2="129.524" y2="120.321" gradientUnits="userSpaceOnUse">
<stop stop-color="#E66200"/>
<stop offset="0.7091" stop-color="#FFAC00"/>
</linearGradient>
<linearGradient id="paint13_linear_472_3524" x1="70.9451" y1="87.7808" x2="104.175" y2="144.407" gradientUnits="userSpaceOnUse">
<stop stop-color="#E66200"/>
<stop offset="0.7091" stop-color="#FFAC00"/>
</linearGradient>
<linearGradient id="paint14_linear_472_3524" x1="63.1305" y1="110.286" x2="117.079" y2="110.286" gradientUnits="userSpaceOnUse">
<stop stop-color="#E66200"/>
<stop offset="0.7091" stop-color="#FFAC00"/>
</linearGradient>
<linearGradient id="paint15_linear_472_3524" x1="83.7072" y1="110.233" x2="95.531" y2="130.384" gradientUnits="userSpaceOnUse">
<stop stop-color="#E66200"/>
<stop offset="0.7091" stop-color="#FFAC00"/>
</linearGradient>
<clipPath id="clip0_472_3524">
<rect width="132" height="149" fill="white" transform="translate(44 20)"/>
</clipPath>
</defs>
</svg>
