<svg width="32" height="32" viewBox="0 0 32 32" fill="none" xmlns="http://www.w3.org/2000/svg">
<g clip-path="url(#clip0_44_4035)">
<path fill-rule="evenodd" clip-rule="evenodd" d="M32 6.93335V25.0667C32.0018 25.9777 31.8237 26.8801 31.4759 27.7221C31.1282 28.5641 30.6175 29.3292 29.9733 29.9733C29.3292 30.6175 28.5641 31.1282 27.7221 31.4759C26.8801 31.8237 25.9777 32.0018 25.0667 32H6.93335C6.02234 32.0018 5.11993 31.8237 4.27792 31.4759C3.43591 31.1282 2.67086 30.6175 2.02668 29.9733C1.3825 29.3292 0.871863 28.5641 0.524075 27.7221C0.176287 26.8801 -0.00180629 25.9777 1.38112e-05 25.0667V6.93335C-0.00180629 6.02234 0.176287 5.11993 0.524075 4.27792C0.871863 3.43591 1.3825 2.67086 2.02668 2.02668C2.67086 1.3825 3.43591 0.871863 4.27792 0.524075C5.11993 0.176287 6.02234 -0.00180629 6.93335 1.38112e-05H25.0667C25.9777 -0.00180629 26.8801 0.176287 27.7221 0.524075C28.5641 0.871863 29.3292 1.3825 29.9733 2.02668C30.6175 2.67086 31.1282 3.43591 31.4759 4.27792C31.8237 5.11993 32.0018 6.02234 32 6.93335Z" fill="url(#paint0_linear_44_4035)"/>
<path fill-rule="evenodd" clip-rule="evenodd" d="M22.0269 18.3999H26.0002C26.3892 18.3999 26.7622 18.5544 27.0373 18.8295C27.3123 19.1045 27.4669 19.4776 27.4669 19.8666C27.4669 20.2556 27.3123 20.6286 27.0373 20.9037C26.7622 21.1787 26.3892 21.3332 26.0002 21.3332H22.0269V18.3999Z" fill="white"/>
<path fill-rule="evenodd" clip-rule="evenodd" d="M17.1465 18.4C17.4237 18.3983 17.6983 18.4517 17.9547 18.557C18.211 18.6622 18.4439 18.8174 18.6399 19.0133C18.8358 19.2093 18.9909 19.4422 19.0962 19.6985C19.2015 19.9548 19.2549 20.2295 19.2532 20.5066C19.2543 20.79 19.1999 21.0708 19.0932 21.3333H5.99987C5.61089 21.3333 5.23783 21.1788 4.96278 20.9037C4.68773 20.6287 4.5332 20.2556 4.5332 19.8666C4.5332 19.4777 4.68773 19.1046 4.96278 18.8295C5.23783 18.5545 5.61089 18.4 5.99987 18.4H17.1465ZM16.7732 8.74664V11.3066H15.0665L12.9865 7.73331C12.8952 7.57571 12.8358 7.40164 12.8117 7.22107C12.7877 7.04049 12.7995 6.85695 12.8465 6.68094C12.8935 6.50493 12.9747 6.33991 13.0855 6.19531C13.1963 6.05071 13.3345 5.92938 13.4922 5.83824C13.6499 5.74711 13.8241 5.68796 14.0047 5.66419C14.1853 5.64042 14.3688 5.65249 14.5448 5.69971C14.7207 5.74693 14.8856 5.82837 15.0301 5.93938C15.1745 6.05038 15.2956 6.18878 15.3865 6.34664L16.7732 8.74664ZM18.2399 11.2266L25.5199 23.84C25.7144 24.1759 25.7674 24.5754 25.6674 24.9504C25.5674 25.3255 25.3225 25.6455 24.9865 25.84C24.6506 26.0345 24.2512 26.0875 23.8761 25.9875C23.501 25.8875 23.181 25.6426 22.9865 25.3066L18.5865 17.6533C18.1865 16.9066 17.8932 16.32 17.7065 16C17.2683 15.2534 17.0834 14.385 17.1796 13.5246C17.2757 12.6643 17.6477 11.8581 18.2399 11.2266Z" fill="white"/>
<path fill-rule="evenodd" clip-rule="evenodd" d="M12.2667 19.7332H8.88006L16.5334 6.47982C16.7279 6.14387 17.0479 5.89895 17.4229 5.79894C17.798 5.69892 18.1975 5.75199 18.5334 5.94648C18.8693 6.14097 19.1143 6.46095 19.2143 6.83603C19.3143 7.2111 19.2612 7.61054 19.0667 7.94648L12.2667 19.7332ZM10.4801 22.7998L9.06673 25.2798C8.97042 25.4462 8.8423 25.5919 8.68967 25.7087C8.53704 25.8256 8.3629 25.9112 8.17718 25.9607C7.99147 26.0102 7.79781 26.0227 7.60728 25.9974C7.41675 25.9721 7.23307 25.9095 7.06673 25.8132C6.90038 25.7169 6.75464 25.5887 6.63782 25.4361C6.52099 25.2835 6.43537 25.1093 6.38585 24.9236C6.33632 24.7379 6.32386 24.5442 6.34918 24.3537C6.37449 24.1632 6.43709 23.9795 6.53339 23.8132L7.57339 21.9998C7.89635 21.8391 8.25267 21.7569 8.61339 21.7598C8.98962 21.7475 9.36212 21.8377 9.69096 22.0209C10.0198 22.2042 10.2926 22.4734 10.4801 22.7998Z" fill="white"/>
</g>
<defs>
<linearGradient id="paint0_linear_44_4035" x1="15.9997" y1="32" x2="15.9997" y2="1.52588e-05" gradientUnits="userSpaceOnUse">
<stop stop-color="#1D6FF2"/>
<stop offset="1" stop-color="#1AC8FC"/>
</linearGradient>
<clipPath id="clip0_44_4035">
<rect width="32" height="32" fill="white"/>
</clipPath>
</defs>
</svg>
