<svg width="760" height="832" viewBox="0 0 760 832" fill="none" xmlns="http://www.w3.org/2000/svg">
<path opacity="0.5" d="M827 351.911L479.986 397.572L801.29 257.989L736.011 147.868L467.8 360.717L676.008 88.2751L565.811 23.9636L432.244 345.93L477.2 0H349.8L395.202 349.125L256.434 25.8955L146.979 91.5445L358.531 361.385L87.7194 151.918L23.8154 262.782L343.893 397.164L0 351.911V480.089L347.051 434.428L25.7474 574.011L90.9889 684.132L359.2 471.321L150.992 743.762L261.226 808.036L394.793 486.07L349.8 832H477.2L431.835 482.838L570.566 806.142L680.021 740.493L468.469 470.615L739.281 680.119L803.185 569.218L483.144 434.836L827 480.089V351.911Z" fill="url(#paint0_radial_41_3712)"/>
<defs>
<radialGradient id="paint0_radial_41_3712" cx="0" cy="0" r="1" gradientUnits="userSpaceOnUse" gradientTransform="translate(413.505 416.006) scale(414.761 414.754)">
<stop offset="0.2364" stop-color="#CF2866"/>
<stop offset="1" stop-color="#764001" stop-opacity="0"/>
</radialGradient>
</defs>
</svg>
