<svg width="18" height="18" viewBox="0 0 18 18" fill="none" xmlns="http://www.w3.org/2000/svg">
<path d="M14.25 2.25H3.75C2.925 2.25 2.25 2.925 2.25 3.75V14.25C2.25 15.075 2.925 15.75 3.75 15.75H14.25C15.075 15.75 15.75 15.075 15.75 14.25V3.75C15.75 2.925 15.075 2.25 14.25 2.25ZM5.625 13.5C5.0025 13.5 4.5 12.9975 4.5 12.375C4.5 11.7525 5.0025 11.25 5.625 11.25C6.2475 11.25 6.75 11.7525 6.75 12.375C6.75 12.9975 6.2475 13.5 5.625 13.5ZM5.625 6.75C5.0025 6.75 4.5 6.2475 4.5 5.625C4.5 5.0025 5.0025 4.5 5.625 4.5C6.2475 4.5 6.75 5.0025 6.75 5.625C6.75 6.2475 6.2475 6.75 5.625 6.75ZM9 10.125C8.3775 10.125 7.875 9.6225 7.875 9C7.875 8.3775 8.3775 7.875 9 7.875C9.6225 7.875 10.125 8.3775 10.125 9C10.125 9.6225 9.6225 10.125 9 10.125ZM12.375 13.5C11.7525 13.5 11.25 12.9975 11.25 12.375C11.25 11.7525 11.7525 11.25 12.375 11.25C12.9975 11.25 13.5 11.7525 13.5 12.375C13.5 12.9975 12.9975 13.5 12.375 13.5ZM12.375 6.75C11.7525 6.75 11.25 6.2475 11.25 5.625C11.25 5.0025 11.7525 4.5 12.375 4.5C12.9975 4.5 13.5 5.0025 13.5 5.625C13.5 6.2475 12.9975 6.75 12.375 6.75Z" fill="#D8D5DE"/>
</svg>
