<svg width="30" height="30" viewBox="0 0 30 30" fill="none" xmlns="http://www.w3.org/2000/svg">
<path d="M15 26C21.0751 26 26 21.0751 26 15C26 8.92487 21.0751 4 15 4C8.92487 4 4 8.92487 4 15C4 21.0751 8.92487 26 15 26Z" fill="url(#paint0_linear_46_5626)"/>
<path opacity="0.5" d="M22.7771 7.22294C21.5776 6.02345 20.1679 5.15746 18.6658 4.62778L4.625 18.6685C5.15748 20.1679 6.02067 21.5776 7.22296 22.7771C8.42245 23.9766 9.83213 24.8426 11.3343 25.3722L25.3751 11.3315C24.8426 9.83211 23.9794 8.42243 22.7771 7.22294Z" fill="white"/>
<path d="M23.7355 15C23.7355 19.8232 19.8259 23.7356 14.9999 23.7356C10.1768 23.7356 6.2644 19.826 6.2644 15C6.2644 10.174 10.1768 6.26447 14.9999 6.26447C19.8231 6.26447 23.7355 10.1768 23.7355 15Z" fill="url(#paint1_linear_46_5626)"/>
<path d="M22.7994 15C22.7994 19.3075 19.3074 22.7995 14.9999 22.7995C10.6924 22.7995 7.20044 19.3075 7.20044 15C7.20044 10.6925 10.6924 7.2005 14.9999 7.2005C19.3074 7.2005 22.7994 10.6925 22.7994 15Z" fill="url(#paint2_linear_46_5626)"/>
<path d="M18.2595 11.0792V13.1447C17.486 12.6963 16.6817 12.4693 15.8493 12.4693C15.4766 12.4693 15.1907 12.545 14.9945 12.6991C14.7984 12.8532 14.7003 13.0494 14.7003 13.2876C14.7003 13.5259 14.8208 13.7388 15.059 13.9266C15.2972 14.1144 15.6559 14.3106 16.1352 14.5208C16.4322 14.6553 16.6789 14.773 16.875 14.8711C17.0712 14.972 17.2954 15.1093 17.5505 15.2859C17.8027 15.4624 18.0045 15.6502 18.153 15.8464C18.3015 16.0425 18.4277 16.2836 18.5342 16.5722C18.6407 16.8581 18.6911 17.1692 18.6911 17.5055C18.6911 18.2313 18.4585 18.8507 17.9961 19.3552C17.5308 19.8624 16.9031 20.1931 16.11 20.3445V22.0092H14.3752V20.3865C13.5821 20.3108 12.9207 20.1231 12.3938 19.826V17.6008C13.2654 18.2313 14.193 18.548 15.1767 18.548C15.5102 18.548 15.7877 18.4611 16.0091 18.2818C16.2277 18.1052 16.3398 17.8726 16.3398 17.5867C16.3398 17.4915 16.3257 17.399 16.2977 17.3149C16.2697 17.228 16.2164 17.1467 16.1408 17.0711C16.0651 16.9954 15.9894 16.931 15.9194 16.8777C15.8465 16.8245 15.7428 16.7628 15.6027 16.6899C15.4654 16.6171 15.3477 16.5582 15.2524 16.5106C15.1571 16.4629 15.017 16.3957 14.8292 16.3088C14.6414 16.2219 14.4929 16.1546 14.378 16.107C13.7558 15.8211 13.257 15.4652 12.8786 15.0448C12.5003 14.6245 12.3125 14.0639 12.3125 13.3661C12.3125 12.629 12.5563 12.0153 13.044 11.522C13.5316 11.0288 14.2098 10.7317 15.0814 10.6252V8.97452H16.833V10.6532C17.3319 10.7401 17.8111 10.8774 18.2595 11.0792Z" fill="url(#paint3_linear_46_5626)"/>
<path d="M17.7886 10.6084V12.6739C17.0151 12.2255 16.2107 11.9985 15.3784 11.9985C15.0056 11.9985 14.7198 12.0741 14.5236 12.2283C14.3274 12.3824 14.2293 12.5786 14.2293 12.8168C14.2293 13.055 14.3498 13.268 14.588 13.4558C14.8263 13.6436 15.185 13.8397 15.6642 14.0499C15.9613 14.1845 16.2079 14.3022 16.4041 14.4003C16.6003 14.5011 16.8245 14.6385 17.0795 14.815C17.3317 14.9916 17.5335 15.1794 17.6821 15.3755C17.8306 15.5717 17.9567 15.8127 18.0632 16.1014C18.1697 16.3873 18.2202 16.6983 18.2202 17.0346C18.2202 17.7605 17.9875 18.3799 17.5251 18.8843C17.0599 19.3916 16.4321 19.7223 15.639 19.8736V21.5383H13.9042V19.9157C13.1111 19.84 12.4497 19.6522 11.9228 19.3552V17.1299C12.7944 17.7605 13.7221 18.0772 14.7058 18.0772C15.0393 18.0772 15.3167 17.9903 15.5381 17.811C15.7595 17.6344 15.8688 17.4018 15.8688 17.1159C15.8688 17.0206 15.8548 16.9282 15.8268 16.8441C15.7988 16.7572 15.7455 16.6759 15.6698 16.6003C15.5942 16.5246 15.5185 16.4601 15.4484 16.4069C15.3756 16.3536 15.2719 16.292 15.1317 16.2191C14.9916 16.1462 14.8767 16.0874 14.7814 16.0397C14.6861 15.9921 14.546 15.9248 14.3582 15.838C14.1705 15.7511 14.0219 15.6838 13.907 15.6362C13.2849 15.3503 12.786 14.9944 12.4077 14.574C12.0293 14.1536 11.8416 13.5931 11.8416 12.8953C11.8416 12.1582 12.0854 11.5445 12.573 11.0512C13.0607 10.558 13.7389 10.2609 14.6105 10.1544V8.50369H16.3621V10.1824C16.8609 10.2693 17.3402 10.4066 17.7886 10.6084Z" fill="url(#paint4_linear_46_5626)"/>
<path opacity="0.5" d="M17.6821 15.3783C17.5335 15.1822 17.3318 14.9972 17.0795 14.8178C16.8245 14.6413 16.6003 14.5011 16.4041 14.4031C16.2079 14.3022 15.9613 14.1845 15.6642 14.0527C15.185 13.8425 14.8263 13.6436 14.5881 13.4586C14.3498 13.2708 14.2293 13.0606 14.2293 12.8196C14.2293 12.5786 14.3274 12.3852 14.5236 12.2311C14.7198 12.0769 15.0028 12.0013 15.3784 12.0013C16.2107 12.0013 17.0151 12.2255 17.7886 12.6767V10.6112C17.3402 10.4094 16.8609 10.2721 16.3537 10.1964V9.90497L12.1078 14.148C12.1891 14.305 12.2844 14.4507 12.4021 14.5824C12.7804 15.0028 13.2793 15.3559 13.9014 15.6446C14.0163 15.6922 14.1677 15.7595 14.3526 15.8464C14.5404 15.9332 14.6805 16.0005 14.7758 16.0482C14.8711 16.0958 14.9888 16.1546 15.1262 16.2275C15.2663 16.3004 15.37 16.362 15.4428 16.4153C15.5129 16.4685 15.5886 16.533 15.6642 16.6087C15.7399 16.6843 15.7932 16.7656 15.8212 16.8525C15.8492 16.9394 15.8632 17.029 15.8632 17.1243C15.8632 17.4102 15.7539 17.6428 15.5325 17.8194C15.3111 17.9959 15.0365 18.0856 14.7002 18.0856C13.7137 18.0856 12.786 17.7689 11.9172 17.1383V19.3636C12.4273 19.6522 13.0663 19.8344 13.8286 19.9129L17.9315 15.8099C17.8586 15.6474 17.7746 15.5045 17.6821 15.3783Z" fill="white"/>
<defs>
<linearGradient id="paint0_linear_46_5626" x1="14.9999" y1="4" x2="14.9999" y2="26" gradientUnits="userSpaceOnUse">
<stop offset="0.00540541" stop-color="#FFDB32"/>
<stop offset="1" stop-color="#FCA32D"/>
</linearGradient>
<linearGradient id="paint1_linear_46_5626" x1="14.9999" y1="6.26531" x2="14.9999" y2="23.7346" gradientUnits="userSpaceOnUse">
<stop offset="0.00540541" stop-color="#ED7600"/>
<stop offset="1" stop-color="#E33900"/>
</linearGradient>
<linearGradient id="paint2_linear_46_5626" x1="14.9999" y1="7.19952" x2="14.9999" y2="22.8003" gradientUnits="userSpaceOnUse">
<stop offset="0.00540541" stop-color="#FFB61C"/>
<stop offset="1" stop-color="#F5811B"/>
</linearGradient>
<linearGradient id="paint3_linear_46_5626" x1="15.4977" y1="8.98354" x2="15.4977" y2="22.0116" gradientUnits="userSpaceOnUse">
<stop offset="0.00540541" stop-color="#BA5D00"/>
<stop offset="1" stop-color="#B02C00"/>
</linearGradient>
<linearGradient id="paint4_linear_46_5626" x1="15.0279" y1="8.51389" x2="15.0279" y2="21.5418" gradientUnits="userSpaceOnUse">
<stop offset="0.00540541" stop-color="#FFFC35"/>
<stop offset="1" stop-color="#FFC830"/>
</linearGradient>
</defs>
</svg>
