<svg width="18" height="18" viewBox="0 0 18 18" fill="none" xmlns="http://www.w3.org/2000/svg">
<path d="M4.75715 3.70349C4.82689 3.77314 4.88221 3.85586 4.91995 3.94691C4.95769 4.03795 4.97712 4.13555 4.97712 4.23411C4.97712 4.33267 4.95769 4.43027 4.91995 4.52132C4.88221 4.61236 4.82689 4.69508 4.75715 4.76474C3.63173 5.89035 2.99949 7.41689 2.99949 9.00861C2.99949 10.6003 3.63173 12.1269 4.75715 13.2525C4.82679 13.3222 4.88201 13.4049 4.91968 13.4959C4.95735 13.5869 4.97672 13.6845 4.97668 13.783C4.97665 13.8815 4.95721 13.9791 4.91948 14.0701C4.88175 14.1611 4.82646 14.2437 4.75678 14.3134C4.6871 14.383 4.60438 14.4382 4.51336 14.4759C4.42233 14.5136 4.32478 14.5329 4.22626 14.5329C4.12775 14.5329 4.03021 14.5134 3.93921 14.4757C3.84821 14.438 3.76554 14.3827 3.6959 14.313C0.766404 11.3835 0.766404 6.63299 3.6959 3.70349C3.76556 3.63375 3.84828 3.57843 3.93932 3.54069C4.03037 3.50295 4.12797 3.48352 4.22653 3.48352C4.32509 3.48352 4.42269 3.50295 4.51373 3.54069C4.60478 3.57843 4.6875 3.63375 4.75715 3.70349ZM14.3054 3.70349C17.2349 6.63374 17.2349 11.3835 14.3054 14.313C14.164 14.4496 13.9745 14.5252 13.7779 14.5235C13.5812 14.5218 13.3931 14.4429 13.254 14.3039C13.115 14.1648 13.0361 13.9767 13.0344 13.78C13.0327 13.5834 13.1083 13.3939 13.2449 13.2525C14.3703 12.1269 15.0026 10.6003 15.0026 9.00861C15.0026 7.41689 14.3703 5.89035 13.2449 4.76474C13.1042 4.6241 13.0251 4.43333 13.025 4.23438C13.0249 4.03542 13.1039 3.84459 13.2445 3.70386C13.3852 3.56313 13.5759 3.48403 13.7749 3.48396C13.9738 3.48389 14.1647 3.56285 14.3054 3.70349ZM6.9824 5.85899C7.12301 5.99963 7.20199 6.19036 7.20199 6.38924C7.20199 6.58811 7.12301 6.77884 6.9824 6.91949C6.70937 7.19249 6.49278 7.51661 6.34502 7.87333C6.19725 8.23004 6.12119 8.61237 6.12119 8.99849C6.12119 9.3846 6.19725 9.76693 6.34502 10.1236C6.49278 10.4804 6.70937 10.8045 6.9824 11.0775C7.05404 11.1467 7.11117 11.2294 7.15048 11.3209C7.18979 11.4124 7.21048 11.5109 7.21134 11.6104C7.21221 11.71 7.19323 11.8088 7.15552 11.901C7.11781 11.9931 7.06212 12.0769 6.9917 12.1473C6.92128 12.2177 6.83754 12.2734 6.74537 12.3111C6.6532 12.3488 6.55444 12.3678 6.45485 12.3669C6.35527 12.3661 6.25685 12.3454 6.16535 12.3061C6.07385 12.2668 5.99109 12.2096 5.9219 12.138C5.08928 11.3053 4.62151 10.176 4.62151 8.99849C4.62151 7.82095 5.08928 6.69164 5.9219 5.85899C6.06255 5.71838 6.25328 5.6394 6.45215 5.6394C6.65103 5.6394 6.84176 5.71838 6.9824 5.85899ZM12.2017 5.85899C13.0343 6.69164 13.502 7.82095 13.502 8.99849C13.502 10.176 13.0343 11.3053 12.2017 12.138C12.132 12.2077 12.0493 12.263 11.9583 12.3007C11.8673 12.3384 11.7698 12.3579 11.6713 12.3579C11.5728 12.3579 11.4752 12.3386 11.3842 12.3009C11.2932 12.2632 11.2105 12.208 11.1408 12.1384C11.0711 12.0687 11.0158 11.9861 10.9781 11.8951C10.9403 11.8041 10.9209 11.7065 10.9209 11.608C10.9208 11.5095 10.9402 11.4119 10.9779 11.3209C11.0155 11.2299 11.0708 11.1472 11.1404 11.0775C11.4134 10.8045 11.63 10.4804 11.7778 10.1236C11.9256 9.76693 12.0016 9.3846 12.0016 8.99849C12.0016 8.61237 11.9256 8.23004 11.7778 7.87333C11.63 7.51661 11.4134 7.19249 11.1404 6.91949C10.9998 6.77876 10.9208 6.58792 10.9209 6.38897C10.9209 6.19002 11 5.99924 11.1408 5.85861C11.2815 5.71798 11.4723 5.63901 11.6713 5.63908C11.8702 5.63915 12.061 5.71826 12.2017 5.85899ZM9.0614 7.93649C9.20914 7.93649 9.35543 7.96558 9.49192 8.02212C9.62841 8.07866 9.75243 8.16152 9.8569 8.26599C9.96137 8.37046 10.0442 8.49448 10.1008 8.63097C10.1573 8.76746 10.1864 8.91375 10.1864 9.06149C10.1864 9.20922 10.1573 9.35551 10.1008 9.492C10.0442 9.6285 9.96137 9.75252 9.8569 9.85698C9.75243 9.96145 9.62841 10.0443 9.49192 10.1009C9.35543 10.1574 9.20914 10.1865 9.0614 10.1865C8.76304 10.1865 8.47689 10.068 8.26591 9.85698C8.05493 9.646 7.9364 9.35985 7.9364 9.06149C7.9364 8.76312 8.05493 8.47697 8.26591 8.26599C8.47689 8.05501 8.76304 7.93649 9.0614 7.93649Z" fill="#D8D5DE"/>
</svg>
