<svg width="138" height="36" viewBox="0 0 138 36" fill="none" xmlns="http://www.w3.org/2000/svg">
<path d="M45.4874 16.4794H50.4132V19.8532H41.0789V3.9961H45.4874V16.4794Z" fill="white"/>
<path d="M59.7298 20.0107C58.2453 20.0107 56.8807 19.6658 55.6362 18.976C54.3916 18.2713 53.4019 17.3041 52.6672 16.0745C51.9474 14.8299 51.5875 13.4279 51.5875 11.8684C51.5875 10.309 51.9474 8.91443 52.6672 7.68485C53.4019 6.44027 54.3916 5.4731 55.6362 4.78334C56.8807 4.09357 58.2453 3.74869 59.7298 3.74869C61.2293 3.74869 62.5938 4.09357 63.8234 4.78334C65.068 5.4731 66.0501 6.44027 66.7699 7.68485C67.4896 8.91443 67.8495 10.309 67.8495 11.8684C67.8495 13.4279 67.4896 14.8299 66.7699 16.0745C66.0501 17.3041 65.068 18.2713 63.8234 18.976C62.5788 19.6658 61.2143 20.0107 59.7298 20.0107ZM59.7298 15.9171C60.8544 15.9171 61.7391 15.5497 62.3839 14.8149C63.0437 14.0802 63.3735 13.098 63.3735 11.8684C63.3735 10.6089 63.0437 9.61919 62.3839 8.89944C61.7391 8.16469 60.8544 7.79731 59.7298 7.79731C58.5902 7.79731 57.698 8.16469 57.0532 8.89944C56.4084 9.61919 56.086 10.6089 56.086 11.8684C56.086 13.113 56.4084 14.1027 57.0532 14.8374C57.698 15.5572 58.5902 15.9171 59.7298 15.9171Z" fill="white"/>
<path d="M79.9529 9.21433C79.698 8.79447 79.3456 8.47208 78.8957 8.24716C78.4609 8.02224 77.9436 7.90977 77.3438 7.90977C76.2341 7.90977 75.3569 8.26965 74.7122 8.98941C74.0824 9.70916 73.7675 10.6763 73.7675 11.8909C73.7675 13.2555 74.1049 14.2976 74.7796 15.0174C75.4694 15.7221 76.4666 16.0745 77.7711 16.0745C79.3156 16.0745 80.4177 15.3772 81.0775 13.9827H76.6465V10.8113H84.8787V15.0848C84.5338 15.9246 84.024 16.7118 83.3492 17.4465C82.6894 18.1813 81.8497 18.7886 80.8301 19.2684C79.8104 19.7333 78.6483 19.9657 77.3438 19.9657C75.7543 19.9657 74.3448 19.6283 73.1152 18.9535C71.9006 18.2638 70.9559 17.3116 70.2812 16.097C69.6214 14.8674 69.2915 13.4654 69.2915 11.8909C69.2915 10.3315 69.6214 8.94442 70.2812 7.72983C70.9559 6.50025 71.9006 5.54808 73.1152 4.87331C74.3298 4.18354 75.7318 3.83866 77.3213 3.83866C79.3156 3.83866 80.965 4.31849 82.2696 5.27817C83.5741 6.23784 84.3839 7.5499 84.6988 9.21433H79.9529Z" fill="white"/>
<path d="M91.2628 3.9961V19.8532H86.8543V3.9961H91.2628Z" fill="white"/>
<path d="M108.461 19.8532H104.052L98.1819 10.9912V19.8532H93.7734V3.9961H98.1819L104.052 12.9706V3.9961H108.461V19.8532Z" fill="white"/>
<path d="M115.381 7.5274V10.114H120.441V13.4654H115.381V16.3219H121.116V19.8532H110.972V3.9961H121.116V7.5274H115.381Z" fill="white"/>
<path d="M131.324 19.8532L128.175 14.0052H127.703V19.8532H123.295V3.9961H130.245C131.519 3.9961 132.599 4.22103 133.484 4.67087C134.368 5.10573 135.036 5.71302 135.485 6.49276C135.935 7.2575 136.16 8.1197 136.16 9.07938C136.16 10.159 135.86 11.1112 135.261 11.9359C134.676 12.7456 133.814 13.3229 132.674 13.6678L136.25 19.8532H131.324ZM127.703 10.9912H129.885C130.485 10.9912 130.935 10.8488 131.234 10.5639C131.534 10.279 131.684 9.86661 131.684 9.32679C131.684 8.81697 131.527 8.4196 131.212 8.1347C130.912 7.8348 130.47 7.68485 129.885 7.68485H127.703V10.9912Z" fill="white"/>
<path d="M40.2832 28.3348C40.2832 27.4246 40.4864 26.6117 40.8929 25.8959C41.3082 25.1714 41.8693 24.6103 42.5762 24.2126C43.292 23.8062 44.0916 23.6029 44.9753 23.6029C46.0091 23.6029 46.9148 23.868 47.6924 24.3982C48.47 24.9284 49.0135 25.6618 49.3227 26.5984H47.1888C46.9767 26.1566 46.6763 25.8252 46.2875 25.6043C45.9075 25.3834 45.4657 25.273 44.962 25.273C44.423 25.273 43.9414 25.4011 43.5173 25.6574C43.102 25.9048 42.775 26.2582 42.5365 26.7177C42.3067 27.1772 42.1918 27.7162 42.1918 28.3348C42.1918 28.9445 42.3067 29.4835 42.5365 29.9518C42.775 30.4113 43.102 30.7691 43.5173 31.0254C43.9414 31.2728 44.423 31.3965 44.962 31.3965C45.4657 31.3965 45.9075 31.2861 46.2875 31.0652C46.6763 30.8354 46.9767 30.4996 47.1888 30.0578H49.3227C49.0135 31.0033 48.47 31.7411 47.6924 32.2713C46.9237 32.7927 46.018 33.0533 44.9753 33.0533C44.0916 33.0533 43.292 32.8545 42.5762 32.4569C41.8693 32.0504 41.3082 31.4893 40.8929 30.7736C40.4864 30.0578 40.2832 29.2449 40.2832 28.3348Z" fill="white"/>
<path d="M58.5024 31.211H54.8177L54.208 32.9738H52.2596L55.5865 23.709H57.7469L61.0738 32.9738H59.1122L58.5024 31.211ZM57.9988 29.7265L56.6601 25.8562L55.3214 29.7265H57.9988Z" fill="white"/>
<path d="M67.4335 33.0666C66.7885 33.0666 66.2053 32.9561 65.684 32.7352C65.1715 32.5143 64.765 32.1962 64.4646 31.7809C64.1641 31.3656 64.0095 30.8752 64.0007 30.3097H65.9888C66.0153 30.6896 66.1479 30.9901 66.3864 31.211C66.6339 31.4319 66.9696 31.5423 67.3938 31.5423C67.8268 31.5423 68.167 31.4407 68.4144 31.2375C68.6618 31.0254 68.7855 30.7515 68.7855 30.4157C68.7855 30.1418 68.7016 29.9164 68.5337 29.7397C68.3658 29.563 68.1537 29.426 67.8975 29.3288C67.65 29.2228 67.3054 29.1079 66.8636 28.9842C66.2627 28.8075 65.7723 28.6352 65.3924 28.4673C65.0212 28.2906 64.6987 28.0299 64.4248 27.6853C64.1597 27.3318 64.0272 26.8635 64.0272 26.2803C64.0272 25.7325 64.1641 25.2553 64.438 24.8488C64.712 24.4424 65.0964 24.1331 65.5912 23.921C66.086 23.7001 66.6515 23.5897 67.2878 23.5897C68.2421 23.5897 69.0152 23.8238 69.6073 24.2922C70.2081 24.7516 70.5395 25.3967 70.6014 26.2273H68.5602C68.5425 25.9092 68.4055 25.6485 68.1493 25.4453C67.9019 25.2332 67.5705 25.1272 67.1552 25.1272C66.7929 25.1272 66.5013 25.22 66.2804 25.4055C66.0683 25.5911 65.9623 25.8606 65.9623 26.214C65.9623 26.4615 66.0418 26.6691 66.2009 26.837C66.3688 26.9961 66.572 27.1286 66.8106 27.2346C67.058 27.3318 67.4026 27.4467 67.8444 27.5792C68.4453 27.756 68.9357 27.9327 69.3157 28.1094C69.6956 28.2862 70.0226 28.5512 70.2965 28.9047C70.5704 29.2581 70.7074 29.722 70.7074 30.2964C70.7074 30.7912 70.5793 31.2507 70.323 31.6749C70.0668 32.099 69.6912 32.4392 69.1964 32.6955C68.7016 32.9429 68.1139 33.0666 67.4335 33.0666Z" fill="white"/>
<path d="M76.0937 23.7222V32.9738H74.238V23.7222H76.0937Z" fill="white"/>
<path d="M87.7618 32.9738H85.9062L81.7045 26.6249V32.9738H79.8489V23.709H81.7045L85.9062 30.0711V23.709H87.7618V32.9738Z" fill="white"/>
<path d="M95.8119 33.0666C94.9459 33.0666 94.1507 32.8633 93.4261 32.4569C92.7015 32.0504 92.1272 31.4893 91.703 30.7736C91.2789 30.049 91.0668 29.2316 91.0668 28.3215C91.0668 27.4202 91.2789 26.6117 91.703 25.8959C92.1272 25.1714 92.7015 24.6058 93.4261 24.1994C94.1507 23.7929 94.9459 23.5897 95.8119 23.5897C96.6867 23.5897 97.482 23.7929 98.1977 24.1994C98.9223 24.6058 99.4922 25.1714 99.9075 25.8959C100.332 26.6117 100.544 27.4202 100.544 28.3215C100.544 29.2316 100.332 30.049 99.9075 30.7736C99.4922 31.4893 98.9223 32.0504 98.1977 32.4569C97.4731 32.8633 96.6779 33.0666 95.8119 33.0666ZM95.8119 31.4098C96.3686 31.4098 96.859 31.2861 97.2831 31.0387C97.7073 30.7824 98.0386 30.4201 98.2772 29.9518C98.5158 29.4835 98.6351 28.94 98.6351 28.3215C98.6351 27.703 98.5158 27.1639 98.2772 26.7045C98.0386 26.2361 97.7073 25.8783 97.2831 25.6308C96.859 25.3834 96.3686 25.2597 95.8119 25.2597C95.2552 25.2597 94.7604 25.3834 94.3274 25.6308C93.9033 25.8783 93.5719 26.2361 93.3333 26.7045C93.0947 27.1639 92.9754 27.703 92.9754 28.3215C92.9754 28.94 93.0947 29.4835 93.3333 29.9518C93.5719 30.4201 93.9033 30.7824 94.3274 31.0387C94.7604 31.2861 95.2552 31.4098 95.8119 31.4098Z" fill="white"/>
<path d="M22.4089 27.8191L26.9085 35.6129H15.3938H3.87827L8.29757 27.9588L9.86867 27.6177C11.2129 27.326 12.4653 26.7481 13.5518 25.9255L10.0045 32.0694H15.3938H20.783L17.2357 25.9247C18.7289 27.056 20.5245 27.7165 22.4089 27.8191ZM4.93698 15.4656C4.1306 16.272 3.72702 17.33 3.72702 18.3879C3.72702 19.4458 4.1306 20.503 4.93698 21.3102C5.74337 22.1166 6.80132 22.5201 7.85926 22.5201C8.46502 22.5201 9.07077 22.3874 9.62868 22.1235L7.3654 26.0474C5.56897 25.9324 3.80573 25.1878 2.43217 23.815C0.933608 22.3156 0.184326 20.3518 0.184326 18.3879C0.184326 16.424 0.933608 14.4594 2.43217 12.9608L7.04439 8.34859L8.29679 9.601L9.5492 10.8534L15.3938 16.698L16.6462 17.9504L16.809 18.1132L17.8986 19.2028L20.006 21.3102C20.8124 22.1166 21.8703 22.5201 22.9282 22.5201C23.9862 22.5201 25.0441 22.1166 25.8505 21.3102C26.6569 20.5038 27.0605 19.4458 27.0605 18.3879C27.0605 17.33 26.6569 16.2728 25.8505 15.4656L23.7431 13.3582L19.151 17.9504L16.6462 15.4456L21.2383 10.8534L22.4907 9.601L23.7431 8.34859L28.3553 12.9608C29.8539 14.4594 30.6032 16.424 30.6032 18.3879C30.6032 20.3518 29.8539 22.3164 28.3553 23.815C26.8568 25.3135 24.8921 26.0628 22.9282 26.0628C20.9644 26.0628 18.9997 25.3135 17.5012 23.815L15.3938 21.7068L13.2864 23.8142C12.206 24.8945 10.8834 25.5859 9.49364 25.8877L13.1822 19.4945L7.04439 13.3582L4.93698 15.4656ZM8.29679 7.09696L15.3938 0L22.4907 7.09696L19.9859 9.60177L15.3938 5.00885L10.8016 9.601L8.29679 7.09696Z" fill="url(#paint0_linear_301_971)"/>
<defs>
<linearGradient id="paint0_linear_301_971" x1="0.184326" y1="1.66936" x2="24.1197" y2="4.55255" gradientUnits="userSpaceOnUse">
<stop stop-color="#FF5050"/>
<stop offset="1" stop-color="#FF3D9A"/>
</linearGradient>
</defs>
</svg>
