<svg width="16" height="15" viewBox="0 0 16 15" fill="none" xmlns="http://www.w3.org/2000/svg">
<path d="M14.9628 5.20685L10.4997 4.55822L8.5046 0.513489C8.45011 0.402747 8.36046 0.313099 8.24972 0.258606C7.97198 0.121497 7.63448 0.235755 7.49562 0.513489L5.5005 4.55822L1.03741 5.20685C0.914367 5.22443 0.801867 5.28243 0.715734 5.37033C0.611604 5.47735 0.554224 5.62134 0.556202 5.77065C0.558179 5.91996 0.619353 6.06238 0.726281 6.16661L3.95538 9.31486L3.19249 13.7604C3.1746 13.8638 3.18605 13.9701 3.22552 14.0674C3.265 14.1646 3.33094 14.2488 3.41585 14.3105C3.50077 14.3722 3.60127 14.4088 3.70595 14.4163C3.81063 14.4238 3.91531 14.4017 4.00812 14.3527L8.00011 12.2539L11.9921 14.3527C12.1011 14.4108 12.2276 14.4301 12.3489 14.409C12.6548 14.3563 12.8605 14.0662 12.8077 13.7604L12.0448 9.31486L15.2739 6.16661C15.3618 6.08048 15.4198 5.96798 15.4374 5.84493C15.4849 5.53732 15.2704 5.25255 14.9628 5.20685Z" fill="#D8D5DE"/>
</svg>
