<svg width="17" height="19" viewBox="0 0 17 19" fill="none" xmlns="http://www.w3.org/2000/svg">
<g clip-path="url(#clip0_43_4865)">
<path d="M10.2409 0.312012L12.8011 1.22771C16.3618 2.49847 17.9715 7.34124 16.396 12.1279C14.7994 16.9761 10.5429 19.9314 6.89027 18.7327C6.84563 18.7193 6.80099 18.7033 6.75897 18.6873L4.19873 17.7716C4.24337 17.7876 4.28538 17.801 4.33002 17.817C7.98263 19.0157 12.2392 16.0604 13.8357 11.2123C15.4113 6.42554 13.8042 1.58544 10.2409 0.312012Z" fill="url(#paint0_linear_43_4865)"/>
<path d="M13.7775 11.3859C15.4448 6.5634 13.8606 1.6049 10.2391 0.310736C6.61759 -0.983425 2.33019 1.87683 0.662914 6.6993C-1.00436 11.5218 0.579852 16.4803 4.20136 17.7744C7.82286 19.0686 12.1103 16.2083 13.7775 11.3859Z" fill="#FFFE94"/>
<path d="M6.01064 17.0164C5.54586 17.0164 5.08895 16.9444 4.65568 16.8002C3.46353 16.4104 2.49457 15.5161 1.85123 14.2213C0.884905 12.2858 0.792998 9.66419 1.60177 7.21077C2.77292 3.65211 5.64564 1.06787 8.43171 1.06787C8.89649 1.06787 9.35339 1.13995 9.78929 1.28411C10.9788 1.67388 11.9504 2.56555 12.5937 3.86301C13.5574 5.80119 13.6493 8.4228 12.8406 10.8762C11.6694 14.4349 8.7967 17.0164 6.01064 17.0164Z" fill="url(#paint1_linear_43_4865)"/>
<path d="M2.50483 14.4002C1.54113 12.4647 1.44923 9.84306 2.258 7.38697C3.42915 3.8283 6.30187 1.24674 9.08793 1.24674C9.3584 1.24674 9.62624 1.27344 9.88621 1.32149C9.85207 1.31081 9.82056 1.29479 9.78642 1.28144C9.35315 1.13995 8.89625 1.06787 8.43146 1.06787C5.64539 1.06787 2.77267 3.65211 1.60153 7.21077C0.792753 9.66419 0.884659 12.2858 1.84836 14.224C2.4917 15.5188 3.46328 16.4131 4.65281 16.8029C4.834 16.8616 5.02043 16.907 5.2095 16.9417C4.06461 16.5332 3.12979 15.6603 2.50483 14.4002Z" fill="#FA9828"/>
<path opacity="0.41" d="M16.9577 7.49875C16.6952 4.53275 15.1879 2.07933 12.801 1.22504L10.2407 0.312012C12.2758 1.04083 13.6728 2.93362 14.2032 5.31763C15.1354 5.84356 16.1122 6.55369 16.9577 7.49875Z" fill="#FDE36D"/>
<path opacity="0.67" d="M6.89027 18.7329C9.23781 19.5044 11.8348 18.5567 13.8147 16.4931C12.7959 16.4957 11.6956 16.4237 10.5639 16.2314C8.69425 17.8306 6.41498 18.5007 4.33002 17.8172C4.28538 17.8039 4.24074 17.7879 4.19873 17.7718L6.75897 18.6875C6.80361 18.7036 6.84825 18.7196 6.89027 18.7329Z" fill="#FABD4B"/>
<path d="M6.28887 12.1758L6.82193 12.352L3.45816 13.2196L2.92773 13.0434L6.28887 12.1758Z" fill="#E39706"/>
<path d="M8.21387 3.1792L8.74692 3.3554L9.75526 6.87935L9.22483 6.70316L8.21387 3.1792Z" fill="#E39706"/>
<path d="M9.50281 10.4995L10.0359 10.6757L9.55796 14.4266L9.0249 14.2504L9.50281 10.4995Z" fill="#E39706"/>
<path d="M12.2969 8.15283L12.8273 8.32903L10.036 10.6757L9.50293 10.4995L12.2969 8.15283Z" fill="#E39706"/>
<path d="M9.22461 6.70312L9.75504 6.87932L12.8273 8.32895L12.2969 8.15275L9.22461 6.70312Z" fill="#E39706"/>
<path d="M8.21365 3.1792L9.22462 6.70316L12.2969 8.15278L9.50296 10.4994L9.02505 14.2503L6.28887 12.176L2.92773 13.0436L4.02798 9.4182L2.92773 6.3828L5.84247 6.03307L8.21365 3.1792Z" fill="url(#paint2_linear_43_4865)"/>
</g>
<defs>
<linearGradient id="paint0_linear_43_4865" x1="13.1646" y1="1.27173" x2="9.37019" y2="19.0442" gradientUnits="userSpaceOnUse">
<stop stop-color="#F9C615"/>
<stop offset="0.0759" stop-color="#F6BF13"/>
<stop offset="0.4623" stop-color="#E69E09"/>
<stop offset="0.7841" stop-color="#DC8902"/>
<stop offset="1" stop-color="#D98200"/>
</linearGradient>
<linearGradient id="paint1_linear_43_4865" x1="3.77569" y1="2.49694" x2="10.3242" y2="14.5358" gradientUnits="userSpaceOnUse">
<stop stop-color="#F9A615"/>
<stop offset="0.1661" stop-color="#FBC13C"/>
<stop offset="0.3468" stop-color="#FCDA60"/>
<stop offset="0.443" stop-color="#FDE46E"/>
<stop offset="0.5702" stop-color="#FCD152"/>
<stop offset="0.7503" stop-color="#FAB931"/>
<stop offset="0.9001" stop-color="#F9AB1C"/>
<stop offset="1" stop-color="#F9A615"/>
</linearGradient>
<linearGradient id="paint2_linear_43_4865" x1="5.72228" y1="5.46403" x2="9.03348" y2="14.1713" gradientUnits="userSpaceOnUse">
<stop stop-color="#FFFFAB"/>
<stop offset="0.0885" stop-color="#FFF99C"/>
<stop offset="0.3813" stop-color="#FFE66D"/>
<stop offset="0.6414" stop-color="#FFD84C"/>
<stop offset="0.8565" stop-color="#FFD037"/>
<stop offset="1" stop-color="#FFCD30"/>
</linearGradient>
<clipPath id="clip0_43_4865">
<rect width="17" height="19" fill="white"/>
</clipPath>
</defs>
</svg>
